<svg width="846" height="59" viewBox="0 0 846 59" fill="none" xmlns="http://www.w3.org/2000/svg">
<rect width="846" height="59" fill="white"/>
<path d="M29.8 30.1V35.375H33.125V30.1H29.8ZM31.475 18.25C26.525 18.25 22.825 20.775 22.825 24.625C22.825 28.525 26.525 31.025 31.475 31.025C36.425 31.025 40.125 28.525 40.125 24.625C40.125 20.775 36.425 18.25 31.475 18.25ZM31.475 20.875C34.65 20.875 36.85 22.275 36.85 24.625C36.85 27.025 34.65 28.4 31.475 28.4C28.3 28.4 26.1 27.025 26.1 24.625C26.1 22.275 28.3 20.875 31.475 20.875ZM21.025 34.85V37.55H41.975V34.85H21.025ZM46.598 21.7V24.325H62.573V21.7H46.598ZM43.998 25.825V28.45H64.973V25.825H43.998ZM46.598 17.325V23.1H49.898V17.325H46.598ZM46.373 29.85V32.35H59.173V33.65H46.398V38.05H49.723V36H62.498V29.85H46.373ZM46.398 37.45V39.975H63.173V37.45H46.398ZM66.9961 28.875V31.525H87.9211V28.875H66.9961ZM69.5211 37.175V39.825H85.5711V37.175H69.5211ZM69.5211 33.075V38.025H72.8461V33.075H69.5211ZM77.4711 17.75C72.4211 17.75 69.0961 19.575 69.0961 22.525C69.0961 25.475 72.4211 27.3 77.4711 27.3C82.4961 27.3 85.8461 25.475 85.8461 22.525C85.8461 19.575 82.4961 17.75 77.4711 17.75ZM77.4711 20.4C80.5961 20.4 82.4211 21.125 82.4211 22.525C82.4211 23.95 80.5961 24.65 77.4711 24.65C74.3461 24.65 72.5211 23.95 72.5211 22.525C72.5211 21.125 74.3461 20.4 77.4711 20.4ZM101.645 18.125V20.35C101.645 23.275 100.02 26.275 96.1197 27.525L97.7447 30.15C102.27 28.7 104.395 24.725 104.395 20.35V18.125H101.645ZM102.32 18.125V20.35C102.32 24.65 104.37 28.35 108.795 29.75L110.42 27.15C106.645 26 105.045 23.2 105.045 20.35V18.125H102.32ZM99.6697 31.9V34.55H112.12V40.225H115.47V31.9H99.6697ZM112.12 17.075V30.875H115.47V17.075H112.12ZM121.793 17.975V26.175H137.518V17.975H121.793ZM134.243 20.575V23.575H125.043V20.575H134.243ZM119.218 28.35V30.975H140.143V28.35H119.218ZM127.993 25.575V29.1H131.318V25.575H127.993ZM121.543 32.65V35.275H134.293V40.225H137.618V32.65H121.543ZM148.741 17.75C145.216 17.75 142.566 19.95 142.566 23.05C142.566 26.125 145.216 28.325 148.741 28.325C152.266 28.325 154.916 26.125 154.916 23.05C154.916 19.95 152.266 17.75 148.741 17.75ZM148.741 20.45C150.441 20.45 151.691 21.4 151.691 23.05C151.691 24.7 150.441 25.65 148.741 25.65C147.041 25.65 145.766 24.7 145.766 23.05C145.766 21.4 147.041 20.45 148.741 20.45ZM158.116 17.075V28.65H161.466V17.075H158.116ZM146.016 29.6V32.175H158.166V33.55H146.066V38.75H149.316V35.95H161.466V29.6H146.016ZM146.066 37.4V39.975H162.041V37.4H146.066ZM165.752 36.3032C165.752 35.7824 165.931 35.347 166.289 34.9971C166.655 34.6471 167.139 34.4722 167.742 34.4722C168.344 34.4722 168.824 34.6471 169.182 34.9971C169.548 35.347 169.731 35.7824 169.731 36.3032C169.731 36.8241 169.548 37.2594 169.182 37.6094C168.824 37.9593 168.344 38.1343 167.742 38.1343C167.139 38.1343 166.655 37.9593 166.289 37.6094C165.931 37.2594 165.752 36.8241 165.752 36.3032ZM173.003 36.3032C173.003 35.7824 173.182 35.347 173.54 34.9971C173.906 34.6471 174.39 34.4722 174.993 34.4722C175.595 34.4722 176.075 34.6471 176.433 34.9971C176.799 35.347 176.982 35.7824 176.982 36.3032C176.982 36.8241 176.799 37.2594 176.433 37.6094C176.075 37.9593 175.595 38.1343 174.993 38.1343C174.39 38.1343 173.906 37.9593 173.54 37.6094C173.182 37.2594 173.003 36.8241 173.003 36.3032ZM184.05 20.2266L183.647 32.5679H180.718L180.303 20.2266H184.05ZM180.205 36.3887C180.205 35.8678 180.384 35.4365 180.742 35.0947C181.108 34.7448 181.589 34.5698 182.183 34.5698C182.785 34.5698 183.265 34.7448 183.623 35.0947C183.981 35.4365 184.16 35.8678 184.16 36.3887C184.16 36.8932 183.981 37.3205 183.623 37.6704C183.265 38.0203 182.785 38.1953 182.183 38.1953C181.589 38.1953 181.108 38.0203 180.742 37.6704C180.384 37.3205 180.205 36.8932 180.205 36.3887Z" fill="black"/>
</svg>
