<svg width="846" height="59" viewBox="0 0 846 59" fill="none" xmlns="http://www.w3.org/2000/svg">
<rect width="846" height="59" fill="white"/>
<path d="M28.8135 22.2661L23.9795 37H20.0854L26.6895 19.2266H29.1675L28.8135 22.2661ZM32.8296 37L27.9834 22.2661L27.5928 19.2266H30.0952L36.7358 37H32.8296ZM32.6099 30.3838V33.2524H23.2227V30.3838H32.6099ZM41.875 18.25V37H38.3472V18.25H41.875ZM48.5522 33.582L51.2988 23.792H53.5327L52.8125 27.6372L50.0659 37H48.1982L48.5522 33.582ZM47.1606 23.792L49.126 33.5698L49.3091 37H47.1118L43.7671 23.792H47.1606ZM56.0474 33.4111L57.9639 23.792H61.3696L58.0249 37H55.8398L56.0474 33.4111ZM53.8379 23.792L56.5723 33.5088L56.9507 37H55.0708L52.3242 27.6494L51.6284 23.792H53.8379ZM70.2686 34.0215V28.1377C70.2686 27.7145 70.1994 27.3524 70.061 27.0513C69.9227 26.742 69.707 26.502 69.4141 26.3311C69.1292 26.1602 68.759 26.0747 68.3032 26.0747C67.9126 26.0747 67.5749 26.1439 67.29 26.2822C67.0052 26.4124 66.7855 26.6037 66.6309 26.856C66.4762 27.1001 66.3989 27.389 66.3989 27.7227H62.8833C62.8833 27.1611 63.0135 26.6281 63.2739 26.1235C63.5343 25.619 63.9128 25.1755 64.4092 24.793C64.9056 24.4023 65.4956 24.0972 66.1792 23.8774C66.8709 23.6577 67.644 23.5479 68.4985 23.5479C69.5239 23.5479 70.4354 23.7188 71.2329 24.0605C72.0304 24.4023 72.6571 24.915 73.1128 25.5986C73.5767 26.2822 73.8086 27.1367 73.8086 28.1621V33.814C73.8086 34.5382 73.8534 35.1323 73.9429 35.5962C74.0324 36.0519 74.1626 36.4507 74.3335 36.7925V37H70.7812C70.6104 36.6419 70.4801 36.1943 70.3906 35.6572C70.3092 35.112 70.2686 34.5667 70.2686 34.0215ZM70.7324 28.9556L70.7568 30.9453H68.7915C68.3276 30.9453 67.9248 30.9982 67.583 31.104C67.2412 31.2098 66.9604 31.3604 66.7407 31.5557C66.521 31.7428 66.3582 31.9626 66.2524 32.2148C66.1548 32.4671 66.106 32.7438 66.106 33.0449C66.106 33.346 66.1751 33.6187 66.3135 33.8628C66.4518 34.0988 66.6512 34.286 66.9116 34.4243C67.172 34.5545 67.4772 34.6196 67.8271 34.6196C68.3561 34.6196 68.8159 34.5138 69.2065 34.3022C69.5972 34.0907 69.8983 33.8302 70.1099 33.521C70.3296 33.2118 70.4435 32.9188 70.4517 32.6421L71.3794 34.1313C71.2492 34.465 71.0701 34.8109 70.8423 35.1689C70.6226 35.527 70.3418 35.8647 70 36.1821C69.6582 36.4914 69.2472 36.7477 68.7671 36.9512C68.2869 37.1465 67.7173 37.2441 67.0581 37.2441C66.2199 37.2441 65.459 37.0773 64.7754 36.7437C64.0999 36.4019 63.5628 35.9339 63.1641 35.3398C62.7734 34.7376 62.5781 34.054 62.5781 33.2891C62.5781 32.5973 62.7083 31.9829 62.9688 31.4458C63.2292 30.9087 63.6117 30.457 64.1162 30.0908C64.6289 29.7165 65.2677 29.4357 66.0327 29.2485C66.7977 29.0532 67.6847 28.9556 68.6938 28.9556H70.7324ZM80.2417 35.5107L83.7451 23.792H87.5171L82.207 38.9897C82.0931 39.3234 81.9385 39.6815 81.7432 40.064C81.556 40.4465 81.2996 40.8086 80.9741 41.1504C80.6567 41.5003 80.2539 41.7852 79.7656 42.0049C79.2855 42.2246 78.6955 42.3345 77.9956 42.3345C77.6619 42.3345 77.3893 42.3141 77.1777 42.2734C76.9661 42.2327 76.7139 42.1758 76.4209 42.1025V39.5269C76.5104 39.5269 76.604 39.5269 76.7017 39.5269C76.7993 39.535 76.8929 39.5391 76.9824 39.5391C77.4463 39.5391 77.8247 39.4862 78.1177 39.3804C78.4106 39.2746 78.6466 39.1118 78.8257 38.8921C79.0047 38.6805 79.1471 38.4038 79.2529 38.062L80.2417 35.5107ZM78.7769 23.792L81.6455 33.3623L82.146 37.0854L79.7534 37.3418L75.0049 23.792H78.7769ZM96.062 33.3501C96.062 33.0978 95.9888 32.87 95.8423 32.6665C95.6958 32.4631 95.4232 32.2759 95.0244 32.105C94.6338 31.9259 94.0682 31.7632 93.3276 31.6167C92.6603 31.4702 92.0378 31.2871 91.46 31.0674C90.8903 30.8395 90.3939 30.5669 89.9707 30.2495C89.5557 29.9321 89.2301 29.5578 88.9941 29.1265C88.7581 28.687 88.6401 28.1865 88.6401 27.625C88.6401 27.0716 88.7581 26.5508 88.9941 26.0625C89.2383 25.5742 89.5841 25.1429 90.0317 24.7686C90.4875 24.3861 91.0409 24.089 91.6919 23.8774C92.3511 23.6577 93.0916 23.5479 93.9136 23.5479C95.061 23.5479 96.0457 23.731 96.8677 24.0972C97.6978 24.4634 98.3325 24.9679 98.772 25.6108C99.2196 26.2456 99.4434 26.9699 99.4434 27.7837H95.9277C95.9277 27.4419 95.8545 27.1367 95.708 26.8682C95.5697 26.5915 95.3499 26.3758 95.0488 26.2212C94.7559 26.0584 94.3734 25.9771 93.9014 25.9771C93.5107 25.9771 93.173 26.0462 92.8882 26.1846C92.6034 26.3148 92.3836 26.4938 92.229 26.7217C92.0825 26.9414 92.0093 27.1855 92.0093 27.4541C92.0093 27.6576 92.05 27.8407 92.1313 28.0034C92.2209 28.158 92.3633 28.3005 92.5586 28.4307C92.7539 28.5609 93.0062 28.6829 93.3154 28.7969C93.6328 28.9027 94.0234 29.0003 94.4873 29.0898C95.4395 29.2852 96.2899 29.5415 97.0386 29.8589C97.7873 30.1681 98.3813 30.5913 98.8208 31.1284C99.2603 31.6574 99.48 32.3532 99.48 33.2158C99.48 33.8018 99.3498 34.3389 99.0894 34.8271C98.8289 35.3154 98.4546 35.7427 97.9663 36.1089C97.478 36.467 96.8921 36.7477 96.2085 36.9512C95.533 37.1465 94.7721 37.2441 93.9258 37.2441C92.6969 37.2441 91.6553 37.0244 90.8008 36.585C89.9544 36.1455 89.3115 35.5881 88.8721 34.9126C88.4408 34.229 88.2251 33.5291 88.2251 32.813H91.5576C91.5739 33.2931 91.696 33.6797 91.9238 33.9727C92.1598 34.2656 92.4569 34.4772 92.8149 34.6074C93.1812 34.7376 93.5758 34.8027 93.999 34.8027C94.4548 34.8027 94.8332 34.7417 95.1343 34.6196C95.4354 34.4894 95.6632 34.3185 95.8179 34.1069C95.9806 33.8872 96.062 33.6349 96.062 33.3501ZM107.988 18.25H111.504V33.9727L111.15 37H107.988V18.25ZM119.866 30.2617V30.5181C119.866 31.5028 119.76 32.4061 119.548 33.228C119.345 34.05 119.028 34.762 118.596 35.3643C118.165 35.9583 117.628 36.4222 116.985 36.7559C116.35 37.0814 115.601 37.2441 114.739 37.2441C113.933 37.2441 113.233 37.0814 112.639 36.7559C112.053 36.4303 111.561 35.9705 111.162 35.3765C110.763 34.7824 110.442 34.0866 110.198 33.2891C109.954 32.4915 109.771 31.6208 109.648 30.6768V30.1152C109.771 29.1712 109.954 28.3005 110.198 27.5029C110.442 26.7054 110.763 26.0096 111.162 25.4155C111.561 24.8215 112.053 24.3617 112.639 24.0361C113.225 23.7106 113.917 23.5479 114.714 23.5479C115.585 23.5479 116.342 23.7147 116.985 24.0483C117.636 24.3739 118.173 24.8377 118.596 25.4399C119.028 26.034 119.345 26.742 119.548 27.564C119.76 28.3778 119.866 29.277 119.866 30.2617ZM116.35 30.5181V30.2617C116.35 29.7246 116.309 29.2201 116.228 28.748C116.155 28.2679 116.025 27.8488 115.837 27.4907C115.65 27.1245 115.394 26.8356 115.068 26.624C114.751 26.4124 114.34 26.3066 113.835 26.3066C113.355 26.3066 112.948 26.388 112.615 26.5508C112.281 26.7135 112.004 26.9414 111.785 27.2344C111.573 27.5273 111.414 27.8773 111.309 28.2842C111.203 28.6829 111.138 29.1224 111.113 29.6025V31.2017C111.138 31.8446 111.243 32.4142 111.431 32.9106C111.626 33.3989 111.919 33.7855 112.31 34.0703C112.708 34.347 113.225 34.4854 113.86 34.4854C114.356 34.4854 114.767 34.3877 115.093 34.1924C115.418 33.9971 115.671 33.7204 115.85 33.3623C116.037 33.0042 116.167 32.5851 116.24 32.105C116.313 31.6167 116.35 31.0877 116.35 30.5181ZM128.13 37.2441C127.104 37.2441 126.185 37.0814 125.371 36.7559C124.557 36.4222 123.866 35.9624 123.296 35.3765C122.734 34.7905 122.303 34.111 122.002 33.3379C121.701 32.5566 121.55 31.7266 121.55 30.8477V30.3594C121.55 29.3584 121.693 28.4429 121.978 27.6128C122.262 26.7827 122.669 26.0625 123.198 25.4521C123.735 24.8418 124.386 24.3739 125.151 24.0483C125.916 23.7147 126.779 23.5479 127.739 23.5479C128.675 23.5479 129.505 23.7025 130.229 24.0117C130.954 24.321 131.56 24.7604 132.048 25.3301C132.545 25.8997 132.919 26.5833 133.171 27.3809C133.424 28.1702 133.55 29.0492 133.55 30.0176V31.4824H123.052V29.1387H130.095V28.8701C130.095 28.3818 130.006 27.9465 129.827 27.564C129.656 27.1733 129.395 26.8641 129.045 26.6362C128.695 26.4084 128.248 26.2944 127.703 26.2944C127.239 26.2944 126.84 26.3962 126.506 26.5996C126.173 26.8031 125.9 27.0879 125.688 27.4541C125.485 27.8203 125.33 28.2516 125.225 28.748C125.127 29.2363 125.078 29.7734 125.078 30.3594V30.8477C125.078 31.3766 125.151 31.8649 125.298 32.3125C125.452 32.7601 125.668 33.1466 125.945 33.4722C126.23 33.7977 126.571 34.05 126.97 34.229C127.377 34.408 127.837 34.4976 128.35 34.4976C128.984 34.4976 129.574 34.3755 130.12 34.1313C130.673 33.8791 131.149 33.5007 131.548 32.9961L133.257 34.8516C132.98 35.2503 132.602 35.6328 132.122 35.999C131.65 36.3652 131.08 36.6663 130.413 36.9023C129.745 37.1302 128.984 37.2441 128.13 37.2441ZM145.208 18.25V37H141.692V18.25H145.208ZM144.707 29.9321H143.743C143.751 29.0125 143.873 28.1662 144.109 27.3931C144.345 26.6118 144.683 25.9364 145.122 25.3667C145.562 24.7889 146.086 24.3413 146.697 24.0239C147.315 23.7065 147.999 23.5479 148.748 23.5479C149.399 23.5479 149.989 23.6414 150.518 23.8286C151.055 24.0076 151.514 24.3006 151.897 24.7075C152.288 25.1063 152.589 25.6312 152.8 26.2822C153.012 26.9333 153.118 27.7227 153.118 28.6504V37H149.578V28.626C149.578 28.04 149.492 27.5802 149.321 27.2466C149.159 26.9048 148.918 26.6647 148.601 26.5264C148.292 26.3799 147.909 26.3066 147.454 26.3066C146.949 26.3066 146.518 26.4002 146.16 26.5874C145.81 26.7746 145.529 27.035 145.317 27.3687C145.106 27.6942 144.951 28.0767 144.854 28.5161C144.756 28.9556 144.707 29.4276 144.707 29.9321ZM161.87 37.2441C160.845 37.2441 159.925 37.0814 159.111 36.7559C158.298 36.4222 157.606 35.9624 157.036 35.3765C156.475 34.7905 156.043 34.111 155.742 33.3379C155.441 32.5566 155.291 31.7266 155.291 30.8477V30.3594C155.291 29.3584 155.433 28.4429 155.718 27.6128C156.003 26.7827 156.41 26.0625 156.938 25.4521C157.476 24.8418 158.127 24.3739 158.892 24.0483C159.657 23.7147 160.519 23.5479 161.479 23.5479C162.415 23.5479 163.245 23.7025 163.97 24.0117C164.694 24.321 165.3 24.7604 165.789 25.3301C166.285 25.8997 166.659 26.5833 166.912 27.3809C167.164 28.1702 167.29 29.0492 167.29 30.0176V31.4824H156.792V29.1387H163.835V28.8701C163.835 28.3818 163.746 27.9465 163.567 27.564C163.396 27.1733 163.136 26.8641 162.786 26.6362C162.436 26.4084 161.988 26.2944 161.443 26.2944C160.979 26.2944 160.58 26.3962 160.247 26.5996C159.913 26.8031 159.64 27.0879 159.429 27.4541C159.225 27.8203 159.071 28.2516 158.965 28.748C158.867 29.2363 158.818 29.7734 158.818 30.3594V30.8477C158.818 31.3766 158.892 31.8649 159.038 32.3125C159.193 32.7601 159.408 33.1466 159.685 33.4722C159.97 33.7977 160.312 34.05 160.71 34.229C161.117 34.408 161.577 34.4976 162.09 34.4976C162.725 34.4976 163.315 34.3755 163.86 34.1313C164.413 33.8791 164.889 33.5007 165.288 32.9961L166.997 34.8516C166.72 35.2503 166.342 35.6328 165.862 35.999C165.39 36.3652 164.82 36.6663 164.153 36.9023C163.486 37.1302 162.725 37.2441 161.87 37.2441ZM176.421 34.0215V28.1377C176.421 27.7145 176.352 27.3524 176.213 27.0513C176.075 26.742 175.859 26.502 175.566 26.3311C175.282 26.1602 174.911 26.0747 174.456 26.0747C174.065 26.0747 173.727 26.1439 173.442 26.2822C173.158 26.4124 172.938 26.6037 172.783 26.856C172.629 27.1001 172.551 27.389 172.551 27.7227H169.036C169.036 27.1611 169.166 26.6281 169.426 26.1235C169.687 25.619 170.065 25.1755 170.562 24.793C171.058 24.4023 171.648 24.0972 172.332 23.8774C173.023 23.6577 173.796 23.5479 174.651 23.5479C175.676 23.5479 176.588 23.7188 177.385 24.0605C178.183 24.4023 178.809 24.915 179.265 25.5986C179.729 26.2822 179.961 27.1367 179.961 28.1621V33.814C179.961 34.5382 180.006 35.1323 180.095 35.5962C180.185 36.0519 180.315 36.4507 180.486 36.7925V37H176.934C176.763 36.6419 176.632 36.1943 176.543 35.6572C176.462 35.112 176.421 34.5667 176.421 34.0215ZM176.885 28.9556L176.909 30.9453H174.944C174.48 30.9453 174.077 30.9982 173.735 31.104C173.394 31.2098 173.113 31.3604 172.893 31.5557C172.673 31.7428 172.511 31.9626 172.405 32.2148C172.307 32.4671 172.258 32.7438 172.258 33.0449C172.258 33.346 172.327 33.6187 172.466 33.8628C172.604 34.0988 172.804 34.286 173.064 34.4243C173.324 34.5545 173.63 34.6196 173.979 34.6196C174.508 34.6196 174.968 34.5138 175.359 34.3022C175.75 34.0907 176.051 33.8302 176.262 33.521C176.482 33.2118 176.596 32.9188 176.604 32.6421L177.532 34.1313C177.402 34.465 177.222 34.8109 176.995 35.1689C176.775 35.527 176.494 35.8647 176.152 36.1821C175.811 36.4914 175.4 36.7477 174.919 36.9512C174.439 37.1465 173.87 37.2441 173.21 37.2441C172.372 37.2441 171.611 37.0773 170.928 36.7437C170.252 36.4019 169.715 35.9339 169.316 35.3398C168.926 34.7376 168.73 34.054 168.73 33.2891C168.73 32.5973 168.861 31.9829 169.121 31.4458C169.382 30.9087 169.764 30.457 170.269 30.0908C170.781 29.7165 171.42 29.4357 172.185 29.2485C172.95 29.0532 173.837 28.9556 174.846 28.9556H176.885ZM186.382 18.25V37H182.854V18.25H186.382ZM195.757 23.792V26.2822H188.066V23.792H195.757ZM189.971 20.5327H193.486V33.0205C193.486 33.403 193.535 33.696 193.633 33.8994C193.739 34.1029 193.893 34.2453 194.097 34.3267C194.3 34.3999 194.556 34.4365 194.866 34.4365C195.085 34.4365 195.281 34.4284 195.452 34.4121C195.631 34.3877 195.781 34.3633 195.903 34.3389L195.916 36.9268C195.614 37.0244 195.289 37.1017 194.939 37.1587C194.589 37.2157 194.202 37.2441 193.779 37.2441C193.006 37.2441 192.331 37.118 191.753 36.8657C191.183 36.6053 190.744 36.1903 190.435 35.6206C190.125 35.0509 189.971 34.3022 189.971 33.3745V20.5327ZM201.189 18.25V37H197.673V18.25H201.189ZM200.688 29.9321H199.724C199.732 29.0125 199.854 28.1662 200.09 27.3931C200.326 26.6118 200.664 25.9364 201.104 25.3667C201.543 24.7889 202.068 24.3413 202.678 24.0239C203.297 23.7065 203.98 23.5479 204.729 23.5479C205.38 23.5479 205.97 23.6414 206.499 23.8286C207.036 24.0076 207.496 24.3006 207.878 24.7075C208.269 25.1063 208.57 25.6312 208.782 26.2822C208.993 26.9333 209.099 27.7227 209.099 28.6504V37H205.559V28.626C205.559 28.04 205.474 27.5802 205.303 27.2466C205.14 26.9048 204.9 26.6647 204.583 26.5264C204.273 26.3799 203.891 26.3066 203.435 26.3066C202.931 26.3066 202.499 26.4002 202.141 26.5874C201.791 26.7746 201.51 27.035 201.299 27.3687C201.087 27.6942 200.933 28.0767 200.835 28.5161C200.737 28.9556 200.688 29.4276 200.688 29.9321ZM215.691 35.5107L219.194 23.792H222.966L217.656 38.9897C217.542 39.3234 217.388 39.6815 217.192 40.064C217.005 40.4465 216.749 40.8086 216.423 41.1504C216.106 41.5003 215.703 41.7852 215.215 42.0049C214.735 42.2246 214.145 42.3345 213.445 42.3345C213.111 42.3345 212.839 42.3141 212.627 42.2734C212.415 42.2327 212.163 42.1758 211.87 42.1025V39.5269C211.96 39.5269 212.053 39.5269 212.151 39.5269C212.249 39.535 212.342 39.5391 212.432 39.5391C212.896 39.5391 213.274 39.4862 213.567 39.3804C213.86 39.2746 214.096 39.1118 214.275 38.8921C214.454 38.6805 214.596 38.4038 214.702 38.062L215.691 35.5107ZM214.226 23.792L217.095 33.3623L217.595 37.0854L215.203 37.3418L210.454 23.792H214.226ZM222.734 35.3032C222.734 34.7824 222.913 34.347 223.271 33.9971C223.638 33.6471 224.122 33.4722 224.724 33.4722C225.326 33.4722 225.806 33.6471 226.165 33.9971C226.531 34.347 226.714 34.7824 226.714 35.3032C226.714 35.8241 226.531 36.2594 226.165 36.6094C225.806 36.9593 225.326 37.1343 224.724 37.1343C224.122 37.1343 223.638 36.9593 223.271 36.6094C222.913 36.2594 222.734 35.8241 222.734 35.3032Z" fill="black"/>
</svg>
