<svg width="846" height="59" viewBox="0 0 846 59" fill="none" xmlns="http://www.w3.org/2000/svg">
<rect width="846" height="59" fill="white"/>
<path d="M31.8896 31.104H35.5396C35.4663 32.3003 35.1367 33.3623 34.5508 34.29C33.973 35.2178 33.1632 35.9421 32.1216 36.4629C31.0881 36.9837 29.8429 37.2441 28.3862 37.2441C27.2469 37.2441 26.2256 37.0488 25.3223 36.6582C24.4189 36.2594 23.6458 35.6898 23.0029 34.9492C22.3682 34.2087 21.884 33.3135 21.5503 32.2637C21.2166 31.2139 21.0498 30.0379 21.0498 28.7358V27.5029C21.0498 26.2008 21.2207 25.0249 21.5625 23.9751C21.9124 22.9172 22.4089 22.0179 23.0518 21.2773C23.7028 20.5368 24.48 19.9671 25.3833 19.5684C26.2866 19.1696 27.2957 18.9702 28.4106 18.9702C29.8918 18.9702 31.141 19.2388 32.1582 19.7759C33.1836 20.313 33.9771 21.0535 34.5386 21.9976C35.1082 22.9416 35.45 24.0158 35.564 25.2202H31.9019C31.8612 24.5041 31.7188 23.8978 31.4746 23.4014C31.2305 22.8968 30.8602 22.5184 30.3638 22.2661C29.8755 22.0057 29.2244 21.8755 28.4106 21.8755C27.8003 21.8755 27.2673 21.9894 26.8115 22.2173C26.3558 22.4451 25.9733 22.791 25.6641 23.2549C25.3548 23.7188 25.1229 24.3047 24.9683 25.0127C24.8218 25.7126 24.7485 26.5345 24.7485 27.4785V28.7358C24.7485 29.6554 24.8177 30.4652 24.9561 31.165C25.0944 31.8568 25.306 32.4427 25.5908 32.9229C25.8838 33.3949 26.2581 33.7529 26.7139 33.9971C27.1777 34.2331 27.7352 34.3511 28.3862 34.3511C29.1512 34.3511 29.7819 34.229 30.2783 33.9849C30.7747 33.7407 31.1532 33.3786 31.4136 32.8984C31.6821 32.4183 31.8408 31.8201 31.8896 31.104ZM41.1548 18.25V37H37.6392V18.25H41.1548ZM40.6543 29.9321H39.6899C39.6981 29.0125 39.8201 28.1662 40.0562 27.3931C40.2922 26.6118 40.6299 25.9364 41.0693 25.3667C41.5088 24.7889 42.0337 24.3413 42.644 24.0239C43.2625 23.7065 43.9461 23.5479 44.6948 23.5479C45.3459 23.5479 45.9359 23.6414 46.4648 23.8286C47.002 24.0076 47.4618 24.3006 47.8442 24.7075C48.2349 25.1063 48.536 25.6312 48.7476 26.2822C48.9591 26.9333 49.0649 27.7227 49.0649 28.6504V37H45.5249V28.626C45.5249 28.04 45.4395 27.5802 45.2686 27.2466C45.1058 26.9048 44.8657 26.6647 44.5483 26.5264C44.2391 26.3799 43.8566 26.3066 43.4009 26.3066C42.8963 26.3066 42.465 26.4002 42.1069 26.5874C41.757 26.7746 41.4762 27.035 41.2646 27.3687C41.0531 27.6942 40.8984 28.0767 40.8008 28.5161C40.7031 28.9556 40.6543 29.4276 40.6543 29.9321ZM57.8174 37.2441C56.792 37.2441 55.8724 37.0814 55.0586 36.7559C54.2448 36.4222 53.5531 35.9624 52.9834 35.3765C52.4219 34.7905 51.9906 34.111 51.6895 33.3379C51.3883 32.5566 51.2378 31.7266 51.2378 30.8477V30.3594C51.2378 29.3584 51.3802 28.4429 51.665 27.6128C51.9499 26.7827 52.3568 26.0625 52.8857 25.4521C53.4229 24.8418 54.0739 24.3739 54.8389 24.0483C55.6038 23.7147 56.4665 23.5479 57.4268 23.5479C58.3626 23.5479 59.1927 23.7025 59.917 24.0117C60.6413 24.321 61.2476 24.7604 61.7358 25.3301C62.2323 25.8997 62.6066 26.5833 62.8589 27.3809C63.1112 28.1702 63.2373 29.0492 63.2373 30.0176V31.4824H52.7393V29.1387H59.7827V28.8701C59.7827 28.3818 59.6932 27.9465 59.5142 27.564C59.3433 27.1733 59.0828 26.8641 58.7329 26.6362C58.383 26.4084 57.9354 26.2944 57.3901 26.2944C56.9263 26.2944 56.5275 26.3962 56.1938 26.5996C55.8602 26.8031 55.5876 27.0879 55.376 27.4541C55.1725 27.8203 55.0179 28.2516 54.9121 28.748C54.8145 29.2363 54.7656 29.7734 54.7656 30.3594V30.8477C54.7656 31.3766 54.8389 31.8649 54.9854 32.3125C55.14 32.7601 55.3556 33.1466 55.6323 33.4722C55.9172 33.7977 56.259 34.05 56.6577 34.229C57.0646 34.408 57.5244 34.4976 58.0371 34.4976C58.6719 34.4976 59.2619 34.3755 59.8071 34.1313C60.3605 33.8791 60.8366 33.5007 61.2354 32.9961L62.9443 34.8516C62.6676 35.2503 62.2892 35.6328 61.8091 35.999C61.3371 36.3652 60.7674 36.6663 60.1001 36.9023C59.4328 37.1302 58.6719 37.2441 57.8174 37.2441ZM71.3184 37.2441C70.293 37.2441 69.3734 37.0814 68.5596 36.7559C67.7458 36.4222 67.054 35.9624 66.4844 35.3765C65.9229 34.7905 65.4915 34.111 65.1904 33.3379C64.8893 32.5566 64.7388 31.7266 64.7388 30.8477V30.3594C64.7388 29.3584 64.8812 28.4429 65.166 27.6128C65.4508 26.7827 65.8577 26.0625 66.3867 25.4521C66.9238 24.8418 67.5749 24.3739 68.3398 24.0483C69.1048 23.7147 69.9674 23.5479 70.9277 23.5479C71.8636 23.5479 72.6937 23.7025 73.418 24.0117C74.1423 24.321 74.7485 24.7604 75.2368 25.3301C75.7332 25.8997 76.1076 26.5833 76.3599 27.3809C76.6121 28.1702 76.7383 29.0492 76.7383 30.0176V31.4824H66.2402V29.1387H73.2837V28.8701C73.2837 28.3818 73.1942 27.9465 73.0151 27.564C72.8442 27.1733 72.5838 26.8641 72.2339 26.6362C71.884 26.4084 71.4364 26.2944 70.8911 26.2944C70.4272 26.2944 70.0285 26.3962 69.6948 26.5996C69.3612 26.8031 69.0885 27.0879 68.877 27.4541C68.6735 27.8203 68.5189 28.2516 68.4131 28.748C68.3154 29.2363 68.2666 29.7734 68.2666 30.3594V30.8477C68.2666 31.3766 68.3398 31.8649 68.4863 32.3125C68.641 32.7601 68.8566 33.1466 69.1333 33.4722C69.4181 33.7977 69.7599 34.05 70.1587 34.229C70.5656 34.408 71.0254 34.4976 71.5381 34.4976C72.1729 34.4976 72.7629 34.3755 73.3081 34.1313C73.8615 33.8791 74.3376 33.5007 74.7363 32.9961L76.4453 34.8516C76.1686 35.2503 75.7902 35.6328 75.3101 35.999C74.8381 36.3652 74.2684 36.6663 73.6011 36.9023C72.9338 37.1302 72.1729 37.2441 71.3184 37.2441ZM82.2559 26.6729V37H78.7402V23.792H82.0483L82.2559 26.6729ZM86.2354 23.7065L86.1743 26.9658C86.0034 26.9414 85.7959 26.9211 85.5518 26.9048C85.3158 26.8804 85.1001 26.8682 84.9048 26.8682C84.4084 26.8682 83.9771 26.9333 83.6108 27.0635C83.2528 27.1855 82.9517 27.3687 82.7075 27.6128C82.4715 27.8569 82.2925 28.154 82.1704 28.5039C82.0565 28.8538 81.9914 29.2526 81.9751 29.7002L81.2671 29.4805C81.2671 28.626 81.3525 27.8407 81.5234 27.1245C81.6943 26.4002 81.9425 25.7695 82.2681 25.2324C82.6017 24.6953 83.0086 24.2803 83.4888 23.9873C83.9689 23.6943 84.5182 23.5479 85.1367 23.5479C85.332 23.5479 85.5314 23.5641 85.7349 23.5967C85.9383 23.6211 86.1051 23.6577 86.2354 23.7065ZM92.6196 37H89.0796V22.6201C89.0796 21.6191 89.2749 20.7769 89.6655 20.0933C90.0643 19.4015 90.6217 18.8807 91.3379 18.5308C92.0622 18.1727 92.9207 17.9937 93.9136 17.9937C94.2391 17.9937 94.5524 18.0181 94.8535 18.0669C95.1546 18.1076 95.4476 18.1605 95.7324 18.2256L95.6958 20.8745C95.5412 20.8338 95.3784 20.8053 95.2075 20.7891C95.0366 20.7728 94.8372 20.7646 94.6094 20.7646C94.1862 20.7646 93.8241 20.8379 93.5229 20.9844C93.23 21.1227 93.0062 21.3302 92.8516 21.6069C92.6969 21.8836 92.6196 22.2214 92.6196 22.6201V37ZM95.2563 23.792V26.2822H87.1143V23.792H95.2563ZM104.912 33.8384V23.792H108.428V37H105.12L104.912 33.8384ZM105.303 31.1284L106.34 31.104C106.34 31.9829 106.239 32.8008 106.035 33.5576C105.832 34.3063 105.527 34.9574 105.12 35.5107C104.713 36.056 104.2 36.4832 103.582 36.7925C102.963 37.0936 102.235 37.2441 101.396 37.2441C100.754 37.2441 100.16 37.1546 99.6143 36.9756C99.0771 36.7884 98.6133 36.4995 98.2227 36.1089C97.8402 35.7101 97.5391 35.2015 97.3193 34.583C97.1077 33.9564 97.002 33.2036 97.002 32.3247V23.792H100.518V32.3491C100.518 32.7397 100.562 33.0693 100.652 33.3379C100.75 33.6064 100.884 33.8262 101.055 33.9971C101.226 34.168 101.425 34.29 101.653 34.3633C101.889 34.4365 102.149 34.4731 102.434 34.4731C103.158 34.4731 103.728 34.3267 104.143 34.0337C104.566 33.7407 104.863 33.342 105.034 32.8374C105.213 32.3247 105.303 31.755 105.303 31.1284ZM114.824 18.25V37H111.296V18.25H114.824ZM121.44 18.25V37H117.913V18.25H121.44ZM128.264 35.5107L131.768 23.792H135.54L130.229 38.9897C130.116 39.3234 129.961 39.6815 129.766 40.064C129.578 40.4465 129.322 40.8086 128.997 41.1504C128.679 41.5003 128.276 41.7852 127.788 42.0049C127.308 42.2246 126.718 42.3345 126.018 42.3345C125.684 42.3345 125.412 42.3141 125.2 42.2734C124.989 42.2327 124.736 42.1758 124.443 42.1025V39.5269C124.533 39.5269 124.626 39.5269 124.724 39.5269C124.822 39.535 124.915 39.5391 125.005 39.5391C125.469 39.5391 125.847 39.4862 126.14 39.3804C126.433 39.2746 126.669 39.1118 126.848 38.8921C127.027 38.6805 127.17 38.4038 127.275 38.062L128.264 35.5107ZM126.799 23.792L129.668 33.3623L130.168 37.0854L127.776 37.3418L123.027 23.792H126.799ZM149.248 37.2441C148.223 37.2441 147.303 37.0814 146.489 36.7559C145.675 36.4222 144.984 35.9624 144.414 35.3765C143.853 34.7905 143.421 34.111 143.12 33.3379C142.819 32.5566 142.668 31.7266 142.668 30.8477V30.3594C142.668 29.3584 142.811 28.4429 143.096 27.6128C143.381 26.7827 143.787 26.0625 144.316 25.4521C144.854 24.8418 145.505 24.3739 146.27 24.0483C147.035 23.7147 147.897 23.5479 148.857 23.5479C149.793 23.5479 150.623 23.7025 151.348 24.0117C152.072 24.321 152.678 24.7604 153.167 25.3301C153.663 25.8997 154.037 26.5833 154.29 27.3809C154.542 28.1702 154.668 29.0492 154.668 30.0176V31.4824H144.17V29.1387H151.213V28.8701C151.213 28.3818 151.124 27.9465 150.945 27.564C150.774 27.1733 150.514 26.8641 150.164 26.6362C149.814 26.4084 149.366 26.2944 148.821 26.2944C148.357 26.2944 147.958 26.3962 147.625 26.5996C147.291 26.8031 147.018 27.0879 146.807 27.4541C146.603 27.8203 146.449 28.2516 146.343 28.748C146.245 29.2363 146.196 29.7734 146.196 30.3594V30.8477C146.196 31.3766 146.27 31.8649 146.416 32.3125C146.571 32.7601 146.786 33.1466 147.063 33.4722C147.348 33.7977 147.69 34.05 148.088 34.229C148.495 34.408 148.955 34.4976 149.468 34.4976C150.103 34.4976 150.693 34.3755 151.238 34.1313C151.791 33.8791 152.267 33.5007 152.666 32.9961L154.375 34.8516C154.098 35.2503 153.72 35.6328 153.24 35.999C152.768 36.3652 152.198 36.6663 151.531 36.9023C150.863 37.1302 150.103 37.2441 149.248 37.2441ZM160.991 34.4365L163.921 23.792H167.595L163.14 37H160.918L160.991 34.4365ZM158.977 23.792L161.919 34.4487L161.98 37H159.746L155.291 23.792H158.977ZM175.078 37.2441C174.053 37.2441 173.133 37.0814 172.319 36.7559C171.506 36.4222 170.814 35.9624 170.244 35.3765C169.683 34.7905 169.251 34.111 168.95 33.3379C168.649 32.5566 168.499 31.7266 168.499 30.8477V30.3594C168.499 29.3584 168.641 28.4429 168.926 27.6128C169.211 26.7827 169.618 26.0625 170.146 25.4521C170.684 24.8418 171.335 24.3739 172.1 24.0483C172.865 23.7147 173.727 23.5479 174.688 23.5479C175.623 23.5479 176.453 23.7025 177.178 24.0117C177.902 24.321 178.508 24.7604 178.997 25.3301C179.493 25.8997 179.867 26.5833 180.12 27.3809C180.372 28.1702 180.498 29.0492 180.498 30.0176V31.4824H170V29.1387H177.043V28.8701C177.043 28.3818 176.954 27.9465 176.775 27.564C176.604 27.1733 176.344 26.8641 175.994 26.6362C175.644 26.4084 175.196 26.2944 174.651 26.2944C174.187 26.2944 173.788 26.3962 173.455 26.5996C173.121 26.8031 172.848 27.0879 172.637 27.4541C172.433 27.8203 172.279 28.2516 172.173 28.748C172.075 29.2363 172.026 29.7734 172.026 30.3594V30.8477C172.026 31.3766 172.1 31.8649 172.246 32.3125C172.401 32.7601 172.616 33.1466 172.893 33.4722C173.178 33.7977 173.52 34.05 173.918 34.229C174.325 34.408 174.785 34.4976 175.298 34.4976C175.933 34.4976 176.523 34.3755 177.068 34.1313C177.621 33.8791 178.097 33.5007 178.496 32.9961L180.205 34.8516C179.928 35.2503 179.55 35.6328 179.07 35.999C178.598 36.3652 178.028 36.6663 177.361 36.9023C176.694 37.1302 175.933 37.2441 175.078 37.2441ZM186.016 26.6729V37H182.5V23.792H185.808L186.016 26.6729ZM189.995 23.7065L189.934 26.9658C189.763 26.9414 189.556 26.9211 189.312 26.9048C189.076 26.8804 188.86 26.8682 188.665 26.8682C188.168 26.8682 187.737 26.9333 187.371 27.0635C187.013 27.1855 186.711 27.3687 186.467 27.6128C186.231 27.8569 186.052 28.154 185.93 28.5039C185.816 28.8538 185.751 29.2526 185.735 29.7002L185.027 29.4805C185.027 28.626 185.112 27.8407 185.283 27.1245C185.454 26.4002 185.702 25.7695 186.028 25.2324C186.361 24.6953 186.768 24.2803 187.249 23.9873C187.729 23.6943 188.278 23.5479 188.896 23.5479C189.092 23.5479 189.291 23.5641 189.495 23.5967C189.698 23.6211 189.865 23.6577 189.995 23.7065ZM195.793 35.5107L199.297 23.792H203.069L197.759 38.9897C197.645 39.3234 197.49 39.6815 197.295 40.064C197.108 40.4465 196.851 40.8086 196.526 41.1504C196.208 41.5003 195.806 41.7852 195.317 42.0049C194.837 42.2246 194.247 42.3345 193.547 42.3345C193.214 42.3345 192.941 42.3141 192.729 42.2734C192.518 42.2327 192.266 42.1758 191.973 42.1025V39.5269C192.062 39.5269 192.156 39.5269 192.253 39.5269C192.351 39.535 192.445 39.5391 192.534 39.5391C192.998 39.5391 193.376 39.4862 193.669 39.3804C193.962 39.2746 194.198 39.1118 194.377 38.8921C194.556 38.6805 194.699 38.4038 194.805 38.062L195.793 35.5107ZM194.329 23.792L197.197 33.3623L197.698 37.0854L195.305 37.3418L190.557 23.792H194.329ZM218.499 34.1191V18.25H222.039V37H218.853L218.499 34.1191ZM210.149 30.5547V30.2983C210.149 29.2892 210.263 28.3737 210.491 27.5518C210.719 26.7217 211.052 26.0096 211.492 25.4155C211.931 24.8215 212.472 24.3617 213.115 24.0361C213.758 23.7106 214.491 23.5479 215.312 23.5479C216.086 23.5479 216.761 23.7106 217.339 24.0361C217.925 24.3617 218.421 24.8255 218.828 25.4277C219.243 26.0218 219.577 26.7257 219.829 27.5396C220.081 28.3452 220.264 29.2282 220.378 30.1885V30.75C220.264 31.6696 220.081 32.5241 219.829 33.3135C219.577 34.1029 219.243 34.7946 218.828 35.3887C218.421 35.9746 217.925 36.4303 217.339 36.7559C216.753 37.0814 216.069 37.2441 215.288 37.2441C214.466 37.2441 213.734 37.0773 213.091 36.7437C212.456 36.41 211.919 35.9421 211.479 35.3398C211.048 34.7376 210.719 34.0296 210.491 33.2158C210.263 32.402 210.149 31.515 210.149 30.5547ZM213.665 30.2983V30.5547C213.665 31.0999 213.705 31.6086 213.787 32.0806C213.876 32.5526 214.019 32.9717 214.214 33.3379C214.417 33.696 214.678 33.9767 214.995 34.1802C215.321 34.3755 215.715 34.4731 216.179 34.4731C216.781 34.4731 217.278 34.3389 217.668 34.0703C218.059 33.7936 218.356 33.4152 218.56 32.9351C218.771 32.4549 218.893 31.9015 218.926 31.2749V29.6758C218.901 29.1631 218.828 28.7033 218.706 28.2964C218.592 27.8813 218.421 27.5273 218.193 27.2344C217.974 26.9414 217.697 26.7135 217.363 26.5508C217.038 26.388 216.651 26.3066 216.204 26.3066C215.748 26.3066 215.357 26.4124 215.032 26.624C214.706 26.8275 214.442 27.1082 214.238 27.4663C214.043 27.8244 213.896 28.2476 213.799 28.7358C213.709 29.216 213.665 29.7368 213.665 30.2983ZM231.914 34.0215V28.1377C231.914 27.7145 231.845 27.3524 231.707 27.0513C231.568 26.742 231.353 26.502 231.06 26.3311C230.775 26.1602 230.404 26.0747 229.949 26.0747C229.558 26.0747 229.22 26.1439 228.936 26.2822C228.651 26.4124 228.431 26.6037 228.276 26.856C228.122 27.1001 228.044 27.389 228.044 27.7227H224.529C224.529 27.1611 224.659 26.6281 224.919 26.1235C225.18 25.619 225.558 25.1755 226.055 24.793C226.551 24.4023 227.141 24.0972 227.825 23.8774C228.516 23.6577 229.29 23.5479 230.144 23.5479C231.169 23.5479 232.081 23.7188 232.878 24.0605C233.676 24.4023 234.303 24.915 234.758 25.5986C235.222 26.2822 235.454 27.1367 235.454 28.1621V33.814C235.454 34.5382 235.499 35.1323 235.588 35.5962C235.678 36.0519 235.808 36.4507 235.979 36.7925V37H232.427C232.256 36.6419 232.126 36.1943 232.036 35.6572C231.955 35.112 231.914 34.5667 231.914 34.0215ZM232.378 28.9556L232.402 30.9453H230.437C229.973 30.9453 229.57 30.9982 229.229 31.104C228.887 31.2098 228.606 31.3604 228.386 31.5557C228.167 31.7428 228.004 31.9626 227.898 32.2148C227.8 32.4671 227.751 32.7438 227.751 33.0449C227.751 33.346 227.821 33.6187 227.959 33.8628C228.097 34.0988 228.297 34.286 228.557 34.4243C228.818 34.5545 229.123 34.6196 229.473 34.6196C230.002 34.6196 230.461 34.5138 230.852 34.3022C231.243 34.0907 231.544 33.8302 231.755 33.521C231.975 33.2118 232.089 32.9188 232.097 32.6421L233.025 34.1313C232.895 34.465 232.716 34.8109 232.488 35.1689C232.268 35.527 231.987 35.8647 231.646 36.1821C231.304 36.4914 230.893 36.7477 230.413 36.9512C229.932 37.1465 229.363 37.2441 228.704 37.2441C227.865 37.2441 227.104 37.0773 226.421 36.7437C225.745 36.4019 225.208 35.9339 224.81 35.3398C224.419 34.7376 224.224 34.054 224.224 33.2891C224.224 32.5973 224.354 31.9829 224.614 31.4458C224.875 30.9087 225.257 30.457 225.762 30.0908C226.274 29.7165 226.913 29.4357 227.678 29.2485C228.443 29.0532 229.33 28.9556 230.339 28.9556H232.378ZM241.887 35.5107L245.391 23.792H249.163L243.853 38.9897C243.739 39.3234 243.584 39.6815 243.389 40.064C243.201 40.4465 242.945 40.8086 242.62 41.1504C242.302 41.5003 241.899 41.7852 241.411 42.0049C240.931 42.2246 240.341 42.3345 239.641 42.3345C239.307 42.3345 239.035 42.3141 238.823 42.2734C238.612 42.2327 238.359 42.1758 238.066 42.1025V39.5269C238.156 39.5269 238.25 39.5269 238.347 39.5269C238.445 39.535 238.538 39.5391 238.628 39.5391C239.092 39.5391 239.47 39.4862 239.763 39.3804C240.056 39.2746 240.292 39.1118 240.471 38.8921C240.65 38.6805 240.793 38.4038 240.898 38.062L241.887 35.5107ZM240.422 23.792L243.291 33.3623L243.792 37.0854L241.399 37.3418L236.65 23.792H240.422Z" fill="black"/>
</svg>
