<svg width="846" height="59" viewBox="0 0 846 59" fill="none" xmlns="http://www.w3.org/2000/svg">
<rect width="846" height="59" fill="white"/>
<path d="M33.4399 26.4653V29.3218H24.1626V26.4653H33.4399ZM25.249 19.2266V37H21.5869V19.2266H25.249ZM36.0522 19.2266V37H32.4023V19.2266H36.0522ZM46.1475 34.0215V28.1377C46.1475 27.7145 46.0783 27.3524 45.9399 27.0513C45.8016 26.742 45.5859 26.502 45.293 26.3311C45.0081 26.1602 44.6379 26.0747 44.1821 26.0747C43.7915 26.0747 43.4538 26.1439 43.1689 26.2822C42.8841 26.4124 42.6644 26.6037 42.5098 26.856C42.3551 27.1001 42.2778 27.389 42.2778 27.7227H38.7622C38.7622 27.1611 38.8924 26.6281 39.1528 26.1235C39.4132 25.619 39.7917 25.1755 40.2881 24.793C40.7845 24.4023 41.3745 24.0972 42.0581 23.8774C42.7498 23.6577 43.5229 23.5479 44.3774 23.5479C45.4028 23.5479 46.3143 23.7188 47.1118 24.0605C47.9093 24.4023 48.536 24.915 48.9917 25.5986C49.4556 26.2822 49.6875 27.1367 49.6875 28.1621V33.814C49.6875 34.5382 49.7323 35.1323 49.8218 35.5962C49.9113 36.0519 50.0415 36.4507 50.2124 36.7925V37H46.6602C46.4893 36.6419 46.359 36.1943 46.2695 35.6572C46.1882 35.112 46.1475 34.5667 46.1475 34.0215ZM46.6113 28.9556L46.6357 30.9453H44.6704C44.2065 30.9453 43.8037 30.9982 43.4619 31.104C43.1201 31.2098 42.8394 31.3604 42.6196 31.5557C42.3999 31.7428 42.2371 31.9626 42.1313 32.2148C42.0337 32.4671 41.9849 32.7438 41.9849 33.0449C41.9849 33.346 42.054 33.6187 42.1924 33.8628C42.3307 34.0988 42.5301 34.286 42.7905 34.4243C43.0509 34.5545 43.3561 34.6196 43.7061 34.6196C44.235 34.6196 44.6948 34.5138 45.0854 34.3022C45.4761 34.0907 45.7772 33.8302 45.9888 33.521C46.2085 33.2118 46.3224 32.9188 46.3306 32.6421L47.2583 34.1313C47.1281 34.465 46.9491 34.8109 46.7212 35.1689C46.5015 35.527 46.2207 35.8647 45.8789 36.1821C45.5371 36.4914 45.1261 36.7477 44.646 36.9512C44.1659 37.1465 43.5962 37.2441 42.937 37.2441C42.0988 37.2441 41.3379 37.0773 40.6543 36.7437C39.9788 36.4019 39.4417 35.9339 39.043 35.3398C38.6523 34.7376 38.457 34.054 38.457 33.2891C38.457 32.5973 38.5872 31.9829 38.8477 31.4458C39.1081 30.9087 39.4906 30.457 39.9951 30.0908C40.5078 29.7165 41.1466 29.4357 41.9116 29.2485C42.6766 29.0532 43.5636 28.9556 44.5728 28.9556H46.6113ZM56.6943 34.4365L59.624 23.792H63.2983L58.8428 37H56.6211L56.6943 34.4365ZM54.6802 23.792L57.6221 34.4487L57.6831 37H55.4492L50.9937 23.792H54.6802ZM70.7812 37.2441C69.7559 37.2441 68.8363 37.0814 68.0225 36.7559C67.2087 36.4222 66.5169 35.9624 65.9473 35.3765C65.3857 34.7905 64.9544 34.111 64.6533 33.3379C64.3522 32.5566 64.2017 31.7266 64.2017 30.8477V30.3594C64.2017 29.3584 64.3441 28.4429 64.6289 27.6128C64.9137 26.7827 65.3206 26.0625 65.8496 25.4521C66.3867 24.8418 67.0378 24.3739 67.8027 24.0483C68.5677 23.7147 69.4303 23.5479 70.3906 23.5479C71.3265 23.5479 72.1566 23.7025 72.8809 24.0117C73.6051 24.321 74.2114 24.7604 74.6997 25.3301C75.1961 25.8997 75.5705 26.5833 75.8228 27.3809C76.075 28.1702 76.2012 29.0492 76.2012 30.0176V31.4824H65.7031V29.1387H72.7466V28.8701C72.7466 28.3818 72.6571 27.9465 72.478 27.564C72.3071 27.1733 72.0467 26.8641 71.6968 26.6362C71.3468 26.4084 70.8993 26.2944 70.354 26.2944C69.8901 26.2944 69.4914 26.3962 69.1577 26.5996C68.8241 26.8031 68.5514 27.0879 68.3398 27.4541C68.1364 27.8203 67.9818 28.2516 67.876 28.748C67.7783 29.2363 67.7295 29.7734 67.7295 30.3594V30.8477C67.7295 31.3766 67.8027 31.8649 67.9492 32.3125C68.1038 32.7601 68.3195 33.1466 68.5962 33.4722C68.881 33.7977 69.2228 34.05 69.6216 34.229C70.0285 34.408 70.4883 34.4976 71.001 34.4976C71.6357 34.4976 72.2257 34.3755 72.771 34.1313C73.3244 33.8791 73.8005 33.5007 74.1992 32.9961L75.9082 34.8516C75.6315 35.2503 75.2531 35.6328 74.7729 35.999C74.3009 36.3652 73.7313 36.6663 73.064 36.9023C72.3966 37.1302 71.6357 37.2441 70.7812 37.2441ZM91.5576 34.0215V28.1377C91.5576 27.7145 91.4884 27.3524 91.3501 27.0513C91.2118 26.742 90.9961 26.502 90.7031 26.3311C90.4183 26.1602 90.048 26.0747 89.5923 26.0747C89.2017 26.0747 88.8639 26.1439 88.5791 26.2822C88.2943 26.4124 88.0745 26.6037 87.9199 26.856C87.7653 27.1001 87.688 27.389 87.688 27.7227H84.1724C84.1724 27.1611 84.3026 26.6281 84.563 26.1235C84.8234 25.619 85.2018 25.1755 85.6982 24.793C86.1947 24.4023 86.7847 24.0972 87.4683 23.8774C88.16 23.6577 88.9331 23.5479 89.7876 23.5479C90.813 23.5479 91.7244 23.7188 92.522 24.0605C93.3195 24.4023 93.9461 24.915 94.4019 25.5986C94.8657 26.2822 95.0977 27.1367 95.0977 28.1621V33.814C95.0977 34.5382 95.1424 35.1323 95.2319 35.5962C95.3215 36.0519 95.4517 36.4507 95.6226 36.7925V37H92.0703C91.8994 36.6419 91.7692 36.1943 91.6797 35.6572C91.5983 35.112 91.5576 34.5667 91.5576 34.0215ZM92.0215 28.9556L92.0459 30.9453H90.0806C89.6167 30.9453 89.2139 30.9982 88.8721 31.104C88.5303 31.2098 88.2495 31.3604 88.0298 31.5557C87.8101 31.7428 87.6473 31.9626 87.5415 32.2148C87.4438 32.4671 87.395 32.7438 87.395 33.0449C87.395 33.346 87.4642 33.6187 87.6025 33.8628C87.7409 34.0988 87.9403 34.286 88.2007 34.4243C88.4611 34.5545 88.7663 34.6196 89.1162 34.6196C89.6452 34.6196 90.105 34.5138 90.4956 34.3022C90.8862 34.0907 91.1873 33.8302 91.3989 33.521C91.6187 33.2118 91.7326 32.9188 91.7407 32.6421L92.6685 34.1313C92.5382 34.465 92.3592 34.8109 92.1313 35.1689C91.9116 35.527 91.6309 35.8647 91.2891 36.1821C90.9473 36.4914 90.5363 36.7477 90.0562 36.9512C89.576 37.1465 89.0063 37.2441 88.3472 37.2441C87.509 37.2441 86.748 37.0773 86.0645 36.7437C85.389 36.4019 84.8519 35.9339 84.4531 35.3398C84.0625 34.7376 83.8672 34.054 83.8672 33.2891C83.8672 32.5973 83.9974 31.9829 84.2578 31.4458C84.5182 30.9087 84.9007 30.457 85.4053 30.0908C85.918 29.7165 86.5568 29.4357 87.3218 29.2485C88.0868 29.0532 88.9738 28.9556 89.9829 28.9556H92.0215ZM112.395 23.792H115.581V36.5605C115.581 37.765 115.312 38.7863 114.775 39.6245C114.246 40.4709 113.506 41.1097 112.554 41.541C111.602 41.9805 110.495 42.2002 109.233 42.2002C108.68 42.2002 108.094 42.127 107.476 41.9805C106.865 41.834 106.279 41.6061 105.718 41.2969C105.164 40.9876 104.701 40.597 104.326 40.125L105.876 38.0498C106.283 38.5218 106.755 38.888 107.292 39.1484C107.83 39.417 108.424 39.5513 109.075 39.5513C109.709 39.5513 110.247 39.4333 110.686 39.1973C111.125 38.9694 111.463 38.6317 111.699 38.1841C111.935 37.7446 112.053 37.2116 112.053 36.585V26.8438L112.395 23.792ZM103.508 30.5547V30.2983C103.508 29.2892 103.63 28.3737 103.875 27.5518C104.127 26.7217 104.481 26.0096 104.937 25.4155C105.4 24.8215 105.962 24.3617 106.621 24.0361C107.28 23.7106 108.025 23.5479 108.855 23.5479C109.734 23.5479 110.47 23.7106 111.064 24.0361C111.659 24.3617 112.147 24.8255 112.529 25.4277C112.912 26.0218 113.209 26.7257 113.42 27.5396C113.64 28.3452 113.811 29.2282 113.933 30.1885V30.75C113.811 31.6696 113.628 32.5241 113.384 33.3135C113.14 34.1029 112.818 34.7946 112.419 35.3887C112.021 35.9746 111.524 36.4303 110.93 36.7559C110.344 37.0814 109.644 37.2441 108.831 37.2441C108.017 37.2441 107.28 37.0773 106.621 36.7437C105.97 36.41 105.413 35.9421 104.949 35.3398C104.485 34.7376 104.127 34.0296 103.875 33.2158C103.63 32.402 103.508 31.515 103.508 30.5547ZM107.024 30.2983V30.5547C107.024 31.0999 107.077 31.6086 107.183 32.0806C107.288 32.5526 107.451 32.9717 107.671 33.3379C107.899 33.696 108.18 33.9767 108.513 34.1802C108.855 34.3755 109.258 34.4731 109.722 34.4731C110.365 34.4731 110.889 34.3389 111.296 34.0703C111.703 33.7936 112.008 33.4152 112.212 32.9351C112.415 32.4549 112.533 31.9015 112.566 31.2749V29.6758C112.55 29.1631 112.48 28.7033 112.358 28.2964C112.236 27.8813 112.065 27.5273 111.846 27.2344C111.626 26.9414 111.341 26.7135 110.991 26.5508C110.641 26.388 110.226 26.3066 109.746 26.3066C109.282 26.3066 108.879 26.4124 108.538 26.624C108.204 26.8275 107.923 27.1082 107.695 27.4663C107.476 27.8244 107.309 28.2476 107.195 28.7358C107.081 29.216 107.024 29.7368 107.024 30.2983ZM117.754 30.5303V30.2739C117.754 29.3055 117.892 28.4144 118.169 27.6006C118.446 26.7786 118.848 26.0666 119.377 25.4644C119.906 24.8621 120.557 24.3942 121.331 24.0605C122.104 23.7188 122.991 23.5479 123.992 23.5479C124.993 23.5479 125.884 23.7188 126.665 24.0605C127.446 24.3942 128.101 24.8621 128.63 25.4644C129.167 26.0666 129.574 26.7786 129.851 27.6006C130.128 28.4144 130.266 29.3055 130.266 30.2739V30.5303C130.266 31.4906 130.128 32.3817 129.851 33.2036C129.574 34.0174 129.167 34.7295 128.63 35.3398C128.101 35.9421 127.45 36.41 126.677 36.7437C125.904 37.0773 125.017 37.2441 124.016 37.2441C123.015 37.2441 122.124 37.0773 121.343 36.7437C120.57 36.41 119.915 35.9421 119.377 35.3398C118.848 34.7295 118.446 34.0174 118.169 33.2036C117.892 32.3817 117.754 31.4906 117.754 30.5303ZM121.27 30.2739V30.5303C121.27 31.0837 121.318 31.6004 121.416 32.0806C121.514 32.5607 121.668 32.9839 121.88 33.3501C122.1 33.7082 122.384 33.9889 122.734 34.1924C123.084 34.3958 123.512 34.4976 124.016 34.4976C124.504 34.4976 124.924 34.3958 125.273 34.1924C125.623 33.9889 125.904 33.7082 126.116 33.3501C126.327 32.9839 126.482 32.5607 126.58 32.0806C126.685 31.6004 126.738 31.0837 126.738 30.5303V30.2739C126.738 29.7368 126.685 29.2323 126.58 28.7603C126.482 28.2801 126.323 27.8569 126.104 27.4907C125.892 27.1164 125.611 26.8234 125.261 26.6118C124.911 26.4002 124.488 26.2944 123.992 26.2944C123.495 26.2944 123.072 26.4002 122.722 26.6118C122.38 26.8234 122.1 27.1164 121.88 27.4907C121.668 27.8569 121.514 28.2801 121.416 28.7603C121.318 29.2323 121.27 29.7368 121.27 30.2739ZM131.865 30.5303V30.2739C131.865 29.3055 132.004 28.4144 132.28 27.6006C132.557 26.7786 132.96 26.0666 133.489 25.4644C134.018 24.8621 134.669 24.3942 135.442 24.0605C136.215 23.7188 137.102 23.5479 138.103 23.5479C139.104 23.5479 139.995 23.7188 140.776 24.0605C141.558 24.3942 142.213 24.8621 142.742 25.4644C143.279 26.0666 143.686 26.7786 143.962 27.6006C144.239 28.4144 144.377 29.3055 144.377 30.2739V30.5303C144.377 31.4906 144.239 32.3817 143.962 33.2036C143.686 34.0174 143.279 34.7295 142.742 35.3398C142.213 35.9421 141.562 36.41 140.789 36.7437C140.015 37.0773 139.128 37.2441 138.127 37.2441C137.126 37.2441 136.235 37.0773 135.454 36.7437C134.681 36.41 134.026 35.9421 133.489 35.3398C132.96 34.7295 132.557 34.0174 132.28 33.2036C132.004 32.3817 131.865 31.4906 131.865 30.5303ZM135.381 30.2739V30.5303C135.381 31.0837 135.43 31.6004 135.527 32.0806C135.625 32.5607 135.78 32.9839 135.991 33.3501C136.211 33.7082 136.496 33.9889 136.846 34.1924C137.196 34.3958 137.623 34.4976 138.127 34.4976C138.616 34.4976 139.035 34.3958 139.385 34.1924C139.735 33.9889 140.015 33.7082 140.227 33.3501C140.439 32.9839 140.593 32.5607 140.691 32.0806C140.797 31.6004 140.85 31.0837 140.85 30.5303V30.2739C140.85 29.7368 140.797 29.2323 140.691 28.7603C140.593 28.2801 140.435 27.8569 140.215 27.4907C140.003 27.1164 139.722 26.8234 139.373 26.6118C139.023 26.4002 138.599 26.2944 138.103 26.2944C137.607 26.2944 137.183 26.4002 136.833 26.6118C136.492 26.8234 136.211 27.1164 135.991 27.4907C135.78 27.8569 135.625 28.2801 135.527 28.7603C135.43 29.2323 135.381 29.7368 135.381 30.2739ZM154.338 34.1191V18.25H157.878V37H154.692L154.338 34.1191ZM145.989 30.5547V30.2983C145.989 29.2892 146.103 28.3737 146.331 27.5518C146.558 26.7217 146.892 26.0096 147.332 25.4155C147.771 24.8215 148.312 24.3617 148.955 24.0361C149.598 23.7106 150.33 23.5479 151.152 23.5479C151.925 23.5479 152.601 23.7106 153.179 24.0361C153.765 24.3617 154.261 24.8255 154.668 25.4277C155.083 26.0218 155.417 26.7257 155.669 27.5396C155.921 28.3452 156.104 29.2282 156.218 30.1885V30.75C156.104 31.6696 155.921 32.5241 155.669 33.3135C155.417 34.1029 155.083 34.7946 154.668 35.3887C154.261 35.9746 153.765 36.4303 153.179 36.7559C152.593 37.0814 151.909 37.2441 151.128 37.2441C150.306 37.2441 149.574 37.0773 148.931 36.7437C148.296 36.41 147.759 35.9421 147.319 35.3398C146.888 34.7376 146.558 34.0296 146.331 33.2158C146.103 32.402 145.989 31.515 145.989 30.5547ZM149.504 30.2983V30.5547C149.504 31.0999 149.545 31.6086 149.626 32.0806C149.716 32.5526 149.858 32.9717 150.054 33.3379C150.257 33.696 150.518 33.9767 150.835 34.1802C151.16 34.3755 151.555 34.4731 152.019 34.4731C152.621 34.4731 153.118 34.3389 153.508 34.0703C153.899 33.7936 154.196 33.4152 154.399 32.9351C154.611 32.4549 154.733 31.9015 154.766 31.2749V29.6758C154.741 29.1631 154.668 28.7033 154.546 28.2964C154.432 27.8813 154.261 27.5273 154.033 27.2344C153.813 26.9414 153.537 26.7135 153.203 26.5508C152.878 26.388 152.491 26.3066 152.043 26.3066C151.588 26.3066 151.197 26.4124 150.872 26.624C150.546 26.8275 150.282 27.1082 150.078 27.4663C149.883 27.8244 149.736 28.2476 149.639 28.7358C149.549 29.216 149.504 29.7368 149.504 30.2983ZM173.32 23.792V26.2822H165.63V23.792H173.32ZM167.534 20.5327H171.05V33.0205C171.05 33.403 171.099 33.696 171.196 33.8994C171.302 34.1029 171.457 34.2453 171.66 34.3267C171.864 34.3999 172.12 34.4365 172.429 34.4365C172.649 34.4365 172.844 34.4284 173.015 34.4121C173.194 34.3877 173.345 34.3633 173.467 34.3389L173.479 36.9268C173.178 37.0244 172.852 37.1017 172.502 37.1587C172.153 37.2157 171.766 37.2441 171.343 37.2441C170.57 37.2441 169.894 37.118 169.316 36.8657C168.747 36.6053 168.307 36.1903 167.998 35.6206C167.689 35.0509 167.534 34.3022 167.534 33.3745V20.5327ZM179.033 23.792V37H175.505V23.792H179.033ZM175.286 20.3496C175.286 19.8369 175.465 19.4137 175.823 19.0801C176.181 18.7464 176.661 18.5796 177.263 18.5796C177.857 18.5796 178.333 18.7464 178.691 19.0801C179.058 19.4137 179.241 19.8369 179.241 20.3496C179.241 20.8623 179.058 21.2855 178.691 21.6191C178.333 21.9528 177.857 22.1196 177.263 22.1196C176.661 22.1196 176.181 21.9528 175.823 21.6191C175.465 21.2855 175.286 20.8623 175.286 20.3496ZM185.454 26.5264V37H181.926V23.792H185.234L185.454 26.5264ZM184.966 29.9321H183.989C183.989 29.0125 184.099 28.1662 184.319 27.3931C184.547 26.6118 184.876 25.9364 185.308 25.3667C185.747 24.7889 186.288 24.3413 186.931 24.0239C187.574 23.7065 188.319 23.5479 189.165 23.5479C189.751 23.5479 190.288 23.6374 190.776 23.8164C191.265 23.9873 191.684 24.2599 192.034 24.6343C192.392 25.0005 192.668 25.4806 192.864 26.0747C193.059 26.6606 193.157 27.3646 193.157 28.1865V37H189.641V28.5771C189.641 27.9749 189.56 27.5111 189.397 27.1855C189.234 26.86 189.002 26.6322 188.701 26.502C188.408 26.3717 188.054 26.3066 187.639 26.3066C187.183 26.3066 186.785 26.4002 186.443 26.5874C186.109 26.7746 185.833 27.035 185.613 27.3687C185.393 27.6942 185.23 28.0767 185.125 28.5161C185.019 28.9556 184.966 29.4276 184.966 29.9321ZM192.827 29.5293L191.57 29.688C191.57 28.8254 191.676 28.0238 191.887 27.2832C192.107 26.5426 192.428 25.8916 192.852 25.3301C193.283 24.7686 193.816 24.3332 194.451 24.0239C195.085 23.7065 195.818 23.5479 196.648 23.5479C197.283 23.5479 197.861 23.6414 198.381 23.8286C198.902 24.0076 199.346 24.2965 199.712 24.6953C200.086 25.0859 200.371 25.5986 200.566 26.2334C200.77 26.8682 200.872 27.6453 200.872 28.5649V37H197.344V28.5649C197.344 27.9546 197.262 27.4907 197.1 27.1733C196.945 26.8478 196.717 26.624 196.416 26.502C196.123 26.3717 195.773 26.3066 195.366 26.3066C194.943 26.3066 194.573 26.3921 194.255 26.563C193.938 26.7257 193.674 26.9536 193.462 27.2466C193.25 27.5396 193.092 27.8813 192.986 28.272C192.88 28.6545 192.827 29.0736 192.827 29.5293ZM209.673 37.2441C208.647 37.2441 207.728 37.0814 206.914 36.7559C206.1 36.4222 205.409 35.9624 204.839 35.3765C204.277 34.7905 203.846 34.111 203.545 33.3379C203.244 32.5566 203.093 31.7266 203.093 30.8477V30.3594C203.093 29.3584 203.236 28.4429 203.521 27.6128C203.805 26.7827 204.212 26.0625 204.741 25.4521C205.278 24.8418 205.929 24.3739 206.694 24.0483C207.459 23.7147 208.322 23.5479 209.282 23.5479C210.218 23.5479 211.048 23.7025 211.772 24.0117C212.497 24.321 213.103 24.7604 213.591 25.3301C214.088 25.8997 214.462 26.5833 214.714 27.3809C214.967 28.1702 215.093 29.0492 215.093 30.0176V31.4824H204.595V29.1387H211.638V28.8701C211.638 28.3818 211.549 27.9465 211.37 27.564C211.199 27.1733 210.938 26.8641 210.588 26.6362C210.238 26.4084 209.791 26.2944 209.246 26.2944C208.782 26.2944 208.383 26.3962 208.049 26.5996C207.716 26.8031 207.443 27.0879 207.231 27.4541C207.028 27.8203 206.873 28.2516 206.768 28.748C206.67 29.2363 206.621 29.7734 206.621 30.3594V30.8477C206.621 31.3766 206.694 31.8649 206.841 32.3125C206.995 32.7601 207.211 33.1466 207.488 33.4722C207.773 33.7977 208.114 34.05 208.513 34.229C208.92 34.408 209.38 34.4976 209.893 34.4976C210.527 34.4976 211.117 34.3755 211.663 34.1313C212.216 33.8791 212.692 33.5007 213.091 32.9961L214.8 34.8516C214.523 35.2503 214.145 35.6328 213.665 35.999C213.193 36.3652 212.623 36.6663 211.956 36.9023C211.288 37.1302 210.527 37.2441 209.673 37.2441ZM228.02 27.3198L230.608 27.332C230.608 28.0889 230.51 28.7765 230.315 29.395C230.12 30.0135 229.839 30.5465 229.473 30.9941C229.115 31.4336 228.687 31.7754 228.191 32.0195C227.703 32.2555 227.161 32.3735 226.567 32.3735C225.908 32.3735 225.322 32.2433 224.81 31.9829C224.297 31.7225 223.748 31.3156 223.162 30.7622C222.82 30.4204 222.494 30.16 222.185 29.981C221.884 29.8019 221.567 29.7124 221.233 29.7124C220.907 29.7124 220.627 29.8101 220.391 30.0054C220.155 30.1925 219.967 30.453 219.829 30.7866C219.699 31.1203 219.634 31.4987 219.634 31.9219L217.021 31.8975C217.021 31.1325 217.119 30.4448 217.314 29.8345C217.51 29.216 217.786 28.6911 218.145 28.2598C218.503 27.8285 218.926 27.4989 219.414 27.271C219.91 27.0431 220.456 26.9292 221.05 26.9292C221.701 26.9292 222.295 27.0675 222.832 27.3442C223.377 27.6128 223.923 28.0116 224.468 28.5405C224.826 28.8823 225.151 29.1427 225.444 29.3218C225.737 29.4927 226.051 29.5781 226.384 29.5781C226.702 29.5781 226.982 29.4805 227.227 29.2852C227.471 29.0898 227.662 28.8213 227.8 28.4795C227.947 28.1377 228.02 27.7511 228.02 27.3198Z" fill="black"/>
</svg>
