<svg width="846" height="59" viewBox="0 0 846 59" fill="none" xmlns="http://www.w3.org/2000/svg">
<rect width="846" height="59" fill="white"/>
<path d="M33.4399 26.4653V29.3218H24.1626V26.4653H33.4399ZM25.249 19.2266V37H21.5869V19.2266H25.249ZM36.0522 19.2266V37H32.4023V19.2266H36.0522ZM42.7295 23.792V37H39.2017V23.792H42.7295ZM38.9819 20.3496C38.9819 19.8369 39.161 19.4137 39.519 19.0801C39.8771 18.7464 40.3573 18.5796 40.9595 18.5796C41.5535 18.5796 42.0296 18.7464 42.3877 19.0801C42.7539 19.4137 42.937 19.8369 42.937 20.3496C42.937 20.8623 42.7539 21.2855 42.3877 21.6191C42.0296 21.9528 41.5535 22.1196 40.9595 22.1196C40.3573 22.1196 39.8771 21.9528 39.519 21.6191C39.161 21.2855 38.9819 20.8623 38.9819 20.3496ZM48.9673 34.0337L48.9551 36.3896C48.9551 37.293 48.7272 38.2044 48.2715 39.124C47.8239 40.0436 47.2542 40.7964 46.5625 41.3823L44.7314 40.4424C44.9349 40.068 45.1343 39.6937 45.3296 39.3193C45.5249 38.945 45.6877 38.534 45.8179 38.0864C45.9481 37.6388 46.0132 37.1302 46.0132 36.5605V34.0337H48.9673ZM64.4824 23.792V26.2822H56.792V23.792H64.4824ZM58.6963 20.5327H62.2119V33.0205C62.2119 33.403 62.2607 33.696 62.3584 33.8994C62.4642 34.1029 62.6188 34.2453 62.8223 34.3267C63.0257 34.3999 63.2821 34.4365 63.5913 34.4365C63.811 34.4365 64.0063 34.4284 64.1772 34.4121C64.3563 34.3877 64.5068 34.3633 64.6289 34.3389L64.6411 36.9268C64.34 37.0244 64.0145 37.1017 63.6646 37.1587C63.3146 37.2157 62.9281 37.2441 62.5049 37.2441C61.7318 37.2441 61.0563 37.118 60.4785 36.8657C59.9089 36.6053 59.4694 36.1903 59.1602 35.6206C58.8509 35.0509 58.6963 34.3022 58.6963 33.3745V20.5327ZM69.9146 18.25V37H66.3989V18.25H69.9146ZM69.4141 29.9321H68.4497C68.4578 29.0125 68.5799 28.1662 68.8159 27.3931C69.0519 26.6118 69.3896 25.9364 69.8291 25.3667C70.2686 24.7889 70.7935 24.3413 71.4038 24.0239C72.0223 23.7065 72.7059 23.5479 73.4546 23.5479C74.1056 23.5479 74.6956 23.6414 75.2246 23.8286C75.7617 24.0076 76.2215 24.3006 76.604 24.7075C76.9946 25.1063 77.2957 25.6312 77.5073 26.2822C77.7189 26.9333 77.8247 27.7227 77.8247 28.6504V37H74.2847V28.626C74.2847 28.04 74.1992 27.5802 74.0283 27.2466C73.8656 26.9048 73.6255 26.6647 73.3081 26.5264C72.9989 26.3799 72.6164 26.3066 72.1606 26.3066C71.6561 26.3066 71.2248 26.4002 70.8667 26.5874C70.5168 26.7746 70.236 27.035 70.0244 27.3687C69.8128 27.6942 69.6582 28.0767 69.5605 28.5161C69.4629 28.9556 69.4141 29.4276 69.4141 29.9321ZM86.5771 37.2441C85.5518 37.2441 84.6322 37.0814 83.8184 36.7559C83.0046 36.4222 82.3128 35.9624 81.7432 35.3765C81.1816 34.7905 80.7503 34.111 80.4492 33.3379C80.1481 32.5566 79.9976 31.7266 79.9976 30.8477V30.3594C79.9976 29.3584 80.14 28.4429 80.4248 27.6128C80.7096 26.7827 81.1165 26.0625 81.6455 25.4521C82.1826 24.8418 82.8337 24.3739 83.5986 24.0483C84.3636 23.7147 85.2262 23.5479 86.1865 23.5479C87.1224 23.5479 87.9525 23.7025 88.6768 24.0117C89.401 24.321 90.0073 24.7604 90.4956 25.3301C90.992 25.8997 91.3664 26.5833 91.6187 27.3809C91.8709 28.1702 91.9971 29.0492 91.9971 30.0176V31.4824H81.499V29.1387H88.5425V28.8701C88.5425 28.3818 88.453 27.9465 88.2739 27.564C88.103 27.1733 87.8426 26.8641 87.4927 26.6362C87.1427 26.4084 86.6951 26.2944 86.1499 26.2944C85.686 26.2944 85.2873 26.3962 84.9536 26.5996C84.62 26.8031 84.3473 27.0879 84.1357 27.4541C83.9323 27.8203 83.7777 28.2516 83.6719 28.748C83.5742 29.2363 83.5254 29.7734 83.5254 30.3594V30.8477C83.5254 31.3766 83.5986 31.8649 83.7451 32.3125C83.8997 32.7601 84.1154 33.1466 84.3921 33.4722C84.6769 33.7977 85.0187 34.05 85.4175 34.229C85.8244 34.408 86.2842 34.4976 86.7969 34.4976C87.4316 34.4976 88.0216 34.3755 88.5669 34.1313C89.1203 33.8791 89.5964 33.5007 89.9951 32.9961L91.7041 34.8516C91.4274 35.2503 91.049 35.6328 90.5688 35.999C90.0968 36.3652 89.5272 36.6663 88.8599 36.9023C88.1925 37.1302 87.4316 37.2441 86.5771 37.2441ZM97.5146 26.6729V37H93.999V23.792H97.3071L97.5146 26.6729ZM101.494 23.7065L101.433 26.9658C101.262 26.9414 101.055 26.9211 100.811 26.9048C100.575 26.8804 100.359 26.8682 100.164 26.8682C99.6672 26.8682 99.2358 26.9333 98.8696 27.0635C98.5116 27.1855 98.2104 27.3687 97.9663 27.6128C97.7303 27.8569 97.5513 28.154 97.4292 28.5039C97.3153 28.8538 97.2502 29.2526 97.2339 29.7002L96.5259 29.4805C96.5259 28.626 96.6113 27.8407 96.7822 27.1245C96.9531 26.4002 97.2013 25.7695 97.5269 25.2324C97.8605 24.6953 98.2674 24.2803 98.7476 23.9873C99.2277 23.6943 99.777 23.5479 100.396 23.5479C100.591 23.5479 100.79 23.5641 100.994 23.5967C101.197 23.6211 101.364 23.6577 101.494 23.7065ZM108.989 37.2441C107.964 37.2441 107.044 37.0814 106.23 36.7559C105.417 36.4222 104.725 35.9624 104.155 35.3765C103.594 34.7905 103.162 34.111 102.861 33.3379C102.56 32.5566 102.41 31.7266 102.41 30.8477V30.3594C102.41 29.3584 102.552 28.4429 102.837 27.6128C103.122 26.7827 103.529 26.0625 104.058 25.4521C104.595 24.8418 105.246 24.3739 106.011 24.0483C106.776 23.7147 107.638 23.5479 108.599 23.5479C109.535 23.5479 110.365 23.7025 111.089 24.0117C111.813 24.321 112.419 24.7604 112.908 25.3301C113.404 25.8997 113.778 26.5833 114.031 27.3809C114.283 28.1702 114.409 29.0492 114.409 30.0176V31.4824H103.911V29.1387H110.955V28.8701C110.955 28.3818 110.865 27.9465 110.686 27.564C110.515 27.1733 110.255 26.8641 109.905 26.6362C109.555 26.4084 109.107 26.2944 108.562 26.2944C108.098 26.2944 107.699 26.3962 107.366 26.5996C107.032 26.8031 106.759 27.0879 106.548 27.4541C106.344 27.8203 106.19 28.2516 106.084 28.748C105.986 29.2363 105.938 29.7734 105.938 30.3594V30.8477C105.938 31.3766 106.011 31.8649 106.157 32.3125C106.312 32.7601 106.528 33.1466 106.804 33.4722C107.089 33.7977 107.431 34.05 107.83 34.229C108.236 34.408 108.696 34.4976 109.209 34.4976C109.844 34.4976 110.434 34.3755 110.979 34.1313C111.532 33.8791 112.008 33.5007 112.407 32.9961L114.116 34.8516C113.84 35.2503 113.461 35.6328 112.981 35.999C112.509 36.3652 111.939 36.6663 111.272 36.9023C110.605 37.1302 109.844 37.2441 108.989 37.2441ZM120.378 19.2266L119.976 31.5679H117.046L116.631 19.2266H120.378ZM116.533 35.3887C116.533 34.8678 116.712 34.4365 117.07 34.0947C117.437 33.7448 117.917 33.5698 118.511 33.5698C119.113 33.5698 119.593 33.7448 119.951 34.0947C120.309 34.4365 120.488 34.8678 120.488 35.3887C120.488 35.8932 120.309 36.3205 119.951 36.6704C119.593 37.0203 119.113 37.1953 118.511 37.1953C117.917 37.1953 117.437 37.0203 117.07 36.6704C116.712 36.3205 116.533 35.8932 116.533 35.3887Z" fill="black"/>
</svg>
