<svg width="846" height="59" viewBox="0 0 846 59" fill="none" xmlns="http://www.w3.org/2000/svg">
<rect width="846" height="59" fill="white"/>
<path d="M33.4399 26.4653V29.3218H24.1626V26.4653H33.4399ZM25.249 19.2266V37H21.5869V19.2266H25.249ZM36.0522 19.2266V37H32.4023V19.2266H36.0522ZM38.457 30.5303V30.2739C38.457 29.3055 38.5954 28.4144 38.8721 27.6006C39.1488 26.7786 39.5516 26.0666 40.0806 25.4644C40.6095 24.8621 41.2606 24.3942 42.0337 24.0605C42.8068 23.7188 43.6938 23.5479 44.6948 23.5479C45.6958 23.5479 46.5869 23.7188 47.3682 24.0605C48.1494 24.3942 48.8045 24.8621 49.3335 25.4644C49.8706 26.0666 50.2775 26.7786 50.5542 27.6006C50.8309 28.4144 50.9692 29.3055 50.9692 30.2739V30.5303C50.9692 31.4906 50.8309 32.3817 50.5542 33.2036C50.2775 34.0174 49.8706 34.7295 49.3335 35.3398C48.8045 35.9421 48.1535 36.41 47.3804 36.7437C46.6073 37.0773 45.7202 37.2441 44.7192 37.2441C43.7183 37.2441 42.8271 37.0773 42.0459 36.7437C41.2728 36.41 40.6177 35.9421 40.0806 35.3398C39.5516 34.7295 39.1488 34.0174 38.8721 33.2036C38.5954 32.3817 38.457 31.4906 38.457 30.5303ZM41.9727 30.2739V30.5303C41.9727 31.0837 42.0215 31.6004 42.1191 32.0806C42.2168 32.5607 42.3714 32.9839 42.583 33.3501C42.8027 33.7082 43.0876 33.9889 43.4375 34.1924C43.7874 34.3958 44.2147 34.4976 44.7192 34.4976C45.2075 34.4976 45.6266 34.3958 45.9766 34.1924C46.3265 33.9889 46.6073 33.7082 46.8188 33.3501C47.0304 32.9839 47.1851 32.5607 47.2827 32.0806C47.3885 31.6004 47.4414 31.0837 47.4414 30.5303V30.2739C47.4414 29.7368 47.3885 29.2323 47.2827 28.7603C47.1851 28.2801 47.0264 27.8569 46.8066 27.4907C46.5951 27.1164 46.3143 26.8234 45.9644 26.6118C45.6144 26.4002 45.1912 26.2944 44.6948 26.2944C44.1984 26.2944 43.7752 26.4002 43.4253 26.6118C43.0835 26.8234 42.8027 27.1164 42.583 27.4907C42.3714 27.8569 42.2168 28.2801 42.1191 28.7603C42.0215 29.2323 41.9727 29.7368 41.9727 30.2739ZM56.6455 26.3311V42.0781H53.1299V23.792H56.3892L56.6455 26.3311ZM65.0073 30.2495V30.5059C65.0073 31.4661 64.8934 32.3573 64.6655 33.1792C64.4458 34.0011 64.1203 34.7173 63.689 35.3276C63.2576 35.9299 62.7205 36.4019 62.0776 36.7437C61.4429 37.0773 60.7104 37.2441 59.8804 37.2441C59.0747 37.2441 58.3748 37.0814 57.7808 36.7559C57.1867 36.4303 56.6862 35.9746 56.2793 35.3887C55.8805 34.7946 55.5591 34.1069 55.3149 33.3257C55.0708 32.5444 54.8836 31.7062 54.7534 30.811V30.1396C54.8836 29.1794 55.0708 28.3005 55.3149 27.5029C55.5591 26.6973 55.8805 26.0015 56.2793 25.4155C56.6862 24.8215 57.1826 24.3617 57.7686 24.0361C58.3626 23.7106 59.0584 23.5479 59.856 23.5479C60.6942 23.5479 61.4307 23.7065 62.0654 24.0239C62.7083 24.3413 63.2454 24.797 63.6768 25.3911C64.1162 25.9852 64.4458 26.6932 64.6655 27.5151C64.8934 28.3371 65.0073 29.2485 65.0073 30.2495ZM61.4795 30.5059V30.2495C61.4795 29.688 61.4307 29.1712 61.333 28.6992C61.2435 28.2191 61.097 27.8 60.8936 27.4419C60.6982 27.0838 60.4378 26.8071 60.1123 26.6118C59.7949 26.4084 59.4084 26.3066 58.9526 26.3066C58.4725 26.3066 58.0615 26.384 57.7197 26.5386C57.3861 26.6932 57.1134 26.917 56.9019 27.21C56.6903 27.5029 56.5316 27.8529 56.4258 28.2598C56.32 28.6667 56.2549 29.1265 56.2305 29.6392V31.3359C56.2712 31.9382 56.3851 32.4793 56.5723 32.9595C56.7594 33.4315 57.0483 33.8058 57.439 34.0825C57.8296 34.3592 58.3423 34.4976 58.9771 34.4976C59.4409 34.4976 59.8315 34.3958 60.1489 34.1924C60.4663 33.9808 60.7227 33.6919 60.918 33.3257C61.1214 32.9595 61.2638 32.5363 61.3452 32.0562C61.4347 31.576 61.4795 31.0592 61.4795 30.5059ZM73.2715 37.2441C72.2461 37.2441 71.3265 37.0814 70.5127 36.7559C69.6989 36.4222 69.0072 35.9624 68.4375 35.3765C67.876 34.7905 67.4447 34.111 67.1436 33.3379C66.8424 32.5566 66.6919 31.7266 66.6919 30.8477V30.3594C66.6919 29.3584 66.8343 28.4429 67.1191 27.6128C67.404 26.7827 67.8109 26.0625 68.3398 25.4521C68.877 24.8418 69.528 24.3739 70.293 24.0483C71.0579 23.7147 71.9206 23.5479 72.8809 23.5479C73.8167 23.5479 74.6468 23.7025 75.3711 24.0117C76.0954 24.321 76.7017 24.7604 77.1899 25.3301C77.6864 25.8997 78.0607 26.5833 78.313 27.3809C78.5653 28.1702 78.6914 29.0492 78.6914 30.0176V31.4824H68.1934V29.1387H75.2368V28.8701C75.2368 28.3818 75.1473 27.9465 74.9683 27.564C74.7974 27.1733 74.5369 26.8641 74.187 26.6362C73.8371 26.4084 73.3895 26.2944 72.8442 26.2944C72.3804 26.2944 71.9816 26.3962 71.6479 26.5996C71.3143 26.8031 71.0417 27.0879 70.8301 27.4541C70.6266 27.8203 70.472 28.2516 70.3662 28.748C70.2686 29.2363 70.2197 29.7734 70.2197 30.3594V30.8477C70.2197 31.3766 70.293 31.8649 70.4395 32.3125C70.5941 32.7601 70.8097 33.1466 71.0864 33.4722C71.3713 33.7977 71.7131 34.05 72.1118 34.229C72.5187 34.408 72.9785 34.4976 73.4912 34.4976C74.126 34.4976 74.716 34.3755 75.2612 34.1313C75.8146 33.8791 76.2907 33.5007 76.6895 32.9961L78.3984 34.8516C78.1217 35.2503 77.7433 35.6328 77.2632 35.999C76.7912 36.3652 76.2215 36.6663 75.5542 36.9023C74.8869 37.1302 74.126 37.2441 73.2715 37.2441ZM97.4414 31.104H101.091C101.018 32.3003 100.688 33.3623 100.103 34.29C99.5247 35.2178 98.715 35.9421 97.6733 36.4629C96.6398 36.9837 95.3947 37.2441 93.938 37.2441C92.7987 37.2441 91.7773 37.0488 90.874 36.6582C89.9707 36.2594 89.1976 35.6898 88.5547 34.9492C87.9199 34.2087 87.4357 33.3135 87.1021 32.2637C86.7684 31.2139 86.6016 30.0379 86.6016 28.7358V27.5029C86.6016 26.2008 86.7725 25.0249 87.1143 23.9751C87.4642 22.9172 87.9606 22.0179 88.6035 21.2773C89.2546 20.5368 90.0317 19.9671 90.9351 19.5684C91.8384 19.1696 92.8475 18.9702 93.9624 18.9702C95.4435 18.9702 96.6927 19.2388 97.71 19.7759C98.7354 20.313 99.5288 21.0535 100.09 21.9976C100.66 22.9416 101.002 24.0158 101.116 25.2202H97.4536C97.4129 24.5041 97.2705 23.8978 97.0264 23.4014C96.7822 22.8968 96.4119 22.5184 95.9155 22.2661C95.4272 22.0057 94.7762 21.8755 93.9624 21.8755C93.3521 21.8755 92.819 21.9894 92.3633 22.2173C91.9076 22.4451 91.5251 22.791 91.2158 23.2549C90.9066 23.7188 90.6746 24.3047 90.52 25.0127C90.3735 25.7126 90.3003 26.5345 90.3003 27.4785V28.7358C90.3003 29.6554 90.3695 30.4652 90.5078 31.165C90.6462 31.8568 90.8577 32.4427 91.1426 32.9229C91.4355 33.3949 91.8099 33.7529 92.2656 33.9971C92.7295 34.2331 93.2869 34.3511 93.938 34.3511C94.703 34.3511 95.3337 34.229 95.8301 33.9849C96.3265 33.7407 96.7049 33.3786 96.9653 32.8984C97.2339 32.4183 97.3926 31.8201 97.4414 31.104ZM118.096 27.6982V28.5405C118.096 29.8914 117.913 31.104 117.546 32.1782C117.18 33.2524 116.663 34.168 115.996 34.9248C115.329 35.6735 114.531 36.2472 113.604 36.646C112.684 37.0448 111.663 37.2441 110.54 37.2441C109.425 37.2441 108.403 37.0448 107.476 36.646C106.556 36.2472 105.758 35.6735 105.083 34.9248C104.408 34.168 103.883 33.2524 103.508 32.1782C103.142 31.104 102.959 29.8914 102.959 28.5405V27.6982C102.959 26.3392 103.142 25.1266 103.508 24.0605C103.875 22.9863 104.391 22.0708 105.059 21.314C105.734 20.5571 106.532 19.9793 107.451 19.5806C108.379 19.1818 109.4 18.9824 110.515 18.9824C111.638 18.9824 112.66 19.1818 113.579 19.5806C114.507 19.9793 115.304 20.5571 115.972 21.314C116.647 22.0708 117.168 22.9863 117.534 24.0605C117.909 25.1266 118.096 26.3392 118.096 27.6982ZM114.397 28.5405V27.6738C114.397 26.7298 114.312 25.8997 114.141 25.1836C113.97 24.4674 113.717 23.8652 113.384 23.377C113.05 22.8887 112.643 22.5225 112.163 22.2783C111.683 22.026 111.134 21.8999 110.515 21.8999C109.897 21.8999 109.347 22.026 108.867 22.2783C108.395 22.5225 107.992 22.8887 107.659 23.377C107.333 23.8652 107.085 24.4674 106.914 25.1836C106.743 25.8997 106.658 26.7298 106.658 27.6738V28.5405C106.658 29.4764 106.743 30.3065 106.914 31.0308C107.085 31.7469 107.337 32.3532 107.671 32.8496C108.005 33.3379 108.411 33.7082 108.892 33.9604C109.372 34.2127 109.921 34.3389 110.54 34.3389C111.158 34.3389 111.707 34.2127 112.188 33.9604C112.668 33.7082 113.07 33.3379 113.396 32.8496C113.722 32.3532 113.97 31.7469 114.141 31.0308C114.312 30.3065 114.397 29.4764 114.397 28.5405ZM126.873 33.2891L131.06 19.2266H135.137L128.948 37H126.262L126.873 33.2891ZM123.015 19.2266L127.19 33.2891L127.825 37H125.115L118.962 19.2266H123.015ZM140.691 19.2266V37H137.041V19.2266H140.691ZM149.578 37H145.708L145.732 34.1436H149.578C150.538 34.1436 151.348 33.9279 152.007 33.4966C152.666 33.0571 153.162 32.4183 153.496 31.5801C153.838 30.7419 154.009 29.7287 154.009 28.5405V27.6738C154.009 26.7624 153.911 25.9608 153.716 25.269C153.529 24.5773 153.248 23.9954 152.874 23.5234C152.499 23.0514 152.039 22.6974 151.494 22.4614C150.949 22.2173 150.322 22.0952 149.614 22.0952H145.635V19.2266H149.614C150.802 19.2266 151.889 19.43 152.874 19.8369C153.866 20.2357 154.725 20.8094 155.449 21.5581C156.174 22.3068 156.731 23.202 157.122 24.2437C157.52 25.2772 157.72 26.4287 157.72 27.6982V28.5405C157.72 29.8019 157.52 30.9535 157.122 31.9951C156.731 33.0368 156.174 33.932 155.449 34.6807C154.733 35.4212 153.875 35.995 152.874 36.4019C151.881 36.8006 150.782 37 149.578 37ZM147.783 19.2266V37H144.121V19.2266H147.783ZM167.095 27.9912V30.75H160.198V27.9912H167.095ZM178.447 19.1899V37H174.932V23.2427L170.708 24.5854V21.8145L178.069 19.1899H178.447ZM186.724 34.3267H186.956C187.932 34.3267 188.77 34.2087 189.47 33.9727C190.178 33.7285 190.76 33.3786 191.216 32.9229C191.672 32.4671 192.009 31.9097 192.229 31.2505C192.449 30.5832 192.559 29.8263 192.559 28.98V25.6108C192.559 24.9679 192.493 24.4023 192.363 23.9141C192.241 23.4258 192.062 23.0229 191.826 22.7056C191.598 22.38 191.33 22.1359 191.021 21.9731C190.719 21.8104 190.386 21.729 190.02 21.729C189.629 21.729 189.283 21.8267 188.982 22.022C188.681 22.2091 188.424 22.4655 188.213 22.791C188.009 23.1165 187.851 23.4909 187.737 23.9141C187.631 24.3291 187.578 24.7645 187.578 25.2202C187.578 25.6759 187.631 26.1113 187.737 26.5264C187.843 26.9333 188.001 27.2954 188.213 27.6128C188.424 27.922 188.689 28.1702 189.006 28.3574C189.324 28.5365 189.698 28.626 190.129 28.626C190.544 28.626 190.915 28.5487 191.24 28.394C191.574 28.2313 191.855 28.0197 192.083 27.7593C192.319 27.4989 192.498 27.21 192.62 26.8926C192.75 26.5752 192.815 26.2537 192.815 25.9282L193.975 26.563C193.975 27.1326 193.853 27.6942 193.608 28.2476C193.364 28.8009 193.022 29.3055 192.583 29.7612C192.152 30.2088 191.651 30.5669 191.082 30.8354C190.512 31.104 189.902 31.2383 189.25 31.2383C188.42 31.2383 187.684 31.0877 187.041 30.7866C186.398 30.4774 185.853 30.0542 185.405 29.5171C184.966 28.9718 184.632 28.3371 184.404 27.6128C184.176 26.8885 184.062 26.1032 184.062 25.2568C184.062 24.3942 184.201 23.5845 184.478 22.8276C184.762 22.0708 185.165 21.4035 185.686 20.8257C186.215 20.2479 186.846 19.7962 187.578 19.4707C188.319 19.137 189.141 18.9702 190.044 18.9702C190.947 18.9702 191.769 19.1452 192.51 19.4951C193.25 19.8451 193.885 20.3415 194.414 20.9844C194.943 21.6191 195.35 22.38 195.635 23.2671C195.928 24.1541 196.074 25.1388 196.074 26.2212V27.4419C196.074 28.5975 195.948 29.6717 195.696 30.6646C195.452 31.6574 195.081 32.5566 194.585 33.3623C194.097 34.1598 193.486 34.8434 192.754 35.4131C192.03 35.9827 191.187 36.4181 190.227 36.7192C189.267 37.0203 188.193 37.1709 187.004 37.1709H186.724V34.3267ZM213.323 23.792H216.509V36.5605C216.509 37.765 216.24 38.7863 215.703 39.6245C215.174 40.4709 214.434 41.1097 213.481 41.541C212.529 41.9805 211.423 42.2002 210.161 42.2002C209.608 42.2002 209.022 42.127 208.403 41.9805C207.793 41.834 207.207 41.6061 206.646 41.2969C206.092 40.9876 205.628 40.597 205.254 40.125L206.804 38.0498C207.211 38.5218 207.683 38.888 208.22 39.1484C208.757 39.417 209.351 39.5513 210.002 39.5513C210.637 39.5513 211.174 39.4333 211.614 39.1973C212.053 38.9694 212.391 38.6317 212.627 38.1841C212.863 37.7446 212.981 37.2116 212.981 36.585V26.8438L213.323 23.792ZM204.436 30.5547V30.2983C204.436 29.2892 204.558 28.3737 204.802 27.5518C205.055 26.7217 205.409 26.0096 205.864 25.4155C206.328 24.8215 206.89 24.3617 207.549 24.0361C208.208 23.7106 208.953 23.5479 209.783 23.5479C210.662 23.5479 211.398 23.7106 211.992 24.0361C212.586 24.3617 213.075 24.8255 213.457 25.4277C213.84 26.0218 214.137 26.7257 214.348 27.5396C214.568 28.3452 214.739 29.2282 214.861 30.1885V30.75C214.739 31.6696 214.556 32.5241 214.312 33.3135C214.067 34.1029 213.746 34.7946 213.347 35.3887C212.948 35.9746 212.452 36.4303 211.858 36.7559C211.272 37.0814 210.572 37.2441 209.758 37.2441C208.944 37.2441 208.208 37.0773 207.549 36.7437C206.898 36.41 206.34 35.9421 205.876 35.3398C205.413 34.7376 205.055 34.0296 204.802 33.2158C204.558 32.402 204.436 31.515 204.436 30.5547ZM207.952 30.2983V30.5547C207.952 31.0999 208.005 31.6086 208.11 32.0806C208.216 32.5526 208.379 32.9717 208.599 33.3379C208.826 33.696 209.107 33.9767 209.441 34.1802C209.783 34.3755 210.186 34.4731 210.649 34.4731C211.292 34.4731 211.817 34.3389 212.224 34.0703C212.631 33.7936 212.936 33.4152 213.14 32.9351C213.343 32.4549 213.461 31.9015 213.494 31.2749V29.6758C213.477 29.1631 213.408 28.7033 213.286 28.2964C213.164 27.8813 212.993 27.5273 212.773 27.2344C212.554 26.9414 212.269 26.7135 211.919 26.5508C211.569 26.388 211.154 26.3066 210.674 26.3066C210.21 26.3066 209.807 26.4124 209.465 26.624C209.132 26.8275 208.851 27.1082 208.623 27.4663C208.403 27.8244 208.236 28.2476 208.123 28.7358C208.009 29.216 207.952 29.7368 207.952 30.2983ZM218.682 30.5303V30.2739C218.682 29.3055 218.82 28.4144 219.097 27.6006C219.373 26.7786 219.776 26.0666 220.305 25.4644C220.834 24.8621 221.485 24.3942 222.258 24.0605C223.031 23.7188 223.918 23.5479 224.919 23.5479C225.92 23.5479 226.812 23.7188 227.593 24.0605C228.374 24.3942 229.029 24.8621 229.558 25.4644C230.095 26.0666 230.502 26.7786 230.779 27.6006C231.056 28.4144 231.194 29.3055 231.194 30.2739V30.5303C231.194 31.4906 231.056 32.3817 230.779 33.2036C230.502 34.0174 230.095 34.7295 229.558 35.3398C229.029 35.9421 228.378 36.41 227.605 36.7437C226.832 37.0773 225.945 37.2441 224.944 37.2441C223.943 37.2441 223.052 37.0773 222.271 36.7437C221.497 36.41 220.842 35.9421 220.305 35.3398C219.776 34.7295 219.373 34.0174 219.097 33.2036C218.82 32.3817 218.682 31.4906 218.682 30.5303ZM222.197 30.2739V30.5303C222.197 31.0837 222.246 31.6004 222.344 32.0806C222.441 32.5607 222.596 32.9839 222.808 33.3501C223.027 33.7082 223.312 33.9889 223.662 34.1924C224.012 34.3958 224.439 34.4976 224.944 34.4976C225.432 34.4976 225.851 34.3958 226.201 34.1924C226.551 33.9889 226.832 33.7082 227.043 33.3501C227.255 32.9839 227.41 32.5607 227.507 32.0806C227.613 31.6004 227.666 31.0837 227.666 30.5303V30.2739C227.666 29.7368 227.613 29.2323 227.507 28.7603C227.41 28.2801 227.251 27.8569 227.031 27.4907C226.82 27.1164 226.539 26.8234 226.189 26.6118C225.839 26.4002 225.416 26.2944 224.919 26.2944C224.423 26.2944 224 26.4002 223.65 26.6118C223.308 26.8234 223.027 27.1164 222.808 27.4907C222.596 27.8569 222.441 28.2801 222.344 28.7603C222.246 29.2323 222.197 29.7368 222.197 30.2739ZM239.434 37.2441C238.408 37.2441 237.489 37.0814 236.675 36.7559C235.861 36.4222 235.169 35.9624 234.6 35.3765C234.038 34.7905 233.607 34.111 233.306 33.3379C233.005 32.5566 232.854 31.7266 232.854 30.8477V30.3594C232.854 29.3584 232.996 28.4429 233.281 27.6128C233.566 26.7827 233.973 26.0625 234.502 25.4521C235.039 24.8418 235.69 24.3739 236.455 24.0483C237.22 23.7147 238.083 23.5479 239.043 23.5479C239.979 23.5479 240.809 23.7025 241.533 24.0117C242.257 24.321 242.864 24.7604 243.352 25.3301C243.848 25.8997 244.223 26.5833 244.475 27.3809C244.727 28.1702 244.854 29.0492 244.854 30.0176V31.4824H234.355V29.1387H241.399V28.8701C241.399 28.3818 241.309 27.9465 241.13 27.564C240.959 27.1733 240.699 26.8641 240.349 26.6362C239.999 26.4084 239.552 26.2944 239.006 26.2944C238.542 26.2944 238.144 26.3962 237.81 26.5996C237.476 26.8031 237.204 27.0879 236.992 27.4541C236.789 27.8203 236.634 28.2516 236.528 28.748C236.431 29.2363 236.382 29.7734 236.382 30.3594V30.8477C236.382 31.3766 236.455 31.8649 236.602 32.3125C236.756 32.7601 236.972 33.1466 237.249 33.4722C237.533 33.7977 237.875 34.05 238.274 34.229C238.681 34.408 239.141 34.4976 239.653 34.4976C240.288 34.4976 240.878 34.3755 241.423 34.1313C241.977 33.8791 242.453 33.5007 242.852 32.9961L244.561 34.8516C244.284 35.2503 243.905 35.6328 243.425 35.999C242.953 36.3652 242.384 36.6663 241.716 36.9023C241.049 37.1302 240.288 37.2441 239.434 37.2441ZM253.997 33.3501C253.997 33.0978 253.923 32.87 253.777 32.6665C253.63 32.4631 253.358 32.2759 252.959 32.105C252.568 31.9259 252.003 31.7632 251.262 31.6167C250.595 31.4702 249.972 31.2871 249.395 31.0674C248.825 30.8395 248.328 30.5669 247.905 30.2495C247.49 29.9321 247.165 29.5578 246.929 29.1265C246.693 28.687 246.575 28.1865 246.575 27.625C246.575 27.0716 246.693 26.5508 246.929 26.0625C247.173 25.5742 247.519 25.1429 247.966 24.7686C248.422 24.3861 248.975 24.089 249.626 23.8774C250.286 23.6577 251.026 23.5479 251.848 23.5479C252.996 23.5479 253.98 23.731 254.802 24.0972C255.632 24.4634 256.267 24.9679 256.707 25.6108C257.154 26.2456 257.378 26.9699 257.378 27.7837H253.862C253.862 27.4419 253.789 27.1367 253.643 26.8682C253.504 26.5915 253.285 26.3758 252.983 26.2212C252.69 26.0584 252.308 25.9771 251.836 25.9771C251.445 25.9771 251.108 26.0462 250.823 26.1846C250.538 26.3148 250.318 26.4938 250.164 26.7217C250.017 26.9414 249.944 27.1855 249.944 27.4541C249.944 27.6576 249.985 27.8407 250.066 28.0034C250.155 28.158 250.298 28.3005 250.493 28.4307C250.688 28.5609 250.941 28.6829 251.25 28.7969C251.567 28.9027 251.958 29.0003 252.422 29.0898C253.374 29.2852 254.224 29.5415 254.973 29.8589C255.722 30.1681 256.316 30.5913 256.755 31.1284C257.195 31.6574 257.415 32.3532 257.415 33.2158C257.415 33.8018 257.284 34.3389 257.024 34.8271C256.764 35.3154 256.389 35.7427 255.901 36.1089C255.413 36.467 254.827 36.7477 254.143 36.9512C253.468 37.1465 252.707 37.2441 251.86 37.2441C250.632 37.2441 249.59 37.0244 248.735 36.585C247.889 36.1455 247.246 35.5881 246.807 34.9126C246.375 34.229 246.16 33.5291 246.16 32.813H249.492C249.508 33.2931 249.631 33.6797 249.858 33.9727C250.094 34.2656 250.391 34.4772 250.75 34.6074C251.116 34.7376 251.51 34.8027 251.934 34.8027C252.389 34.8027 252.768 34.7417 253.069 34.6196C253.37 34.4894 253.598 34.3185 253.752 34.1069C253.915 33.8872 253.997 33.6349 253.997 33.3501ZM273.052 34.0215V28.1377C273.052 27.7145 272.983 27.3524 272.844 27.0513C272.706 26.742 272.49 26.502 272.197 26.3311C271.912 26.1602 271.542 26.0747 271.086 26.0747C270.696 26.0747 270.358 26.1439 270.073 26.2822C269.788 26.4124 269.569 26.6037 269.414 26.856C269.259 27.1001 269.182 27.389 269.182 27.7227H265.667C265.667 27.1611 265.797 26.6281 266.057 26.1235C266.318 25.619 266.696 25.1755 267.192 24.793C267.689 24.4023 268.279 24.0972 268.962 23.8774C269.654 23.6577 270.427 23.5479 271.282 23.5479C272.307 23.5479 273.219 23.7188 274.016 24.0605C274.814 24.4023 275.44 24.915 275.896 25.5986C276.36 26.2822 276.592 27.1367 276.592 28.1621V33.814C276.592 34.5382 276.637 35.1323 276.726 35.5962C276.816 36.0519 276.946 36.4507 277.117 36.7925V37H273.564C273.394 36.6419 273.263 36.1943 273.174 35.6572C273.092 35.112 273.052 34.5667 273.052 34.0215ZM273.516 28.9556L273.54 30.9453H271.575C271.111 30.9453 270.708 30.9982 270.366 31.104C270.024 31.2098 269.744 31.3604 269.524 31.5557C269.304 31.7428 269.141 31.9626 269.036 32.2148C268.938 32.4671 268.889 32.7438 268.889 33.0449C268.889 33.346 268.958 33.6187 269.097 33.8628C269.235 34.0988 269.434 34.286 269.695 34.4243C269.955 34.5545 270.26 34.6196 270.61 34.6196C271.139 34.6196 271.599 34.5138 271.99 34.3022C272.38 34.0907 272.681 33.8302 272.893 33.521C273.113 33.2118 273.227 32.9188 273.235 32.6421L274.163 34.1313C274.032 34.465 273.853 34.8109 273.625 35.1689C273.406 35.527 273.125 35.8647 272.783 36.1821C272.441 36.4914 272.03 36.7477 271.55 36.9512C271.07 37.1465 270.5 37.2441 269.841 37.2441C269.003 37.2441 268.242 37.0773 267.559 36.7437C266.883 36.4019 266.346 35.9339 265.947 35.3398C265.557 34.7376 265.361 34.054 265.361 33.2891C265.361 32.5973 265.492 31.9829 265.752 31.4458C266.012 30.9087 266.395 30.457 266.899 30.0908C267.412 29.7165 268.051 29.4357 268.816 29.2485C269.581 29.0532 270.468 28.9556 271.477 28.9556H273.516ZM283.074 33.582L285.82 23.792H288.054L287.334 27.6372L284.587 37H282.72L283.074 33.582ZM281.682 23.792L283.647 33.5698L283.831 37H281.633L278.289 23.792H281.682ZM290.569 33.4111L292.485 23.792H295.891L292.546 37H290.361L290.569 33.4111ZM288.359 23.792L291.094 33.5088L291.472 37H289.592L286.846 27.6494L286.15 23.792H288.359ZM304.79 34.0215V28.1377C304.79 27.7145 304.721 27.3524 304.583 27.0513C304.444 26.742 304.229 26.502 303.936 26.3311C303.651 26.1602 303.28 26.0747 302.825 26.0747C302.434 26.0747 302.096 26.1439 301.812 26.2822C301.527 26.4124 301.307 26.6037 301.152 26.856C300.998 27.1001 300.92 27.389 300.92 27.7227H297.405C297.405 27.1611 297.535 26.6281 297.795 26.1235C298.056 25.619 298.434 25.1755 298.931 24.793C299.427 24.4023 300.017 24.0972 300.701 23.8774C301.392 23.6577 302.166 23.5479 303.02 23.5479C304.045 23.5479 304.957 23.7188 305.754 24.0605C306.552 24.4023 307.179 24.915 307.634 25.5986C308.098 26.2822 308.33 27.1367 308.33 28.1621V33.814C308.33 34.5382 308.375 35.1323 308.464 35.5962C308.554 36.0519 308.684 36.4507 308.855 36.7925V37H305.303C305.132 36.6419 305.002 36.1943 304.912 35.6572C304.831 35.112 304.79 34.5667 304.79 34.0215ZM305.254 28.9556L305.278 30.9453H303.313C302.849 30.9453 302.446 30.9982 302.104 31.104C301.763 31.2098 301.482 31.3604 301.262 31.5557C301.042 31.7428 300.88 31.9626 300.774 32.2148C300.676 32.4671 300.627 32.7438 300.627 33.0449C300.627 33.346 300.697 33.6187 300.835 33.8628C300.973 34.0988 301.173 34.286 301.433 34.4243C301.694 34.5545 301.999 34.6196 302.349 34.6196C302.878 34.6196 303.337 34.5138 303.728 34.3022C304.119 34.0907 304.42 33.8302 304.631 33.521C304.851 33.2118 304.965 32.9188 304.973 32.6421L305.901 34.1313C305.771 34.465 305.592 34.8109 305.364 35.1689C305.144 35.527 304.863 35.8647 304.521 36.1821C304.18 36.4914 303.769 36.7477 303.289 36.9512C302.808 37.1465 302.239 37.2441 301.58 37.2441C300.741 37.2441 299.98 37.0773 299.297 36.7437C298.621 36.4019 298.084 35.9339 297.686 35.3398C297.295 34.7376 297.1 34.054 297.1 33.2891C297.1 32.5973 297.23 31.9829 297.49 31.4458C297.751 30.9087 298.133 30.457 298.638 30.0908C299.15 29.7165 299.789 29.4357 300.554 29.2485C301.319 29.0532 302.206 28.9556 303.215 28.9556H305.254ZM314.763 35.5107L318.267 23.792H322.039L316.729 38.9897C316.615 39.3234 316.46 39.6815 316.265 40.064C316.077 40.4465 315.821 40.8086 315.496 41.1504C315.178 41.5003 314.775 41.7852 314.287 42.0049C313.807 42.2246 313.217 42.3345 312.517 42.3345C312.183 42.3345 311.911 42.3141 311.699 42.2734C311.488 42.2327 311.235 42.1758 310.942 42.1025V39.5269C311.032 39.5269 311.125 39.5269 311.223 39.5269C311.321 39.535 311.414 39.5391 311.504 39.5391C311.968 39.5391 312.346 39.4862 312.639 39.3804C312.932 39.2746 313.168 39.1118 313.347 38.8921C313.526 38.6805 313.669 38.4038 313.774 38.062L314.763 35.5107ZM313.298 23.792L316.167 33.3623L316.667 37.0854L314.275 37.3418L309.526 23.792H313.298ZM321.807 35.3032C321.807 34.7824 321.986 34.347 322.344 33.9971C322.71 33.6471 323.194 33.4722 323.796 33.4722C324.399 33.4722 324.879 33.6471 325.237 33.9971C325.603 34.347 325.786 34.7824 325.786 35.3032C325.786 35.8241 325.603 36.2594 325.237 36.6094C324.879 36.9593 324.399 37.1343 323.796 37.1343C323.194 37.1343 322.71 36.9593 322.344 36.6094C321.986 36.2594 321.807 35.8241 321.807 35.3032ZM329.058 35.3032C329.058 34.7824 329.237 34.347 329.595 33.9971C329.961 33.6471 330.445 33.4722 331.047 33.4722C331.65 33.4722 332.13 33.6471 332.488 33.9971C332.854 34.347 333.037 34.7824 333.037 35.3032C333.037 35.8241 332.854 36.2594 332.488 36.6094C332.13 36.9593 331.65 37.1343 331.047 37.1343C330.445 37.1343 329.961 36.9593 329.595 36.6094C329.237 36.2594 329.058 35.8241 329.058 35.3032ZM336.309 35.3032C336.309 34.7824 336.488 34.347 336.846 33.9971C337.212 33.6471 337.696 33.4722 338.298 33.4722C338.901 33.4722 339.381 33.6471 339.739 33.9971C340.105 34.347 340.288 34.7824 340.288 35.3032C340.288 35.8241 340.105 36.2594 339.739 36.6094C339.381 36.9593 338.901 37.1343 338.298 37.1343C337.696 37.1343 337.212 36.9593 336.846 36.6094C336.488 36.2594 336.309 35.8241 336.309 35.3032ZM343.56 35.3032C343.56 34.7824 343.739 34.347 344.097 33.9971C344.463 33.6471 344.947 33.4722 345.549 33.4722C346.152 33.4722 346.632 33.6471 346.99 33.9971C347.356 34.347 347.539 34.7824 347.539 35.3032C347.539 35.8241 347.356 36.2594 346.99 36.6094C346.632 36.9593 346.152 37.1343 345.549 37.1343C344.947 37.1343 344.463 36.9593 344.097 36.6094C343.739 36.2594 343.56 35.8241 343.56 35.3032Z" fill="black"/>
</svg>
