<svg width="846" height="59" viewBox="0 0 846 59" fill="none" xmlns="http://www.w3.org/2000/svg">
<rect width="846" height="59" fill="black"/>
<path d="M24.8828 26.3311V42.0781H21.3672V23.792H24.6265L24.8828 26.3311ZM33.2446 30.2495V30.5059C33.2446 31.4661 33.1307 32.3573 32.9028 33.1792C32.6831 34.0011 32.3576 34.7173 31.9263 35.3276C31.495 35.9299 30.9578 36.4019 30.3149 36.7437C29.6802 37.0773 28.9478 37.2441 28.1177 37.2441C27.312 37.2441 26.6121 37.0814 26.0181 36.7559C25.424 36.4303 24.9235 35.9746 24.5166 35.3887C24.1178 34.7946 23.7964 34.1069 23.5522 33.3257C23.3081 32.5444 23.1209 31.7062 22.9907 30.811V30.1396C23.1209 29.1794 23.3081 28.3005 23.5522 27.5029C23.7964 26.6973 24.1178 26.0015 24.5166 25.4155C24.9235 24.8215 25.4199 24.3617 26.0059 24.0361C26.5999 23.7106 27.2957 23.5479 28.0933 23.5479C28.9315 23.5479 29.668 23.7065 30.3027 24.0239C30.9456 24.3413 31.4827 24.797 31.9141 25.3911C32.3535 25.9852 32.6831 26.6932 32.9028 27.5151C33.1307 28.3371 33.2446 29.2485 33.2446 30.2495ZM29.7168 30.5059V30.2495C29.7168 29.688 29.668 29.1712 29.5703 28.6992C29.4808 28.2191 29.3343 27.8 29.1309 27.4419C28.9355 27.0838 28.6751 26.8071 28.3496 26.6118C28.0322 26.4084 27.6457 26.3066 27.1899 26.3066C26.7098 26.3066 26.2988 26.384 25.957 26.5386C25.6234 26.6932 25.3507 26.917 25.1392 27.21C24.9276 27.5029 24.7689 27.8529 24.6631 28.2598C24.5573 28.6667 24.4922 29.1265 24.4678 29.6392V31.3359C24.5085 31.9382 24.6224 32.4793 24.8096 32.9595C24.9967 33.4315 25.2856 33.8058 25.6763 34.0825C26.0669 34.3592 26.5796 34.4976 27.2144 34.4976C27.6782 34.4976 28.0688 34.3958 28.3862 34.1924C28.7036 33.9808 28.96 33.6919 29.1553 33.3257C29.3587 32.9595 29.5011 32.5363 29.5825 32.0562C29.672 31.576 29.7168 31.0592 29.7168 30.5059ZM38.9453 26.6729V37H35.4297V23.792H38.7378L38.9453 26.6729ZM42.9248 23.7065L42.8638 26.9658C42.6929 26.9414 42.4854 26.9211 42.2412 26.9048C42.0052 26.8804 41.7896 26.8682 41.5942 26.8682C41.0978 26.8682 40.6665 26.9333 40.3003 27.0635C39.9422 27.1855 39.6411 27.3687 39.397 27.6128C39.161 27.8569 38.9819 28.154 38.8599 28.5039C38.7459 28.8538 38.6808 29.2526 38.6646 29.7002L37.9565 29.4805C37.9565 28.626 38.042 27.8407 38.2129 27.1245C38.3838 26.4002 38.632 25.7695 38.9575 25.2324C39.2912 24.6953 39.6981 24.2803 40.1782 23.9873C40.6584 23.6943 41.2077 23.5479 41.8262 23.5479C42.0215 23.5479 42.2209 23.5641 42.4243 23.5967C42.6278 23.6211 42.7946 23.6577 42.9248 23.7065ZM51.2988 34.0215V28.1377C51.2988 27.7145 51.2297 27.3524 51.0913 27.0513C50.953 26.742 50.7373 26.502 50.4443 26.3311C50.1595 26.1602 49.7892 26.0747 49.3335 26.0747C48.9429 26.0747 48.6051 26.1439 48.3203 26.2822C48.0355 26.4124 47.8158 26.6037 47.6611 26.856C47.5065 27.1001 47.4292 27.389 47.4292 27.7227H43.9136C43.9136 27.1611 44.0438 26.6281 44.3042 26.1235C44.5646 25.619 44.943 25.1755 45.4395 24.793C45.9359 24.4023 46.5259 24.0972 47.2095 23.8774C47.9012 23.6577 48.6743 23.5479 49.5288 23.5479C50.5542 23.5479 51.4657 23.7188 52.2632 24.0605C53.0607 24.4023 53.6873 24.915 54.1431 25.5986C54.6069 26.2822 54.8389 27.1367 54.8389 28.1621V33.814C54.8389 34.5382 54.8836 35.1323 54.9731 35.5962C55.0627 36.0519 55.1929 36.4507 55.3638 36.7925V37H51.8115C51.6406 36.6419 51.5104 36.1943 51.4209 35.6572C51.3395 35.112 51.2988 34.5667 51.2988 34.0215ZM51.7627 28.9556L51.7871 30.9453H49.8218C49.3579 30.9453 48.9551 30.9982 48.6133 31.104C48.2715 31.2098 47.9907 31.3604 47.771 31.5557C47.5513 31.7428 47.3885 31.9626 47.2827 32.2148C47.1851 32.4671 47.1362 32.7438 47.1362 33.0449C47.1362 33.346 47.2054 33.6187 47.3438 33.8628C47.4821 34.0988 47.6815 34.286 47.9419 34.4243C48.2023 34.5545 48.5075 34.6196 48.8574 34.6196C49.3864 34.6196 49.8462 34.5138 50.2368 34.3022C50.6274 34.0907 50.9285 33.8302 51.1401 33.521C51.3599 33.2118 51.4738 32.9188 51.4819 32.6421L52.4097 34.1313C52.2795 34.465 52.1004 34.8109 51.8726 35.1689C51.6528 35.527 51.3721 35.8647 51.0303 36.1821C50.6885 36.4914 50.2775 36.7477 49.7974 36.9512C49.3172 37.1465 48.7476 37.2441 48.0884 37.2441C47.2502 37.2441 46.4893 37.0773 45.8057 36.7437C45.1302 36.4019 44.5931 35.9339 44.1943 35.3398C43.8037 34.7376 43.6084 34.054 43.6084 33.2891C43.6084 32.5973 43.7386 31.9829 43.999 31.4458C44.2594 30.9087 44.6419 30.457 45.1465 30.0908C45.6592 29.7165 46.298 29.4357 47.063 29.2485C47.828 29.0532 48.715 28.9556 49.7241 28.9556H51.7627ZM61.272 35.5107L64.7754 23.792H68.5474L63.2373 38.9897C63.1234 39.3234 62.9688 39.6815 62.7734 40.064C62.5863 40.4465 62.3299 40.8086 62.0044 41.1504C61.687 41.5003 61.2842 41.7852 60.7959 42.0049C60.3158 42.2246 59.7257 42.3345 59.0259 42.3345C58.6922 42.3345 58.4196 42.3141 58.208 42.2734C57.9964 42.2327 57.7441 42.1758 57.4512 42.1025V39.5269C57.5407 39.5269 57.6343 39.5269 57.7319 39.5269C57.8296 39.535 57.9232 39.5391 58.0127 39.5391C58.4766 39.5391 58.855 39.4862 59.1479 39.3804C59.4409 39.2746 59.6769 39.1118 59.856 38.8921C60.035 38.6805 60.1774 38.4038 60.2832 38.062L61.272 35.5107ZM59.8071 23.792L62.6758 33.3623L63.1763 37.0854L60.7837 37.3418L56.0352 23.792H59.8071ZM80.6567 37H77.1167V22.6201C77.1167 21.6191 77.312 20.7769 77.7026 20.0933C78.1014 19.4015 78.6589 18.8807 79.375 18.5308C80.0993 18.1727 80.9578 17.9937 81.9507 17.9937C82.2762 17.9937 82.5895 18.0181 82.8906 18.0669C83.1917 18.1076 83.4847 18.1605 83.7695 18.2256L83.7329 20.8745C83.5783 20.8338 83.4155 20.8053 83.2446 20.7891C83.0737 20.7728 82.8743 20.7646 82.6465 20.7646C82.2233 20.7646 81.8612 20.8379 81.5601 20.9844C81.2671 21.1227 81.0433 21.3302 80.8887 21.6069C80.734 21.8836 80.6567 22.2214 80.6567 22.6201V37ZM83.2935 23.792V26.2822H75.1514V23.792H83.2935ZM84.5752 30.5303V30.2739C84.5752 29.3055 84.7135 28.4144 84.9902 27.6006C85.2669 26.7786 85.6698 26.0666 86.1987 25.4644C86.7277 24.8621 87.3787 24.3942 88.1519 24.0605C88.925 23.7188 89.812 23.5479 90.813 23.5479C91.814 23.5479 92.7051 23.7188 93.4863 24.0605C94.2676 24.3942 94.9227 24.8621 95.4517 25.4644C95.9888 26.0666 96.3957 26.7786 96.6724 27.6006C96.9491 28.4144 97.0874 29.3055 97.0874 30.2739V30.5303C97.0874 31.4906 96.9491 32.3817 96.6724 33.2036C96.3957 34.0174 95.9888 34.7295 95.4517 35.3398C94.9227 35.9421 94.2716 36.41 93.4985 36.7437C92.7254 37.0773 91.8384 37.2441 90.8374 37.2441C89.8364 37.2441 88.9453 37.0773 88.1641 36.7437C87.391 36.41 86.7358 35.9421 86.1987 35.3398C85.6698 34.7295 85.2669 34.0174 84.9902 33.2036C84.7135 32.3817 84.5752 31.4906 84.5752 30.5303ZM88.0908 30.2739V30.5303C88.0908 31.0837 88.1396 31.6004 88.2373 32.0806C88.335 32.5607 88.4896 32.9839 88.7012 33.3501C88.9209 33.7082 89.2057 33.9889 89.5557 34.1924C89.9056 34.3958 90.3328 34.4976 90.8374 34.4976C91.3257 34.4976 91.7448 34.3958 92.0947 34.1924C92.4447 33.9889 92.7254 33.7082 92.937 33.3501C93.1486 32.9839 93.3032 32.5607 93.4009 32.0806C93.5067 31.6004 93.5596 31.0837 93.5596 30.5303V30.2739C93.5596 29.7368 93.5067 29.2323 93.4009 28.7603C93.3032 28.2801 93.1445 27.8569 92.9248 27.4907C92.7132 27.1164 92.4325 26.8234 92.0825 26.6118C91.7326 26.4002 91.3094 26.2944 90.813 26.2944C90.3166 26.2944 89.8934 26.4002 89.5435 26.6118C89.2017 26.8234 88.9209 27.1164 88.7012 27.4907C88.4896 27.8569 88.335 28.2801 88.2373 28.7603C88.1396 29.2323 88.0908 29.7368 88.0908 30.2739ZM102.764 26.6729V37H99.248V23.792H102.556L102.764 26.6729ZM106.743 23.7065L106.682 26.9658C106.511 26.9414 106.304 26.9211 106.06 26.9048C105.824 26.8804 105.608 26.8682 105.413 26.8682C104.916 26.8682 104.485 26.9333 104.119 27.0635C103.761 27.1855 103.459 27.3687 103.215 27.6128C102.979 27.8569 102.8 28.154 102.678 28.5039C102.564 28.8538 102.499 29.2526 102.483 29.7002L101.775 29.4805C101.775 28.626 101.86 27.8407 102.031 27.1245C102.202 26.4002 102.45 25.7695 102.776 25.2324C103.11 24.6953 103.516 24.2803 103.997 23.9873C104.477 23.6943 105.026 23.5479 105.645 23.5479C105.84 23.5479 106.039 23.5641 106.243 23.5967C106.446 23.6211 106.613 23.6577 106.743 23.7065ZM118.34 23.792V37H114.812V23.792H118.34ZM114.592 20.3496C114.592 19.8369 114.771 19.4137 115.129 19.0801C115.487 18.7464 115.968 18.5796 116.57 18.5796C117.164 18.5796 117.64 18.7464 117.998 19.0801C118.364 19.4137 118.547 19.8369 118.547 20.3496C118.547 20.8623 118.364 21.2855 117.998 21.6191C117.64 21.9528 117.164 22.1196 116.57 22.1196C115.968 22.1196 115.487 21.9528 115.129 21.6191C114.771 21.2855 114.592 20.8623 114.592 20.3496ZM127.715 23.792V26.2822H120.024V23.792H127.715ZM121.929 20.5327H125.444V33.0205C125.444 33.403 125.493 33.696 125.591 33.8994C125.697 34.1029 125.851 34.2453 126.055 34.3267C126.258 34.3999 126.514 34.4365 126.824 34.4365C127.043 34.4365 127.239 34.4284 127.41 34.4121C127.589 34.3877 127.739 34.3633 127.861 34.3389L127.874 36.9268C127.572 37.0244 127.247 37.1017 126.897 37.1587C126.547 37.2157 126.16 37.2441 125.737 37.2441C124.964 37.2441 124.289 37.118 123.711 36.8657C123.141 36.6053 122.702 36.1903 122.393 35.6206C122.083 35.0509 121.929 34.3022 121.929 33.3745V20.5327ZM136.846 34.0215V28.1377C136.846 27.7145 136.777 27.3524 136.638 27.0513C136.5 26.742 136.284 26.502 135.991 26.3311C135.706 26.1602 135.336 26.0747 134.88 26.0747C134.49 26.0747 134.152 26.1439 133.867 26.2822C133.582 26.4124 133.363 26.6037 133.208 26.856C133.053 27.1001 132.976 27.389 132.976 27.7227H129.46C129.46 27.1611 129.591 26.6281 129.851 26.1235C130.111 25.619 130.49 25.1755 130.986 24.793C131.483 24.4023 132.073 24.0972 132.756 23.8774C133.448 23.6577 134.221 23.5479 135.076 23.5479C136.101 23.5479 137.013 23.7188 137.81 24.0605C138.608 24.4023 139.234 24.915 139.69 25.5986C140.154 26.2822 140.386 27.1367 140.386 28.1621V33.814C140.386 34.5382 140.431 35.1323 140.52 35.5962C140.61 36.0519 140.74 36.4507 140.911 36.7925V37H137.358C137.188 36.6419 137.057 36.1943 136.968 35.6572C136.886 35.112 136.846 34.5667 136.846 34.0215ZM137.31 28.9556L137.334 30.9453H135.369C134.905 30.9453 134.502 30.9982 134.16 31.104C133.818 31.2098 133.538 31.3604 133.318 31.5557C133.098 31.7428 132.935 31.9626 132.83 32.2148C132.732 32.4671 132.683 32.7438 132.683 33.0449C132.683 33.346 132.752 33.6187 132.891 33.8628C133.029 34.0988 133.228 34.286 133.489 34.4243C133.749 34.5545 134.054 34.6196 134.404 34.6196C134.933 34.6196 135.393 34.5138 135.784 34.3022C136.174 34.0907 136.475 33.8302 136.687 33.521C136.907 33.2118 137.021 32.9188 137.029 32.6421L137.957 34.1313C137.826 34.465 137.647 34.8109 137.419 35.1689C137.2 35.527 136.919 35.8647 136.577 36.1821C136.235 36.4914 135.824 36.7477 135.344 36.9512C134.864 37.1465 134.294 37.2441 133.635 37.2441C132.797 37.2441 132.036 37.0773 131.353 36.7437C130.677 36.4019 130.14 35.9339 129.741 35.3398C129.351 34.7376 129.155 34.054 129.155 33.2891C129.155 32.5973 129.285 31.9829 129.546 31.4458C129.806 30.9087 130.189 30.457 130.693 30.0908C131.206 29.7165 131.845 29.4357 132.61 29.2485C133.375 29.0532 134.262 28.9556 135.271 28.9556H137.31ZM149.175 37.2441C148.149 37.2441 147.23 37.0814 146.416 36.7559C145.602 36.4222 144.91 35.9624 144.341 35.3765C143.779 34.7905 143.348 34.111 143.047 33.3379C142.746 32.5566 142.595 31.7266 142.595 30.8477V30.3594C142.595 29.3584 142.738 28.4429 143.022 27.6128C143.307 26.7827 143.714 26.0625 144.243 25.4521C144.78 24.8418 145.431 24.3739 146.196 24.0483C146.961 23.7147 147.824 23.5479 148.784 23.5479C149.72 23.5479 150.55 23.7025 151.274 24.0117C151.999 24.321 152.605 24.7604 153.093 25.3301C153.59 25.8997 153.964 26.5833 154.216 27.3809C154.469 28.1702 154.595 29.0492 154.595 30.0176V31.4824H144.097V29.1387H151.14V28.8701C151.14 28.3818 151.051 27.9465 150.872 27.564C150.701 27.1733 150.44 26.8641 150.09 26.6362C149.74 26.4084 149.293 26.2944 148.748 26.2944C148.284 26.2944 147.885 26.3962 147.551 26.5996C147.218 26.8031 146.945 27.0879 146.733 27.4541C146.53 27.8203 146.375 28.2516 146.27 28.748C146.172 29.2363 146.123 29.7734 146.123 30.3594V30.8477C146.123 31.3766 146.196 31.8649 146.343 32.3125C146.497 32.7601 146.713 33.1466 146.99 33.4722C147.275 33.7977 147.616 34.05 148.015 34.229C148.422 34.408 148.882 34.4976 149.395 34.4976C150.029 34.4976 150.619 34.3755 151.165 34.1313C151.718 33.8791 152.194 33.5007 152.593 32.9961L154.302 34.8516C154.025 35.2503 153.647 35.6328 153.167 35.999C152.694 36.3652 152.125 36.6663 151.458 36.9023C150.79 37.1302 150.029 37.2441 149.175 37.2441ZM160.369 33.582L163.115 23.792H165.349L164.629 27.6372L161.882 37H160.015L160.369 33.582ZM158.977 23.792L160.942 33.5698L161.125 37H158.928L155.583 23.792H158.977ZM167.864 33.4111L169.78 23.792H173.186L169.841 37H167.656L167.864 33.4111ZM165.654 23.792L168.389 33.5088L168.767 37H166.887L164.141 27.6494L163.445 23.792H165.654ZM174.395 30.5303V30.2739C174.395 29.3055 174.533 28.4144 174.81 27.6006C175.086 26.7786 175.489 26.0666 176.018 25.4644C176.547 24.8621 177.198 24.3942 177.971 24.0605C178.744 23.7188 179.631 23.5479 180.632 23.5479C181.633 23.5479 182.524 23.7188 183.306 24.0605C184.087 24.3942 184.742 24.8621 185.271 25.4644C185.808 26.0666 186.215 26.7786 186.492 27.6006C186.768 28.4144 186.907 29.3055 186.907 30.2739V30.5303C186.907 31.4906 186.768 32.3817 186.492 33.2036C186.215 34.0174 185.808 34.7295 185.271 35.3398C184.742 35.9421 184.091 36.41 183.318 36.7437C182.545 37.0773 181.658 37.2441 180.657 37.2441C179.656 37.2441 178.765 37.0773 177.983 36.7437C177.21 36.41 176.555 35.9421 176.018 35.3398C175.489 34.7295 175.086 34.0174 174.81 33.2036C174.533 32.3817 174.395 31.4906 174.395 30.5303ZM177.91 30.2739V30.5303C177.91 31.0837 177.959 31.6004 178.057 32.0806C178.154 32.5607 178.309 32.9839 178.521 33.3501C178.74 33.7082 179.025 33.9889 179.375 34.1924C179.725 34.3958 180.152 34.4976 180.657 34.4976C181.145 34.4976 181.564 34.3958 181.914 34.1924C182.264 33.9889 182.545 33.7082 182.756 33.3501C182.968 32.9839 183.123 32.5607 183.22 32.0806C183.326 31.6004 183.379 31.0837 183.379 30.5303V30.2739C183.379 29.7368 183.326 29.2323 183.22 28.7603C183.123 28.2801 182.964 27.8569 182.744 27.4907C182.533 27.1164 182.252 26.8234 181.902 26.6118C181.552 26.4002 181.129 26.2944 180.632 26.2944C180.136 26.2944 179.713 26.4002 179.363 26.6118C179.021 26.8234 178.74 27.1164 178.521 27.4907C178.309 27.8569 178.154 28.2801 178.057 28.7603C177.959 29.2323 177.91 29.7368 177.91 30.2739ZM192.51 26.6118V37H188.994V23.792H192.29L192.51 26.6118ZM191.997 29.9321H191.045C191.045 28.9556 191.171 28.0767 191.423 27.2954C191.676 26.506 192.03 25.8346 192.485 25.2812C192.941 24.7197 193.482 24.2925 194.109 23.9995C194.744 23.6984 195.452 23.5479 196.233 23.5479C196.851 23.5479 197.417 23.6374 197.93 23.8164C198.442 23.9954 198.882 24.2803 199.248 24.6709C199.622 25.0615 199.907 25.5783 200.103 26.2212C200.306 26.8641 200.408 27.6494 200.408 28.5771V37H196.868V28.5649C196.868 27.979 196.786 27.5233 196.624 27.1978C196.461 26.8722 196.221 26.6444 195.903 26.5142C195.594 26.3758 195.212 26.3066 194.756 26.3066C194.284 26.3066 193.873 26.4002 193.523 26.5874C193.181 26.7746 192.896 27.035 192.668 27.3687C192.449 27.6942 192.282 28.0767 192.168 28.5161C192.054 28.9556 191.997 29.4276 191.997 29.9321Z" fill="white"/>
</svg>