<svg width="846" height="59" viewBox="0 0 846 59" fill="none" xmlns="http://www.w3.org/2000/svg">
<rect width="846" height="59" fill="white"/>
<path d="M36.0522 19.2266V37H32.3901L25.249 25.0859V37H21.5869V19.2266H25.249L32.4023 31.1528V19.2266H36.0522ZM42.7295 23.792V37H39.2017V23.792H42.7295ZM38.9819 20.3496C38.9819 19.8369 39.161 19.4137 39.519 19.0801C39.8771 18.7464 40.3573 18.5796 40.9595 18.5796C41.5535 18.5796 42.0296 18.7464 42.3877 19.0801C42.7539 19.4137 42.937 19.8369 42.937 20.3496C42.937 20.8623 42.7539 21.2855 42.3877 21.6191C42.0296 21.9528 41.5535 22.1196 40.9595 22.1196C40.3573 22.1196 39.8771 21.9528 39.519 21.6191C39.161 21.2855 38.9819 20.8623 38.9819 20.3496ZM51.0913 34.4976C51.5226 34.4976 51.9051 34.4162 52.2388 34.2534C52.5724 34.0825 52.8328 33.8465 53.02 33.5454C53.2153 33.2362 53.3171 32.874 53.3252 32.459H56.6333C56.6252 33.3867 56.377 34.2127 55.8887 34.937C55.4004 35.6532 54.7453 36.2188 53.9233 36.6338C53.1014 37.0407 52.1818 37.2441 51.1646 37.2441C50.1392 37.2441 49.244 37.0732 48.479 36.7314C47.7222 36.3896 47.0915 35.9176 46.5869 35.3154C46.0824 34.7051 45.7039 33.9971 45.4517 33.1914C45.1994 32.3776 45.0732 31.5068 45.0732 30.5791V30.2251C45.0732 29.2892 45.1994 28.4185 45.4517 27.6128C45.7039 26.799 46.0824 26.091 46.5869 25.4888C47.0915 24.8784 47.7222 24.4023 48.479 24.0605C49.2358 23.7188 50.1229 23.5479 51.1401 23.5479C52.2225 23.5479 53.1706 23.7554 53.9844 24.1704C54.8063 24.5854 55.4492 25.1795 55.9131 25.9526C56.3851 26.7176 56.6252 27.625 56.6333 28.6748H53.3252C53.3171 28.2354 53.2235 27.8366 53.0444 27.4785C52.8735 27.1204 52.6213 26.8356 52.2876 26.624C51.9621 26.4043 51.5592 26.2944 51.0791 26.2944C50.5664 26.2944 50.1473 26.4043 49.8218 26.624C49.4963 26.8356 49.244 27.1286 49.0649 27.5029C48.8859 27.8691 48.7598 28.2882 48.6865 28.7603C48.6214 29.2241 48.5889 29.7124 48.5889 30.2251V30.5791C48.5889 31.0918 48.6214 31.5841 48.6865 32.0562C48.7516 32.5282 48.8737 32.9473 49.0527 33.3135C49.2399 33.6797 49.4963 33.9686 49.8218 34.1802C50.1473 34.3918 50.5705 34.4976 51.0913 34.4976ZM64.751 37.2441C63.7256 37.2441 62.806 37.0814 61.9922 36.7559C61.1784 36.4222 60.4867 35.9624 59.917 35.3765C59.3555 34.7905 58.9242 34.111 58.623 33.3379C58.3219 32.5566 58.1714 31.7266 58.1714 30.8477V30.3594C58.1714 29.3584 58.3138 28.4429 58.5986 27.6128C58.8835 26.7827 59.2904 26.0625 59.8193 25.4521C60.3564 24.8418 61.0075 24.3739 61.7725 24.0483C62.5374 23.7147 63.4001 23.5479 64.3604 23.5479C65.2962 23.5479 66.1263 23.7025 66.8506 24.0117C67.5749 24.321 68.1812 24.7604 68.6694 25.3301C69.1659 25.8997 69.5402 26.5833 69.7925 27.3809C70.0448 28.1702 70.1709 29.0492 70.1709 30.0176V31.4824H59.6729V29.1387H66.7163V28.8701C66.7163 28.3818 66.6268 27.9465 66.4478 27.564C66.2769 27.1733 66.0164 26.8641 65.6665 26.6362C65.3166 26.4084 64.869 26.2944 64.3237 26.2944C63.8599 26.2944 63.4611 26.3962 63.1274 26.5996C62.7938 26.8031 62.5212 27.0879 62.3096 27.4541C62.1061 27.8203 61.9515 28.2516 61.8457 28.748C61.748 29.2363 61.6992 29.7734 61.6992 30.3594V30.8477C61.6992 31.3766 61.7725 31.8649 61.9189 32.3125C62.0736 32.7601 62.2892 33.1466 62.5659 33.4722C62.8507 33.7977 63.1925 34.05 63.5913 34.229C63.9982 34.408 64.458 34.4976 64.9707 34.4976C65.6055 34.4976 66.1955 34.3755 66.7407 34.1313C67.2941 33.8791 67.7702 33.5007 68.1689 32.9961L69.8779 34.8516C69.6012 35.2503 69.2228 35.6328 68.7427 35.999C68.2707 36.3652 67.701 36.6663 67.0337 36.9023C66.3664 37.1302 65.6055 37.2441 64.751 37.2441ZM84.8682 23.792V26.2822H77.1777V23.792H84.8682ZM79.082 20.5327H82.5977V33.0205C82.5977 33.403 82.6465 33.696 82.7441 33.8994C82.8499 34.1029 83.0046 34.2453 83.208 34.3267C83.4115 34.3999 83.6678 34.4365 83.9771 34.4365C84.1968 34.4365 84.3921 34.4284 84.563 34.4121C84.742 34.3877 84.8926 34.3633 85.0146 34.3389L85.0269 36.9268C84.7257 37.0244 84.4002 37.1017 84.0503 37.1587C83.7004 37.2157 83.3138 37.2441 82.8906 37.2441C82.1175 37.2441 81.4421 37.118 80.8643 36.8657C80.2946 36.6053 79.8551 36.1903 79.5459 35.6206C79.2367 35.0509 79.082 34.3022 79.082 33.3745V20.5327ZM85.9912 30.5303V30.2739C85.9912 29.3055 86.1296 28.4144 86.4062 27.6006C86.6829 26.7786 87.0858 26.0666 87.6147 25.4644C88.1437 24.8621 88.7948 24.3942 89.5679 24.0605C90.341 23.7188 91.228 23.5479 92.229 23.5479C93.23 23.5479 94.1211 23.7188 94.9023 24.0605C95.6836 24.3942 96.3387 24.8621 96.8677 25.4644C97.4048 26.0666 97.8117 26.7786 98.0884 27.6006C98.3651 28.4144 98.5034 29.3055 98.5034 30.2739V30.5303C98.5034 31.4906 98.3651 32.3817 98.0884 33.2036C97.8117 34.0174 97.4048 34.7295 96.8677 35.3398C96.3387 35.9421 95.6877 36.41 94.9146 36.7437C94.1414 37.0773 93.2544 37.2441 92.2534 37.2441C91.2524 37.2441 90.3613 37.0773 89.5801 36.7437C88.807 36.41 88.1519 35.9421 87.6147 35.3398C87.0858 34.7295 86.6829 34.0174 86.4062 33.2036C86.1296 32.3817 85.9912 31.4906 85.9912 30.5303ZM89.5068 30.2739V30.5303C89.5068 31.0837 89.5557 31.6004 89.6533 32.0806C89.751 32.5607 89.9056 32.9839 90.1172 33.3501C90.3369 33.7082 90.6217 33.9889 90.9717 34.1924C91.3216 34.3958 91.7489 34.4976 92.2534 34.4976C92.7417 34.4976 93.1608 34.3958 93.5107 34.1924C93.8607 33.9889 94.1414 33.7082 94.353 33.3501C94.5646 32.9839 94.7192 32.5607 94.8169 32.0806C94.9227 31.6004 94.9756 31.0837 94.9756 30.5303V30.2739C94.9756 29.7368 94.9227 29.2323 94.8169 28.7603C94.7192 28.2801 94.5605 27.8569 94.3408 27.4907C94.1292 27.1164 93.8485 26.8234 93.4985 26.6118C93.1486 26.4002 92.7254 26.2944 92.229 26.2944C91.7326 26.2944 91.3094 26.4002 90.9595 26.6118C90.6177 26.8234 90.3369 27.1164 90.1172 27.4907C89.9056 27.8569 89.751 28.2801 89.6533 28.7603C89.5557 29.2323 89.5068 29.7368 89.5068 30.2739ZM110.405 26.5264V37H106.877V23.792H110.186L110.405 26.5264ZM109.917 29.9321H108.94C108.94 29.0125 109.05 28.1662 109.27 27.3931C109.498 26.6118 109.827 25.9364 110.259 25.3667C110.698 24.7889 111.239 24.3413 111.882 24.0239C112.525 23.7065 113.27 23.5479 114.116 23.5479C114.702 23.5479 115.239 23.6374 115.728 23.8164C116.216 23.9873 116.635 24.2599 116.985 24.6343C117.343 25.0005 117.62 25.4806 117.815 26.0747C118.01 26.6606 118.108 27.3646 118.108 28.1865V37H114.592V28.5771C114.592 27.9749 114.511 27.5111 114.348 27.1855C114.185 26.86 113.953 26.6322 113.652 26.502C113.359 26.3717 113.005 26.3066 112.59 26.3066C112.135 26.3066 111.736 26.4002 111.394 26.5874C111.06 26.7746 110.784 27.035 110.564 27.3687C110.344 27.6942 110.181 28.0767 110.076 28.5161C109.97 28.9556 109.917 29.4276 109.917 29.9321ZM117.778 29.5293L116.521 29.688C116.521 28.8254 116.627 28.0238 116.838 27.2832C117.058 26.5426 117.38 25.8916 117.803 25.3301C118.234 24.7686 118.767 24.3332 119.402 24.0239C120.037 23.7065 120.769 23.5479 121.599 23.5479C122.234 23.5479 122.812 23.6414 123.333 23.8286C123.853 24.0076 124.297 24.2965 124.663 24.6953C125.037 25.0859 125.322 25.5986 125.518 26.2334C125.721 26.8682 125.823 27.6453 125.823 28.5649V37H122.295V28.5649C122.295 27.9546 122.214 27.4907 122.051 27.1733C121.896 26.8478 121.668 26.624 121.367 26.502C121.074 26.3717 120.724 26.3066 120.317 26.3066C119.894 26.3066 119.524 26.3921 119.207 26.563C118.889 26.7257 118.625 26.9536 118.413 27.2466C118.201 27.5396 118.043 27.8813 117.937 28.272C117.831 28.6545 117.778 29.0736 117.778 29.5293ZM134.624 37.2441C133.599 37.2441 132.679 37.0814 131.865 36.7559C131.051 36.4222 130.36 35.9624 129.79 35.3765C129.229 34.7905 128.797 34.111 128.496 33.3379C128.195 32.5566 128.044 31.7266 128.044 30.8477V30.3594C128.044 29.3584 128.187 28.4429 128.472 27.6128C128.757 26.7827 129.163 26.0625 129.692 25.4521C130.229 24.8418 130.881 24.3739 131.646 24.0483C132.41 23.7147 133.273 23.5479 134.233 23.5479C135.169 23.5479 135.999 23.7025 136.724 24.0117C137.448 24.321 138.054 24.7604 138.542 25.3301C139.039 25.8997 139.413 26.5833 139.666 27.3809C139.918 28.1702 140.044 29.0492 140.044 30.0176V31.4824H129.546V29.1387H136.589V28.8701C136.589 28.3818 136.5 27.9465 136.321 27.564C136.15 27.1733 135.889 26.8641 135.54 26.6362C135.19 26.4084 134.742 26.2944 134.197 26.2944C133.733 26.2944 133.334 26.3962 133 26.5996C132.667 26.8031 132.394 27.0879 132.183 27.4541C131.979 27.8203 131.825 28.2516 131.719 28.748C131.621 29.2363 131.572 29.7734 131.572 30.3594V30.8477C131.572 31.3766 131.646 31.8649 131.792 32.3125C131.947 32.7601 132.162 33.1466 132.439 33.4722C132.724 33.7977 133.066 34.05 133.464 34.229C133.871 34.408 134.331 34.4976 134.844 34.4976C135.479 34.4976 136.069 34.3755 136.614 34.1313C137.167 33.8791 137.643 33.5007 138.042 32.9961L139.751 34.8516C139.474 35.2503 139.096 35.6328 138.616 35.999C138.144 36.3652 137.574 36.6663 136.907 36.9023C136.239 37.1302 135.479 37.2441 134.624 37.2441ZM148.125 37.2441C147.1 37.2441 146.18 37.0814 145.366 36.7559C144.552 36.4222 143.861 35.9624 143.291 35.3765C142.729 34.7905 142.298 34.111 141.997 33.3379C141.696 32.5566 141.545 31.7266 141.545 30.8477V30.3594C141.545 29.3584 141.688 28.4429 141.973 27.6128C142.257 26.7827 142.664 26.0625 143.193 25.4521C143.73 24.8418 144.382 24.3739 145.146 24.0483C145.911 23.7147 146.774 23.5479 147.734 23.5479C148.67 23.5479 149.5 23.7025 150.225 24.0117C150.949 24.321 151.555 24.7604 152.043 25.3301C152.54 25.8997 152.914 26.5833 153.167 27.3809C153.419 28.1702 153.545 29.0492 153.545 30.0176V31.4824H143.047V29.1387H150.09V28.8701C150.09 28.3818 150.001 27.9465 149.822 27.564C149.651 27.1733 149.39 26.8641 149.041 26.6362C148.691 26.4084 148.243 26.2944 147.698 26.2944C147.234 26.2944 146.835 26.3962 146.501 26.5996C146.168 26.8031 145.895 27.0879 145.684 27.4541C145.48 27.8203 145.326 28.2516 145.22 28.748C145.122 29.2363 145.073 29.7734 145.073 30.3594V30.8477C145.073 31.3766 145.146 31.8649 145.293 32.3125C145.448 32.7601 145.663 33.1466 145.94 33.4722C146.225 33.7977 146.567 34.05 146.965 34.229C147.372 34.408 147.832 34.4976 148.345 34.4976C148.979 34.4976 149.569 34.3755 150.115 34.1313C150.668 33.8791 151.144 33.5007 151.543 32.9961L153.252 34.8516C152.975 35.2503 152.597 35.6328 152.117 35.999C151.645 36.3652 151.075 36.6663 150.408 36.9023C149.74 37.1302 148.979 37.2441 148.125 37.2441ZM162.017 23.792V26.2822H154.326V23.792H162.017ZM156.23 20.5327H159.746V33.0205C159.746 33.403 159.795 33.696 159.893 33.8994C159.998 34.1029 160.153 34.2453 160.356 34.3267C160.56 34.3999 160.816 34.4365 161.125 34.4365C161.345 34.4365 161.541 34.4284 161.711 34.4121C161.89 34.3877 162.041 34.3633 162.163 34.3389L162.175 36.9268C161.874 37.0244 161.549 37.1017 161.199 37.1587C160.849 37.2157 160.462 37.2441 160.039 37.2441C159.266 37.2441 158.59 37.118 158.013 36.8657C157.443 36.6053 157.004 36.1903 156.694 35.6206C156.385 35.0509 156.23 34.3022 156.23 33.3745V20.5327ZM174.163 35.5107L177.666 23.792H181.438L176.128 38.9897C176.014 39.3234 175.859 39.6815 175.664 40.064C175.477 40.4465 175.221 40.8086 174.895 41.1504C174.578 41.5003 174.175 41.7852 173.687 42.0049C173.206 42.2246 172.616 42.3345 171.917 42.3345C171.583 42.3345 171.31 42.3141 171.099 42.2734C170.887 42.2327 170.635 42.1758 170.342 42.1025V39.5269C170.431 39.5269 170.525 39.5269 170.623 39.5269C170.72 39.535 170.814 39.5391 170.903 39.5391C171.367 39.5391 171.746 39.4862 172.039 39.3804C172.332 39.2746 172.568 39.1118 172.747 38.8921C172.926 38.6805 173.068 38.4038 173.174 38.062L174.163 35.5107ZM172.698 23.792L175.566 33.3623L176.067 37.0854L173.674 37.3418L168.926 23.792H172.698ZM182.085 30.5303V30.2739C182.085 29.3055 182.223 28.4144 182.5 27.6006C182.777 26.7786 183.18 26.0666 183.708 25.4644C184.237 24.8621 184.889 24.3942 185.662 24.0605C186.435 23.7188 187.322 23.5479 188.323 23.5479C189.324 23.5479 190.215 23.7188 190.996 24.0605C191.777 24.3942 192.432 24.8621 192.961 25.4644C193.499 26.0666 193.905 26.7786 194.182 27.6006C194.459 28.4144 194.597 29.3055 194.597 30.2739V30.5303C194.597 31.4906 194.459 32.3817 194.182 33.2036C193.905 34.0174 193.499 34.7295 192.961 35.3398C192.432 35.9421 191.781 36.41 191.008 36.7437C190.235 37.0773 189.348 37.2441 188.347 37.2441C187.346 37.2441 186.455 37.0773 185.674 36.7437C184.901 36.41 184.246 35.9421 183.708 35.3398C183.18 34.7295 182.777 34.0174 182.5 33.2036C182.223 32.3817 182.085 31.4906 182.085 30.5303ZM185.601 30.2739V30.5303C185.601 31.0837 185.649 31.6004 185.747 32.0806C185.845 32.5607 185.999 32.9839 186.211 33.3501C186.431 33.7082 186.715 33.9889 187.065 34.1924C187.415 34.3958 187.843 34.4976 188.347 34.4976C188.835 34.4976 189.255 34.3958 189.604 34.1924C189.954 33.9889 190.235 33.7082 190.447 33.3501C190.658 32.9839 190.813 32.5607 190.911 32.0806C191.016 31.6004 191.069 31.0837 191.069 30.5303V30.2739C191.069 29.7368 191.016 29.2323 190.911 28.7603C190.813 28.2801 190.654 27.8569 190.435 27.4907C190.223 27.1164 189.942 26.8234 189.592 26.6118C189.242 26.4002 188.819 26.2944 188.323 26.2944C187.826 26.2944 187.403 26.4002 187.053 26.6118C186.711 26.8234 186.431 27.1164 186.211 27.4907C185.999 27.8569 185.845 28.2801 185.747 28.7603C185.649 29.2323 185.601 29.7368 185.601 30.2739ZM204.57 33.8384V23.792H208.086V37H204.778L204.57 33.8384ZM204.961 31.1284L205.999 31.104C205.999 31.9829 205.897 32.8008 205.693 33.5576C205.49 34.3063 205.185 34.9574 204.778 35.5107C204.371 36.056 203.858 36.4832 203.24 36.7925C202.621 37.0936 201.893 37.2441 201.055 37.2441C200.412 37.2441 199.818 37.1546 199.272 36.9756C198.735 36.7884 198.271 36.4995 197.881 36.1089C197.498 35.7101 197.197 35.2015 196.978 34.583C196.766 33.9564 196.66 33.2036 196.66 32.3247V23.792H200.176V32.3491C200.176 32.7397 200.221 33.0693 200.31 33.3379C200.408 33.6064 200.542 33.8262 200.713 33.9971C200.884 34.168 201.083 34.29 201.311 34.3633C201.547 34.4365 201.807 34.4731 202.092 34.4731C202.817 34.4731 203.386 34.3267 203.801 34.0337C204.224 33.7407 204.521 33.342 204.692 32.8374C204.871 32.3247 204.961 31.755 204.961 31.1284ZM210.942 35.3032C210.942 34.7824 211.121 34.347 211.479 33.9971C211.846 33.6471 212.33 33.4722 212.932 33.4722C213.534 33.4722 214.014 33.6471 214.373 33.9971C214.739 34.347 214.922 34.7824 214.922 35.3032C214.922 35.8241 214.739 36.2594 214.373 36.6094C214.014 36.9593 213.534 37.1343 212.932 37.1343C212.33 37.1343 211.846 36.9593 211.479 36.6094C211.121 36.2594 210.942 35.8241 210.942 35.3032ZM228.362 19.2266V37H224.712V19.2266H228.362ZM241.228 18.25V37H237.712V18.25H241.228ZM240.728 29.9321H239.763C239.771 29.0125 239.893 28.1662 240.129 27.3931C240.365 26.6118 240.703 25.9364 241.143 25.3667C241.582 24.7889 242.107 24.3413 242.717 24.0239C243.336 23.7065 244.019 23.5479 244.768 23.5479C245.419 23.5479 246.009 23.6414 246.538 23.8286C247.075 24.0076 247.535 24.3006 247.917 24.7075C248.308 25.1063 248.609 25.6312 248.821 26.2822C249.032 26.9333 249.138 27.7227 249.138 28.6504V37H245.598V28.626C245.598 28.04 245.513 27.5802 245.342 27.2466C245.179 26.9048 244.939 26.6647 244.622 26.5264C244.312 26.3799 243.93 26.3066 243.474 26.3066C242.97 26.3066 242.538 26.4002 242.18 26.5874C241.83 26.7746 241.549 27.035 241.338 27.3687C241.126 27.6942 240.972 28.0767 240.874 28.5161C240.776 28.9556 240.728 29.4276 240.728 29.9321ZM251.25 30.5303V30.2739C251.25 29.3055 251.388 28.4144 251.665 27.6006C251.942 26.7786 252.345 26.0666 252.874 25.4644C253.403 24.8621 254.054 24.3942 254.827 24.0605C255.6 23.7188 256.487 23.5479 257.488 23.5479C258.489 23.5479 259.38 23.7188 260.161 24.0605C260.942 24.3942 261.597 24.8621 262.126 25.4644C262.664 26.0666 263.07 26.7786 263.347 27.6006C263.624 28.4144 263.762 29.3055 263.762 30.2739V30.5303C263.762 31.4906 263.624 32.3817 263.347 33.2036C263.07 34.0174 262.664 34.7295 262.126 35.3398C261.597 35.9421 260.946 36.41 260.173 36.7437C259.4 37.0773 258.513 37.2441 257.512 37.2441C256.511 37.2441 255.62 37.0773 254.839 36.7437C254.066 36.41 253.411 35.9421 252.874 35.3398C252.345 34.7295 251.942 34.0174 251.665 33.2036C251.388 32.3817 251.25 31.4906 251.25 30.5303ZM254.766 30.2739V30.5303C254.766 31.0837 254.814 31.6004 254.912 32.0806C255.01 32.5607 255.164 32.9839 255.376 33.3501C255.596 33.7082 255.881 33.9889 256.23 34.1924C256.58 34.3958 257.008 34.4976 257.512 34.4976C258 34.4976 258.42 34.3958 258.77 34.1924C259.119 33.9889 259.4 33.7082 259.612 33.3501C259.823 32.9839 259.978 32.5607 260.076 32.0806C260.181 31.6004 260.234 31.0837 260.234 30.5303V30.2739C260.234 29.7368 260.181 29.2323 260.076 28.7603C259.978 28.2801 259.819 27.8569 259.6 27.4907C259.388 27.1164 259.107 26.8234 258.757 26.6118C258.407 26.4002 257.984 26.2944 257.488 26.2944C256.991 26.2944 256.568 26.4002 256.218 26.6118C255.876 26.8234 255.596 27.1164 255.376 27.4907C255.164 27.8569 255.01 28.2801 254.912 28.7603C254.814 29.2323 254.766 29.7368 254.766 30.2739ZM269.438 26.3311V42.0781H265.923V23.792H269.182L269.438 26.3311ZM277.8 30.2495V30.5059C277.8 31.4661 277.686 32.3573 277.458 33.1792C277.239 34.0011 276.913 34.7173 276.482 35.3276C276.051 35.9299 275.514 36.4019 274.871 36.7437C274.236 37.0773 273.503 37.2441 272.673 37.2441C271.868 37.2441 271.168 37.0814 270.574 36.7559C269.98 36.4303 269.479 35.9746 269.072 35.3887C268.674 34.7946 268.352 34.1069 268.108 33.3257C267.864 32.5444 267.677 31.7062 267.546 30.811V30.1396C267.677 29.1794 267.864 28.3005 268.108 27.5029C268.352 26.6973 268.674 26.0015 269.072 25.4155C269.479 24.8215 269.976 24.3617 270.562 24.0361C271.156 23.7106 271.851 23.5479 272.649 23.5479C273.487 23.5479 274.224 23.7065 274.858 24.0239C275.501 24.3413 276.038 24.797 276.47 25.3911C276.909 25.9852 277.239 26.6932 277.458 27.5151C277.686 28.3371 277.8 29.2485 277.8 30.2495ZM274.272 30.5059V30.2495C274.272 29.688 274.224 29.1712 274.126 28.6992C274.036 28.2191 273.89 27.8 273.687 27.4419C273.491 27.0838 273.231 26.8071 272.905 26.6118C272.588 26.4084 272.201 26.3066 271.746 26.3066C271.265 26.3066 270.854 26.384 270.513 26.5386C270.179 26.6932 269.906 26.917 269.695 27.21C269.483 27.5029 269.325 27.8529 269.219 28.2598C269.113 28.6667 269.048 29.1265 269.023 29.6392V31.3359C269.064 31.9382 269.178 32.4793 269.365 32.9595C269.552 33.4315 269.841 33.8058 270.232 34.0825C270.623 34.3592 271.135 34.4976 271.77 34.4976C272.234 34.4976 272.625 34.3958 272.942 34.1924C273.259 33.9808 273.516 33.6919 273.711 33.3257C273.914 32.9595 274.057 32.5363 274.138 32.0562C274.228 31.576 274.272 31.0592 274.272 30.5059ZM286.064 37.2441C285.039 37.2441 284.119 37.0814 283.306 36.7559C282.492 36.4222 281.8 35.9624 281.23 35.3765C280.669 34.7905 280.238 34.111 279.937 33.3379C279.635 32.5566 279.485 31.7266 279.485 30.8477V30.3594C279.485 29.3584 279.627 28.4429 279.912 27.6128C280.197 26.7827 280.604 26.0625 281.133 25.4521C281.67 24.8418 282.321 24.3739 283.086 24.0483C283.851 23.7147 284.714 23.5479 285.674 23.5479C286.61 23.5479 287.44 23.7025 288.164 24.0117C288.888 24.321 289.495 24.7604 289.983 25.3301C290.479 25.8997 290.854 26.5833 291.106 27.3809C291.358 28.1702 291.484 29.0492 291.484 30.0176V31.4824H280.986V29.1387H288.03V28.8701C288.03 28.3818 287.94 27.9465 287.761 27.564C287.59 27.1733 287.33 26.8641 286.98 26.6362C286.63 26.4084 286.182 26.2944 285.637 26.2944C285.173 26.2944 284.775 26.3962 284.441 26.5996C284.107 26.8031 283.835 27.0879 283.623 27.4541C283.42 27.8203 283.265 28.2516 283.159 28.748C283.062 29.2363 283.013 29.7734 283.013 30.3594V30.8477C283.013 31.3766 283.086 31.8649 283.232 32.3125C283.387 32.7601 283.603 33.1466 283.879 33.4722C284.164 33.7977 284.506 34.05 284.905 34.229C285.312 34.408 285.771 34.4976 286.284 34.4976C286.919 34.4976 287.509 34.3755 288.054 34.1313C288.608 33.8791 289.084 33.5007 289.482 32.9961L291.191 34.8516C290.915 35.2503 290.536 35.6328 290.056 35.999C289.584 36.3652 289.014 36.6663 288.347 36.9023C287.68 37.1302 286.919 37.2441 286.064 37.2441ZM306.182 23.792V26.2822H298.491V23.792H306.182ZM300.396 20.5327H303.911V33.0205C303.911 33.403 303.96 33.696 304.058 33.8994C304.163 34.1029 304.318 34.2453 304.521 34.3267C304.725 34.3999 304.981 34.4365 305.291 34.4365C305.51 34.4365 305.706 34.4284 305.876 34.4121C306.056 34.3877 306.206 34.3633 306.328 34.3389L306.34 36.9268C306.039 37.0244 305.714 37.1017 305.364 37.1587C305.014 37.2157 304.627 37.2441 304.204 37.2441C303.431 37.2441 302.756 37.118 302.178 36.8657C301.608 36.6053 301.169 36.1903 300.859 35.6206C300.55 35.0509 300.396 34.3022 300.396 33.3745V20.5327ZM307.305 30.5303V30.2739C307.305 29.3055 307.443 28.4144 307.72 27.6006C307.996 26.7786 308.399 26.0666 308.928 25.4644C309.457 24.8621 310.108 24.3942 310.881 24.0605C311.654 23.7188 312.542 23.5479 313.542 23.5479C314.543 23.5479 315.435 23.7188 316.216 24.0605C316.997 24.3942 317.652 24.8621 318.181 25.4644C318.718 26.0666 319.125 26.7786 319.402 27.6006C319.679 28.4144 319.817 29.3055 319.817 30.2739V30.5303C319.817 31.4906 319.679 32.3817 319.402 33.2036C319.125 34.0174 318.718 34.7295 318.181 35.3398C317.652 35.9421 317.001 36.41 316.228 36.7437C315.455 37.0773 314.568 37.2441 313.567 37.2441C312.566 37.2441 311.675 37.0773 310.894 36.7437C310.12 36.41 309.465 35.9421 308.928 35.3398C308.399 34.7295 307.996 34.0174 307.72 33.2036C307.443 32.3817 307.305 31.4906 307.305 30.5303ZM310.82 30.2739V30.5303C310.82 31.0837 310.869 31.6004 310.967 32.0806C311.064 32.5607 311.219 32.9839 311.431 33.3501C311.65 33.7082 311.935 33.9889 312.285 34.1924C312.635 34.3958 313.062 34.4976 313.567 34.4976C314.055 34.4976 314.474 34.3958 314.824 34.1924C315.174 33.9889 315.455 33.7082 315.667 33.3501C315.878 32.9839 316.033 32.5607 316.13 32.0806C316.236 31.6004 316.289 31.0837 316.289 30.5303V30.2739C316.289 29.7368 316.236 29.2323 316.13 28.7603C316.033 28.2801 315.874 27.8569 315.654 27.4907C315.443 27.1164 315.162 26.8234 314.812 26.6118C314.462 26.4002 314.039 26.2944 313.542 26.2944C313.046 26.2944 312.623 26.4002 312.273 26.6118C311.931 26.8234 311.65 27.1164 311.431 27.4907C311.219 27.8569 311.064 28.2801 310.967 28.7603C310.869 29.2323 310.82 29.7368 310.82 30.2739ZM328.203 18.25H331.719V33.9727L331.365 37H328.203V18.25ZM340.081 30.2617V30.5181C340.081 31.5028 339.975 32.4061 339.763 33.228C339.56 34.05 339.242 34.762 338.811 35.3643C338.38 35.9583 337.843 36.4222 337.2 36.7559C336.565 37.0814 335.816 37.2441 334.954 37.2441C334.148 37.2441 333.448 37.0814 332.854 36.7559C332.268 36.4303 331.776 35.9705 331.377 35.3765C330.978 34.7824 330.657 34.0866 330.413 33.2891C330.168 32.4915 329.985 31.6208 329.863 30.6768V30.1152C329.985 29.1712 330.168 28.3005 330.413 27.5029C330.657 26.7054 330.978 26.0096 331.377 25.4155C331.776 24.8215 332.268 24.3617 332.854 24.0361C333.44 23.7106 334.132 23.5479 334.929 23.5479C335.8 23.5479 336.557 23.7147 337.2 24.0483C337.851 24.3739 338.388 24.8377 338.811 25.4399C339.242 26.034 339.56 26.742 339.763 27.564C339.975 28.3778 340.081 29.277 340.081 30.2617ZM336.565 30.5181V30.2617C336.565 29.7246 336.524 29.2201 336.443 28.748C336.37 28.2679 336.239 27.8488 336.052 27.4907C335.865 27.1245 335.609 26.8356 335.283 26.624C334.966 26.4124 334.555 26.3066 334.05 26.3066C333.57 26.3066 333.163 26.388 332.83 26.5508C332.496 26.7135 332.219 26.9414 332 27.2344C331.788 27.5273 331.629 27.8773 331.523 28.2842C331.418 28.6829 331.353 29.1224 331.328 29.6025V31.2017C331.353 31.8446 331.458 32.4142 331.646 32.9106C331.841 33.3989 332.134 33.7855 332.524 34.0703C332.923 34.347 333.44 34.4854 334.075 34.4854C334.571 34.4854 334.982 34.3877 335.308 34.1924C335.633 33.9971 335.885 33.7204 336.064 33.3623C336.252 33.0042 336.382 32.5851 336.455 32.105C336.528 31.6167 336.565 31.0877 336.565 30.5181ZM348.345 37.2441C347.319 37.2441 346.4 37.0814 345.586 36.7559C344.772 36.4222 344.08 35.9624 343.511 35.3765C342.949 34.7905 342.518 34.111 342.217 33.3379C341.916 32.5566 341.765 31.7266 341.765 30.8477V30.3594C341.765 29.3584 341.908 28.4429 342.192 27.6128C342.477 26.7827 342.884 26.0625 343.413 25.4521C343.95 24.8418 344.601 24.3739 345.366 24.0483C346.131 23.7147 346.994 23.5479 347.954 23.5479C348.89 23.5479 349.72 23.7025 350.444 24.0117C351.169 24.321 351.775 24.7604 352.263 25.3301C352.76 25.8997 353.134 26.5833 353.386 27.3809C353.639 28.1702 353.765 29.0492 353.765 30.0176V31.4824H343.267V29.1387H350.31V28.8701C350.31 28.3818 350.221 27.9465 350.042 27.564C349.871 27.1733 349.61 26.8641 349.26 26.6362C348.91 26.4084 348.463 26.2944 347.917 26.2944C347.454 26.2944 347.055 26.3962 346.721 26.5996C346.388 26.8031 346.115 27.0879 345.903 27.4541C345.7 27.8203 345.545 28.2516 345.439 28.748C345.342 29.2363 345.293 29.7734 345.293 30.3594V30.8477C345.293 31.3766 345.366 31.8649 345.513 32.3125C345.667 32.7601 345.883 33.1466 346.16 33.4722C346.444 33.7977 346.786 34.05 347.185 34.229C347.592 34.408 348.052 34.4976 348.564 34.4976C349.199 34.4976 349.789 34.3755 350.334 34.1313C350.888 33.8791 351.364 33.5007 351.763 32.9961L353.472 34.8516C353.195 35.2503 352.817 35.6328 352.336 35.999C351.864 36.3652 351.295 36.6663 350.627 36.9023C349.96 37.1302 349.199 37.2441 348.345 37.2441ZM369.121 34.0215V28.1377C369.121 27.7145 369.052 27.3524 368.914 27.0513C368.775 26.742 368.56 26.502 368.267 26.3311C367.982 26.1602 367.611 26.0747 367.156 26.0747C366.765 26.0747 366.427 26.1439 366.143 26.2822C365.858 26.4124 365.638 26.6037 365.483 26.856C365.329 27.1001 365.251 27.389 365.251 27.7227H361.736C361.736 27.1611 361.866 26.6281 362.126 26.1235C362.387 25.619 362.765 25.1755 363.262 24.793C363.758 24.4023 364.348 24.0972 365.032 23.8774C365.723 23.6577 366.497 23.5479 367.351 23.5479C368.376 23.5479 369.288 23.7188 370.085 24.0605C370.883 24.4023 371.51 24.915 371.965 25.5986C372.429 26.2822 372.661 27.1367 372.661 28.1621V33.814C372.661 34.5382 372.706 35.1323 372.795 35.5962C372.885 36.0519 373.015 36.4507 373.186 36.7925V37H369.634C369.463 36.6419 369.333 36.1943 369.243 35.6572C369.162 35.112 369.121 34.5667 369.121 34.0215ZM369.585 28.9556L369.609 30.9453H367.644C367.18 30.9453 366.777 30.9982 366.436 31.104C366.094 31.2098 365.813 31.3604 365.593 31.5557C365.374 31.7428 365.211 31.9626 365.105 32.2148C365.007 32.4671 364.958 32.7438 364.958 33.0449C364.958 33.346 365.028 33.6187 365.166 33.8628C365.304 34.0988 365.504 34.286 365.764 34.4243C366.025 34.5545 366.33 34.6196 366.68 34.6196C367.209 34.6196 367.668 34.5138 368.059 34.3022C368.45 34.0907 368.751 33.8302 368.962 33.521C369.182 33.2118 369.296 32.9188 369.304 32.6421L370.232 34.1313C370.102 34.465 369.923 34.8109 369.695 35.1689C369.475 35.527 369.194 35.8647 368.853 36.1821C368.511 36.4914 368.1 36.7477 367.62 36.9512C367.139 37.1465 366.57 37.2441 365.911 37.2441C365.072 37.2441 364.312 37.0773 363.628 36.7437C362.952 36.4019 362.415 35.9339 362.017 35.3398C361.626 34.7376 361.431 34.054 361.431 33.2891C361.431 32.5973 361.561 31.9829 361.821 31.4458C362.082 30.9087 362.464 30.457 362.969 30.0908C363.481 29.7165 364.12 29.4357 364.885 29.2485C365.65 29.0532 366.537 28.9556 367.546 28.9556H369.585ZM389.397 34.1191V18.25H392.937V37H389.751L389.397 34.1191ZM381.047 30.5547V30.2983C381.047 29.2892 381.161 28.3737 381.389 27.5518C381.617 26.7217 381.951 26.0096 382.39 25.4155C382.83 24.8215 383.371 24.3617 384.014 24.0361C384.657 23.7106 385.389 23.5479 386.211 23.5479C386.984 23.5479 387.66 23.7106 388.237 24.0361C388.823 24.3617 389.32 24.8255 389.727 25.4277C390.142 26.0218 390.475 26.7257 390.728 27.5396C390.98 28.3452 391.163 29.2282 391.277 30.1885V30.75C391.163 31.6696 390.98 32.5241 390.728 33.3135C390.475 34.1029 390.142 34.7946 389.727 35.3887C389.32 35.9746 388.823 36.4303 388.237 36.7559C387.651 37.0814 386.968 37.2441 386.187 37.2441C385.365 37.2441 384.632 37.0773 383.989 36.7437C383.354 36.41 382.817 35.9421 382.378 35.3398C381.947 34.7376 381.617 34.0296 381.389 33.2158C381.161 32.402 381.047 31.515 381.047 30.5547ZM384.563 30.2983V30.5547C384.563 31.0999 384.604 31.6086 384.685 32.0806C384.775 32.5526 384.917 32.9717 385.112 33.3379C385.316 33.696 385.576 33.9767 385.894 34.1802C386.219 34.3755 386.614 34.4731 387.078 34.4731C387.68 34.4731 388.176 34.3389 388.567 34.0703C388.958 33.7936 389.255 33.4152 389.458 32.9351C389.67 32.4549 389.792 31.9015 389.824 31.2749V29.6758C389.8 29.1631 389.727 28.7033 389.604 28.2964C389.491 27.8813 389.32 27.5273 389.092 27.2344C388.872 26.9414 388.595 26.7135 388.262 26.5508C387.936 26.388 387.55 26.3066 387.102 26.3066C386.646 26.3066 386.256 26.4124 385.93 26.624C385.605 26.8275 385.34 27.1082 385.137 27.4663C384.941 27.8244 384.795 28.2476 384.697 28.7358C384.608 29.216 384.563 29.7368 384.563 30.2983ZM401.763 37.2441C400.737 37.2441 399.818 37.0814 399.004 36.7559C398.19 36.4222 397.498 35.9624 396.929 35.3765C396.367 34.7905 395.936 34.111 395.635 33.3379C395.334 32.5566 395.183 31.7266 395.183 30.8477V30.3594C395.183 29.3584 395.326 28.4429 395.61 27.6128C395.895 26.7827 396.302 26.0625 396.831 25.4521C397.368 24.8418 398.019 24.3739 398.784 24.0483C399.549 23.7147 400.412 23.5479 401.372 23.5479C402.308 23.5479 403.138 23.7025 403.862 24.0117C404.587 24.321 405.193 24.7604 405.681 25.3301C406.178 25.8997 406.552 26.5833 406.804 27.3809C407.056 28.1702 407.183 29.0492 407.183 30.0176V31.4824H396.685V29.1387H403.728V28.8701C403.728 28.3818 403.639 27.9465 403.459 27.564C403.289 27.1733 403.028 26.8641 402.678 26.6362C402.328 26.4084 401.881 26.2944 401.335 26.2944C400.872 26.2944 400.473 26.3962 400.139 26.5996C399.806 26.8031 399.533 27.0879 399.321 27.4541C399.118 27.8203 398.963 28.2516 398.857 28.748C398.76 29.2363 398.711 29.7734 398.711 30.3594V30.8477C398.711 31.3766 398.784 31.8649 398.931 32.3125C399.085 32.7601 399.301 33.1466 399.578 33.4722C399.862 33.7977 400.204 34.05 400.603 34.229C401.01 34.408 401.47 34.4976 401.982 34.4976C402.617 34.4976 403.207 34.3755 403.752 34.1313C404.306 33.8791 404.782 33.5007 405.181 32.9961L406.89 34.8516C406.613 35.2503 406.235 35.6328 405.754 35.999C405.282 36.3652 404.713 36.6663 404.045 36.9023C403.378 37.1302 402.617 37.2441 401.763 37.2441ZM413.506 34.4365L416.436 23.792H420.11L415.654 37H413.433L413.506 34.4365ZM411.492 23.792L414.434 34.4487L414.495 37H412.261L407.805 23.792H411.492ZM427.593 37.2441C426.567 37.2441 425.648 37.0814 424.834 36.7559C424.02 36.4222 423.328 35.9624 422.759 35.3765C422.197 34.7905 421.766 34.111 421.465 33.3379C421.164 32.5566 421.013 31.7266 421.013 30.8477V30.3594C421.013 29.3584 421.156 28.4429 421.44 27.6128C421.725 26.7827 422.132 26.0625 422.661 25.4521C423.198 24.8418 423.849 24.3739 424.614 24.0483C425.379 23.7147 426.242 23.5479 427.202 23.5479C428.138 23.5479 428.968 23.7025 429.692 24.0117C430.417 24.321 431.023 24.7604 431.511 25.3301C432.008 25.8997 432.382 26.5833 432.634 27.3809C432.887 28.1702 433.013 29.0492 433.013 30.0176V31.4824H422.515V29.1387H429.558V28.8701C429.558 28.3818 429.469 27.9465 429.29 27.564C429.119 27.1733 428.858 26.8641 428.508 26.6362C428.158 26.4084 427.711 26.2944 427.166 26.2944C426.702 26.2944 426.303 26.3962 425.969 26.5996C425.636 26.8031 425.363 27.0879 425.151 27.4541C424.948 27.8203 424.793 28.2516 424.688 28.748C424.59 29.2363 424.541 29.7734 424.541 30.3594V30.8477C424.541 31.3766 424.614 31.8649 424.761 32.3125C424.915 32.7601 425.131 33.1466 425.408 33.4722C425.693 33.7977 426.034 34.05 426.433 34.229C426.84 34.408 427.3 34.4976 427.812 34.4976C428.447 34.4976 429.037 34.3755 429.583 34.1313C430.136 33.8791 430.612 33.5007 431.011 32.9961L432.72 34.8516C432.443 35.2503 432.065 35.6328 431.584 35.999C431.112 36.3652 430.543 36.6663 429.875 36.9023C429.208 37.1302 428.447 37.2441 427.593 37.2441ZM438.726 18.25V37H435.198V18.25H438.726ZM441.069 30.5303V30.2739C441.069 29.3055 441.208 28.4144 441.484 27.6006C441.761 26.7786 442.164 26.0666 442.693 25.4644C443.222 24.8621 443.873 24.3942 444.646 24.0605C445.419 23.7188 446.306 23.5479 447.307 23.5479C448.308 23.5479 449.199 23.7188 449.98 24.0605C450.762 24.3942 451.417 24.8621 451.946 25.4644C452.483 26.0666 452.89 26.7786 453.167 27.6006C453.443 28.4144 453.582 29.3055 453.582 30.2739V30.5303C453.582 31.4906 453.443 32.3817 453.167 33.2036C452.89 34.0174 452.483 34.7295 451.946 35.3398C451.417 35.9421 450.766 36.41 449.993 36.7437C449.22 37.0773 448.333 37.2441 447.332 37.2441C446.331 37.2441 445.439 37.0773 444.658 36.7437C443.885 36.41 443.23 35.9421 442.693 35.3398C442.164 34.7295 441.761 34.0174 441.484 33.2036C441.208 32.3817 441.069 31.4906 441.069 30.5303ZM444.585 30.2739V30.5303C444.585 31.0837 444.634 31.6004 444.731 32.0806C444.829 32.5607 444.984 32.9839 445.195 33.3501C445.415 33.7082 445.7 33.9889 446.05 34.1924C446.4 34.3958 446.827 34.4976 447.332 34.4976C447.82 34.4976 448.239 34.3958 448.589 34.1924C448.939 33.9889 449.22 33.7082 449.431 33.3501C449.643 32.9839 449.797 32.5607 449.895 32.0806C450.001 31.6004 450.054 31.0837 450.054 30.5303V30.2739C450.054 29.7368 450.001 29.2323 449.895 28.7603C449.797 28.2801 449.639 27.8569 449.419 27.4907C449.207 27.1164 448.927 26.8234 448.577 26.6118C448.227 26.4002 447.804 26.2944 447.307 26.2944C446.811 26.2944 446.388 26.4002 446.038 26.6118C445.696 26.8234 445.415 27.1164 445.195 27.4907C444.984 27.8569 444.829 28.2801 444.731 28.7603C444.634 29.2323 444.585 29.7368 444.585 30.2739ZM459.258 26.3311V42.0781H455.742V23.792H459.001L459.258 26.3311ZM467.62 30.2495V30.5059C467.62 31.4661 467.506 32.3573 467.278 33.1792C467.058 34.0011 466.733 34.7173 466.301 35.3276C465.87 35.9299 465.333 36.4019 464.69 36.7437C464.055 37.0773 463.323 37.2441 462.493 37.2441C461.687 37.2441 460.987 37.0814 460.393 36.7559C459.799 36.4303 459.299 35.9746 458.892 35.3887C458.493 34.7946 458.171 34.1069 457.927 33.3257C457.683 32.5444 457.496 31.7062 457.366 30.811V30.1396C457.496 29.1794 457.683 28.3005 457.927 27.5029C458.171 26.6973 458.493 26.0015 458.892 25.4155C459.299 24.8215 459.795 24.3617 460.381 24.0361C460.975 23.7106 461.671 23.5479 462.468 23.5479C463.306 23.5479 464.043 23.7065 464.678 24.0239C465.321 24.3413 465.858 24.797 466.289 25.3911C466.729 25.9852 467.058 26.6932 467.278 27.5151C467.506 28.3371 467.62 29.2485 467.62 30.2495ZM464.092 30.5059V30.2495C464.092 29.688 464.043 29.1712 463.945 28.6992C463.856 28.2191 463.709 27.8 463.506 27.4419C463.311 27.0838 463.05 26.8071 462.725 26.6118C462.407 26.4084 462.021 26.3066 461.565 26.3066C461.085 26.3066 460.674 26.384 460.332 26.5386C459.998 26.6932 459.726 26.917 459.514 27.21C459.303 27.5029 459.144 27.8529 459.038 28.2598C458.932 28.6667 458.867 29.1265 458.843 29.6392V31.3359C458.883 31.9382 458.997 32.4793 459.185 32.9595C459.372 33.4315 459.661 33.8058 460.051 34.0825C460.442 34.3592 460.955 34.4976 461.589 34.4976C462.053 34.4976 462.444 34.3958 462.761 34.1924C463.079 33.9808 463.335 33.6919 463.53 33.3257C463.734 32.9595 463.876 32.5363 463.958 32.0562C464.047 31.576 464.092 31.0592 464.092 30.5059ZM475.884 37.2441C474.858 37.2441 473.939 37.0814 473.125 36.7559C472.311 36.4222 471.619 35.9624 471.05 35.3765C470.488 34.7905 470.057 34.111 469.756 33.3379C469.455 32.5566 469.304 31.7266 469.304 30.8477V30.3594C469.304 29.3584 469.447 28.4429 469.731 27.6128C470.016 26.7827 470.423 26.0625 470.952 25.4521C471.489 24.8418 472.14 24.3739 472.905 24.0483C473.67 23.7147 474.533 23.5479 475.493 23.5479C476.429 23.5479 477.259 23.7025 477.983 24.0117C478.708 24.321 479.314 24.7604 479.802 25.3301C480.299 25.8997 480.673 26.5833 480.925 27.3809C481.178 28.1702 481.304 29.0492 481.304 30.0176V31.4824H470.806V29.1387H477.849V28.8701C477.849 28.3818 477.76 27.9465 477.581 27.564C477.41 27.1733 477.149 26.8641 476.799 26.6362C476.449 26.4084 476.002 26.2944 475.457 26.2944C474.993 26.2944 474.594 26.3962 474.26 26.5996C473.927 26.8031 473.654 27.0879 473.442 27.4541C473.239 27.8203 473.084 28.2516 472.979 28.748C472.881 29.2363 472.832 29.7734 472.832 30.3594V30.8477C472.832 31.3766 472.905 31.8649 473.052 32.3125C473.206 32.7601 473.422 33.1466 473.699 33.4722C473.984 33.7977 474.325 34.05 474.724 34.229C475.131 34.408 475.591 34.4976 476.104 34.4976C476.738 34.4976 477.328 34.3755 477.874 34.1313C478.427 33.8791 478.903 33.5007 479.302 32.9961L481.011 34.8516C480.734 35.2503 480.356 35.6328 479.875 35.999C479.403 36.3652 478.834 36.6663 478.167 36.9023C477.499 37.1302 476.738 37.2441 475.884 37.2441ZM486.821 26.6729V37H483.306V23.792H486.614L486.821 26.6729ZM490.801 23.7065L490.74 26.9658C490.569 26.9414 490.361 26.9211 490.117 26.9048C489.881 26.8804 489.666 26.8682 489.47 26.8682C488.974 26.8682 488.542 26.9333 488.176 27.0635C487.818 27.1855 487.517 27.3687 487.273 27.6128C487.037 27.8569 486.858 28.154 486.736 28.5039C486.622 28.8538 486.557 29.2526 486.541 29.7002L485.833 29.4805C485.833 28.626 485.918 27.8407 486.089 27.1245C486.26 26.4002 486.508 25.7695 486.833 25.2324C487.167 24.6953 487.574 24.2803 488.054 23.9873C488.534 23.6943 489.084 23.5479 489.702 23.5479C489.897 23.5479 490.097 23.5641 490.3 23.5967C490.504 23.6211 490.671 23.6577 490.801 23.7065ZM502.458 33.582L505.205 23.792H507.439L506.719 27.6372L503.972 37H502.104L502.458 33.582ZM501.067 23.792L503.032 33.5698L503.215 37H501.018L497.673 23.792H501.067ZM509.954 33.4111L511.87 23.792H515.276L511.931 37H509.746L509.954 33.4111ZM507.744 23.792L510.479 33.5088L510.857 37H508.977L506.23 27.6494L505.535 23.792H507.744ZM520.757 23.792V37H517.229V23.792H520.757ZM517.009 20.3496C517.009 19.8369 517.188 19.4137 517.546 19.0801C517.904 18.7464 518.385 18.5796 518.987 18.5796C519.581 18.5796 520.057 18.7464 520.415 19.0801C520.781 19.4137 520.964 19.8369 520.964 20.3496C520.964 20.8623 520.781 21.2855 520.415 21.6191C520.057 21.9528 519.581 22.1196 518.987 22.1196C518.385 22.1196 517.904 21.9528 517.546 21.6191C517.188 21.2855 517.009 20.8623 517.009 20.3496ZM530.132 23.792V26.2822H522.441V23.792H530.132ZM524.346 20.5327H527.861V33.0205C527.861 33.403 527.91 33.696 528.008 33.8994C528.114 34.1029 528.268 34.2453 528.472 34.3267C528.675 34.3999 528.931 34.4365 529.241 34.4365C529.46 34.4365 529.656 34.4284 529.827 34.4121C530.006 34.3877 530.156 34.3633 530.278 34.3389L530.291 36.9268C529.989 37.0244 529.664 37.1017 529.314 37.1587C528.964 37.2157 528.577 37.2441 528.154 37.2441C527.381 37.2441 526.706 37.118 526.128 36.8657C525.558 36.6053 525.119 36.1903 524.81 35.6206C524.5 35.0509 524.346 34.3022 524.346 33.3745V20.5327ZM535.564 18.25V37H532.048V18.25H535.564ZM535.063 29.9321H534.099C534.107 29.0125 534.229 28.1662 534.465 27.3931C534.701 26.6118 535.039 25.9364 535.479 25.3667C535.918 24.7889 536.443 24.3413 537.053 24.0239C537.672 23.7065 538.355 23.5479 539.104 23.5479C539.755 23.5479 540.345 23.6414 540.874 23.8286C541.411 24.0076 541.871 24.3006 542.253 24.7075C542.644 25.1063 542.945 25.6312 543.157 26.2822C543.368 26.9333 543.474 27.7227 543.474 28.6504V37H539.934V28.626C539.934 28.04 539.849 27.5802 539.678 27.2466C539.515 26.9048 539.275 26.6647 538.958 26.5264C538.648 26.3799 538.266 26.3066 537.81 26.3066C537.306 26.3066 536.874 26.4002 536.516 26.5874C536.166 26.7746 535.885 27.035 535.674 27.3687C535.462 27.6942 535.308 28.0767 535.21 28.5161C535.112 28.9556 535.063 29.4276 535.063 29.9321ZM559.502 34.0215V28.1377C559.502 27.7145 559.433 27.3524 559.294 27.0513C559.156 26.742 558.94 26.502 558.647 26.3311C558.363 26.1602 557.992 26.0747 557.537 26.0747C557.146 26.0747 556.808 26.1439 556.523 26.2822C556.239 26.4124 556.019 26.6037 555.864 26.856C555.71 27.1001 555.632 27.389 555.632 27.7227H552.117C552.117 27.1611 552.247 26.6281 552.507 26.1235C552.768 25.619 553.146 25.1755 553.643 24.793C554.139 24.4023 554.729 24.0972 555.413 23.8774C556.104 23.6577 556.877 23.5479 557.732 23.5479C558.757 23.5479 559.669 23.7188 560.466 24.0605C561.264 24.4023 561.89 24.915 562.346 25.5986C562.81 26.2822 563.042 27.1367 563.042 28.1621V33.814C563.042 34.5382 563.087 35.1323 563.176 35.5962C563.266 36.0519 563.396 36.4507 563.567 36.7925V37H560.015C559.844 36.6419 559.714 36.1943 559.624 35.6572C559.543 35.112 559.502 34.5667 559.502 34.0215ZM559.966 28.9556L559.99 30.9453H558.025C557.561 30.9453 557.158 30.9982 556.816 31.104C556.475 31.2098 556.194 31.3604 555.974 31.5557C555.754 31.7428 555.592 31.9626 555.486 32.2148C555.388 32.4671 555.339 32.7438 555.339 33.0449C555.339 33.346 555.409 33.6187 555.547 33.8628C555.685 34.0988 555.885 34.286 556.145 34.4243C556.405 34.5545 556.711 34.6196 557.061 34.6196C557.59 34.6196 558.049 34.5138 558.44 34.3022C558.831 34.0907 559.132 33.8302 559.343 33.521C559.563 33.2118 559.677 32.9188 559.685 32.6421L560.613 34.1313C560.483 34.465 560.304 34.8109 560.076 35.1689C559.856 35.527 559.575 35.8647 559.233 36.1821C558.892 36.4914 558.481 36.7477 558 36.9512C557.52 37.1465 556.951 37.2441 556.292 37.2441C555.453 37.2441 554.692 37.0773 554.009 36.7437C553.333 36.4019 552.796 35.9339 552.397 35.3398C552.007 34.7376 551.812 34.054 551.812 33.2891C551.812 32.5973 551.942 31.9829 552.202 31.4458C552.463 30.9087 552.845 30.457 553.35 30.0908C553.862 29.7165 554.501 29.4357 555.266 29.2485C556.031 29.0532 556.918 28.9556 557.927 28.9556H559.966ZM580.339 23.792H583.525V36.5605C583.525 37.765 583.257 38.7863 582.72 39.6245C582.191 40.4709 581.45 41.1097 580.498 41.541C579.546 41.9805 578.439 42.2002 577.178 42.2002C576.624 42.2002 576.038 42.127 575.42 41.9805C574.81 41.834 574.224 41.6061 573.662 41.2969C573.109 40.9876 572.645 40.597 572.271 40.125L573.821 38.0498C574.228 38.5218 574.7 38.888 575.237 39.1484C575.774 39.417 576.368 39.5513 577.019 39.5513C577.654 39.5513 578.191 39.4333 578.63 39.1973C579.07 38.9694 579.408 38.6317 579.644 38.1841C579.88 37.7446 579.998 37.2116 579.998 36.585V26.8438L580.339 23.792ZM571.453 30.5547V30.2983C571.453 29.2892 571.575 28.3737 571.819 27.5518C572.071 26.7217 572.425 26.0096 572.881 25.4155C573.345 24.8215 573.906 24.3617 574.565 24.0361C575.225 23.7106 575.969 23.5479 576.799 23.5479C577.678 23.5479 578.415 23.7106 579.009 24.0361C579.603 24.3617 580.091 24.8255 580.474 25.4277C580.856 26.0218 581.153 26.7257 581.365 27.5396C581.584 28.3452 581.755 29.2282 581.877 30.1885V30.75C581.755 31.6696 581.572 32.5241 581.328 33.3135C581.084 34.1029 580.763 34.7946 580.364 35.3887C579.965 35.9746 579.469 36.4303 578.875 36.7559C578.289 37.0814 577.589 37.2441 576.775 37.2441C575.961 37.2441 575.225 37.0773 574.565 36.7437C573.914 36.41 573.357 35.9421 572.893 35.3398C572.429 34.7376 572.071 34.0296 571.819 33.2158C571.575 32.402 571.453 31.515 571.453 30.5547ZM574.968 30.2983V30.5547C574.968 31.0999 575.021 31.6086 575.127 32.0806C575.233 32.5526 575.396 32.9717 575.615 33.3379C575.843 33.696 576.124 33.9767 576.458 34.1802C576.799 34.3755 577.202 34.4731 577.666 34.4731C578.309 34.4731 578.834 34.3389 579.241 34.0703C579.648 33.7936 579.953 33.4152 580.156 32.9351C580.36 32.4549 580.478 31.9015 580.51 31.2749V29.6758C580.494 29.1631 580.425 28.7033 580.303 28.2964C580.181 27.8813 580.01 27.5273 579.79 27.2344C579.57 26.9414 579.285 26.7135 578.936 26.5508C578.586 26.388 578.171 26.3066 577.69 26.3066C577.227 26.3066 576.824 26.4124 576.482 26.624C576.148 26.8275 575.868 27.1082 575.64 27.4663C575.42 27.8244 575.253 28.2476 575.139 28.7358C575.025 29.216 574.968 29.7368 574.968 30.2983ZM585.698 30.5303V30.2739C585.698 29.3055 585.837 28.4144 586.113 27.6006C586.39 26.7786 586.793 26.0666 587.322 25.4644C587.851 24.8621 588.502 24.3942 589.275 24.0605C590.048 23.7188 590.935 23.5479 591.936 23.5479C592.937 23.5479 593.828 23.7188 594.609 24.0605C595.391 24.3942 596.046 24.8621 596.575 25.4644C597.112 26.0666 597.519 26.7786 597.795 27.6006C598.072 28.4144 598.21 29.3055 598.21 30.2739V30.5303C598.21 31.4906 598.072 32.3817 597.795 33.2036C597.519 34.0174 597.112 34.7295 596.575 35.3398C596.046 35.9421 595.395 36.41 594.622 36.7437C593.848 37.0773 592.961 37.2441 591.96 37.2441C590.959 37.2441 590.068 37.0773 589.287 36.7437C588.514 36.41 587.859 35.9421 587.322 35.3398C586.793 34.7295 586.39 34.0174 586.113 33.2036C585.837 32.3817 585.698 31.4906 585.698 30.5303ZM589.214 30.2739V30.5303C589.214 31.0837 589.263 31.6004 589.36 32.0806C589.458 32.5607 589.613 32.9839 589.824 33.3501C590.044 33.7082 590.329 33.9889 590.679 34.1924C591.029 34.3958 591.456 34.4976 591.96 34.4976C592.449 34.4976 592.868 34.3958 593.218 34.1924C593.568 33.9889 593.848 33.7082 594.06 33.3501C594.272 32.9839 594.426 32.5607 594.524 32.0806C594.63 31.6004 594.683 31.0837 594.683 30.5303V30.2739C594.683 29.7368 594.63 29.2323 594.524 28.7603C594.426 28.2801 594.268 27.8569 594.048 27.4907C593.836 27.1164 593.556 26.8234 593.206 26.6118C592.856 26.4002 592.432 26.2944 591.936 26.2944C591.44 26.2944 591.016 26.4002 590.667 26.6118C590.325 26.8234 590.044 27.1164 589.824 27.4907C589.613 27.8569 589.458 28.2801 589.36 28.7603C589.263 29.2323 589.214 29.7368 589.214 30.2739ZM599.81 30.5303V30.2739C599.81 29.3055 599.948 28.4144 600.225 27.6006C600.501 26.7786 600.904 26.0666 601.433 25.4644C601.962 24.8621 602.613 24.3942 603.386 24.0605C604.159 23.7188 605.046 23.5479 606.047 23.5479C607.048 23.5479 607.939 23.7188 608.721 24.0605C609.502 24.3942 610.157 24.8621 610.686 25.4644C611.223 26.0666 611.63 26.7786 611.907 27.6006C612.183 28.4144 612.322 29.3055 612.322 30.2739V30.5303C612.322 31.4906 612.183 32.3817 611.907 33.2036C611.63 34.0174 611.223 34.7295 610.686 35.3398C610.157 35.9421 609.506 36.41 608.733 36.7437C607.96 37.0773 607.073 37.2441 606.072 37.2441C605.071 37.2441 604.18 37.0773 603.398 36.7437C602.625 36.41 601.97 35.9421 601.433 35.3398C600.904 34.7295 600.501 34.0174 600.225 33.2036C599.948 32.3817 599.81 31.4906 599.81 30.5303ZM603.325 30.2739V30.5303C603.325 31.0837 603.374 31.6004 603.472 32.0806C603.569 32.5607 603.724 32.9839 603.936 33.3501C604.155 33.7082 604.44 33.9889 604.79 34.1924C605.14 34.3958 605.567 34.4976 606.072 34.4976C606.56 34.4976 606.979 34.3958 607.329 34.1924C607.679 33.9889 607.96 33.7082 608.171 33.3501C608.383 32.9839 608.538 32.5607 608.635 32.0806C608.741 31.6004 608.794 31.0837 608.794 30.5303V30.2739C608.794 29.7368 608.741 29.2323 608.635 28.7603C608.538 28.2801 608.379 27.8569 608.159 27.4907C607.948 27.1164 607.667 26.8234 607.317 26.6118C606.967 26.4002 606.544 26.2944 606.047 26.2944C605.551 26.2944 605.128 26.4002 604.778 26.6118C604.436 26.8234 604.155 27.1164 603.936 27.4907C603.724 27.8569 603.569 28.2801 603.472 28.7603C603.374 29.2323 603.325 29.7368 603.325 30.2739ZM622.283 34.1191V18.25H625.823V37H622.637L622.283 34.1191ZM613.933 30.5547V30.2983C613.933 29.2892 614.047 28.3737 614.275 27.5518C614.503 26.7217 614.836 26.0096 615.276 25.4155C615.715 24.8215 616.257 24.3617 616.899 24.0361C617.542 23.7106 618.275 23.5479 619.097 23.5479C619.87 23.5479 620.545 23.7106 621.123 24.0361C621.709 24.3617 622.205 24.8255 622.612 25.4277C623.027 26.0218 623.361 26.7257 623.613 27.5396C623.866 28.3452 624.049 29.2282 624.163 30.1885V30.75C624.049 31.6696 623.866 32.5241 623.613 33.3135C623.361 34.1029 623.027 34.7946 622.612 35.3887C622.205 35.9746 621.709 36.4303 621.123 36.7559C620.537 37.0814 619.854 37.2441 619.072 37.2441C618.25 37.2441 617.518 37.0773 616.875 36.7437C616.24 36.41 615.703 35.9421 615.264 35.3398C614.832 34.7376 614.503 34.0296 614.275 33.2158C614.047 32.402 613.933 31.515 613.933 30.5547ZM617.449 30.2983V30.5547C617.449 31.0999 617.489 31.6086 617.571 32.0806C617.66 32.5526 617.803 32.9717 617.998 33.3379C618.201 33.696 618.462 33.9767 618.779 34.1802C619.105 34.3755 619.5 34.4731 619.963 34.4731C620.566 34.4731 621.062 34.3389 621.453 34.0703C621.843 33.7936 622.14 33.4152 622.344 32.9351C622.555 32.4549 622.677 31.9015 622.71 31.2749V29.6758C622.686 29.1631 622.612 28.7033 622.49 28.2964C622.376 27.8813 622.205 27.5273 621.978 27.2344C621.758 26.9414 621.481 26.7135 621.147 26.5508C620.822 26.388 620.435 26.3066 619.988 26.3066C619.532 26.3066 619.141 26.4124 618.816 26.624C618.49 26.8275 618.226 27.1082 618.022 27.4663C617.827 27.8244 617.681 28.2476 617.583 28.7358C617.493 29.216 617.449 29.7368 617.449 30.2983ZM638.506 23.792V37H634.978V23.792H638.506ZM634.758 20.3496C634.758 19.8369 634.937 19.4137 635.295 19.0801C635.653 18.7464 636.134 18.5796 636.736 18.5796C637.33 18.5796 637.806 18.7464 638.164 19.0801C638.53 19.4137 638.713 19.8369 638.713 20.3496C638.713 20.8623 638.53 21.2855 638.164 21.6191C637.806 21.9528 637.33 22.1196 636.736 22.1196C636.134 22.1196 635.653 21.9528 635.295 21.6191C634.937 21.2855 634.758 20.8623 634.758 20.3496ZM644.854 26.6118V37H641.338V23.792H644.634L644.854 26.6118ZM644.341 29.9321H643.389C643.389 28.9556 643.515 28.0767 643.767 27.2954C644.019 26.506 644.373 25.8346 644.829 25.2812C645.285 24.7197 645.826 24.2925 646.453 23.9995C647.087 23.6984 647.795 23.5479 648.577 23.5479C649.195 23.5479 649.761 23.6374 650.273 23.8164C650.786 23.9954 651.226 24.2803 651.592 24.6709C651.966 25.0615 652.251 25.5783 652.446 26.2212C652.65 26.8641 652.751 27.6494 652.751 28.5771V37H649.211V28.5649C649.211 27.979 649.13 27.5233 648.967 27.1978C648.805 26.8722 648.564 26.6444 648.247 26.5142C647.938 26.3758 647.555 26.3066 647.1 26.3066C646.628 26.3066 646.217 26.4002 645.867 26.5874C645.525 26.7746 645.24 27.035 645.012 27.3687C644.792 27.6942 644.626 28.0767 644.512 28.5161C644.398 28.9556 644.341 29.4276 644.341 29.9321ZM659.905 37H656.365V22.7788C656.365 21.7453 656.58 20.8745 657.012 20.1665C657.443 19.4504 658.066 18.9092 658.879 18.543C659.693 18.1768 660.674 17.9937 661.821 17.9937C662.301 17.9937 662.9 18.0181 663.616 18.0669C664.34 18.1076 665.076 18.1605 665.825 18.2256C666.582 18.2826 667.245 18.3436 667.815 18.4087L666.35 21.1797C665.618 21.0495 664.914 20.9478 664.238 20.8745C663.563 20.8013 662.92 20.7646 662.31 20.7646C661.789 20.7646 661.349 20.842 660.991 20.9966C660.633 21.1512 660.361 21.3791 660.173 21.6802C659.994 21.9731 659.905 22.3394 659.905 22.7788V37ZM664.299 37V18.4087H667.815V37H664.299ZM662.542 23.792V26.2822H654.399V23.792H662.542ZM678.569 33.8384V23.792H682.085V37H678.777L678.569 33.8384ZM678.96 31.1284L679.998 31.104C679.998 31.9829 679.896 32.8008 679.692 33.5576C679.489 34.3063 679.184 34.9574 678.777 35.5107C678.37 36.056 677.857 36.4832 677.239 36.7925C676.62 37.0936 675.892 37.2441 675.054 37.2441C674.411 37.2441 673.817 37.1546 673.271 36.9756C672.734 36.7884 672.271 36.4995 671.88 36.1089C671.497 35.7101 671.196 35.2015 670.977 34.583C670.765 33.9564 670.659 33.2036 670.659 32.3247V23.792H674.175V32.3491C674.175 32.7397 674.22 33.0693 674.309 33.3379C674.407 33.6064 674.541 33.8262 674.712 33.9971C674.883 34.168 675.082 34.29 675.31 34.3633C675.546 34.4365 675.806 34.4731 676.091 34.4731C676.816 34.4731 677.385 34.3267 677.8 34.0337C678.223 33.7407 678.521 33.342 678.691 32.8374C678.87 32.3247 678.96 31.755 678.96 31.1284ZM690.85 37.2441C689.824 37.2441 688.905 37.0814 688.091 36.7559C687.277 36.4222 686.585 35.9624 686.016 35.3765C685.454 34.7905 685.023 34.111 684.722 33.3379C684.421 32.5566 684.27 31.7266 684.27 30.8477V30.3594C684.27 29.3584 684.412 28.4429 684.697 27.6128C684.982 26.7827 685.389 26.0625 685.918 25.4521C686.455 24.8418 687.106 24.3739 687.871 24.0483C688.636 23.7147 689.499 23.5479 690.459 23.5479C691.395 23.5479 692.225 23.7025 692.949 24.0117C693.674 24.321 694.28 24.7604 694.768 25.3301C695.264 25.8997 695.639 26.5833 695.891 27.3809C696.143 28.1702 696.27 29.0492 696.27 30.0176V31.4824H685.771V29.1387H692.815V28.8701C692.815 28.3818 692.725 27.9465 692.546 27.564C692.375 27.1733 692.115 26.8641 691.765 26.6362C691.415 26.4084 690.968 26.2944 690.422 26.2944C689.958 26.2944 689.56 26.3962 689.226 26.5996C688.892 26.8031 688.62 27.0879 688.408 27.4541C688.205 27.8203 688.05 28.2516 687.944 28.748C687.847 29.2363 687.798 29.7734 687.798 30.3594V30.8477C687.798 31.3766 687.871 31.8649 688.018 32.3125C688.172 32.7601 688.388 33.1466 688.665 33.4722C688.949 33.7977 689.291 34.05 689.69 34.229C690.097 34.408 690.557 34.4976 691.069 34.4976C691.704 34.4976 692.294 34.3755 692.839 34.1313C693.393 33.8791 693.869 33.5007 694.268 32.9961L695.977 34.8516C695.7 35.2503 695.321 35.6328 694.841 35.999C694.369 36.3652 693.8 36.6663 693.132 36.9023C692.465 37.1302 691.704 37.2441 690.85 37.2441ZM701.714 26.6118V37H698.198V23.792H701.494L701.714 26.6118ZM701.201 29.9321H700.249C700.249 28.9556 700.375 28.0767 700.627 27.2954C700.88 26.506 701.234 25.8346 701.689 25.2812C702.145 24.7197 702.686 24.2925 703.313 23.9995C703.948 23.6984 704.656 23.5479 705.437 23.5479C706.056 23.5479 706.621 23.6374 707.134 23.8164C707.646 23.9954 708.086 24.2803 708.452 24.6709C708.826 25.0615 709.111 25.5783 709.307 26.2212C709.51 26.8641 709.612 27.6494 709.612 28.5771V37H706.072V28.5649C706.072 27.979 705.99 27.5233 705.828 27.1978C705.665 26.8722 705.425 26.6444 705.107 26.5142C704.798 26.3758 704.416 26.3066 703.96 26.3066C703.488 26.3066 703.077 26.4002 702.727 26.5874C702.385 26.7746 702.1 27.035 701.873 27.3687C701.653 27.6942 701.486 28.0767 701.372 28.5161C701.258 28.9556 701.201 29.4276 701.201 29.9321ZM717.742 34.4976C718.173 34.4976 718.556 34.4162 718.889 34.2534C719.223 34.0825 719.483 33.8465 719.67 33.5454C719.866 33.2362 719.967 32.874 719.976 32.459H723.284C723.276 33.3867 723.027 34.2127 722.539 34.937C722.051 35.6532 721.396 36.2188 720.574 36.6338C719.752 37.0407 718.832 37.2441 717.815 37.2441C716.79 37.2441 715.894 37.0732 715.129 36.7314C714.373 36.3896 713.742 35.9176 713.237 35.3154C712.733 34.7051 712.354 33.9971 712.102 33.1914C711.85 32.3776 711.724 31.5068 711.724 30.5791V30.2251C711.724 29.2892 711.85 28.4185 712.102 27.6128C712.354 26.799 712.733 26.091 713.237 25.4888C713.742 24.8784 714.373 24.4023 715.129 24.0605C715.886 23.7188 716.773 23.5479 717.791 23.5479C718.873 23.5479 719.821 23.7554 720.635 24.1704C721.457 24.5854 722.1 25.1795 722.563 25.9526C723.035 26.7176 723.276 27.625 723.284 28.6748H719.976C719.967 28.2354 719.874 27.8366 719.695 27.4785C719.524 27.1204 719.272 26.8356 718.938 26.624C718.612 26.4043 718.21 26.2944 717.729 26.2944C717.217 26.2944 716.798 26.4043 716.472 26.624C716.147 26.8356 715.894 27.1286 715.715 27.5029C715.536 27.8691 715.41 28.2882 715.337 28.7603C715.272 29.2241 715.239 29.7124 715.239 30.2251V30.5791C715.239 31.0918 715.272 31.5841 715.337 32.0562C715.402 32.5282 715.524 32.9473 715.703 33.3135C715.89 33.6797 716.147 33.9686 716.472 34.1802C716.798 34.3918 717.221 34.4976 717.742 34.4976ZM731.401 37.2441C730.376 37.2441 729.456 37.0814 728.643 36.7559C727.829 36.4222 727.137 35.9624 726.567 35.3765C726.006 34.7905 725.575 34.111 725.273 33.3379C724.972 32.5566 724.822 31.7266 724.822 30.8477V30.3594C724.822 29.3584 724.964 28.4429 725.249 27.6128C725.534 26.7827 725.941 26.0625 726.47 25.4521C727.007 24.8418 727.658 24.3739 728.423 24.0483C729.188 23.7147 730.05 23.5479 731.011 23.5479C731.947 23.5479 732.777 23.7025 733.501 24.0117C734.225 24.321 734.832 24.7604 735.32 25.3301C735.816 25.8997 736.191 26.5833 736.443 27.3809C736.695 28.1702 736.821 29.0492 736.821 30.0176V31.4824H726.323V29.1387H733.367V28.8701C733.367 28.3818 733.277 27.9465 733.098 27.564C732.927 27.1733 732.667 26.8641 732.317 26.6362C731.967 26.4084 731.519 26.2944 730.974 26.2944C730.51 26.2944 730.111 26.3962 729.778 26.5996C729.444 26.8031 729.172 27.0879 728.96 27.4541C728.757 27.8203 728.602 28.2516 728.496 28.748C728.398 29.2363 728.35 29.7734 728.35 30.3594V30.8477C728.35 31.3766 728.423 31.8649 728.569 32.3125C728.724 32.7601 728.94 33.1466 729.216 33.4722C729.501 33.7977 729.843 34.05 730.242 34.229C730.649 34.408 731.108 34.4976 731.621 34.4976C732.256 34.4976 732.846 34.3755 733.391 34.1313C733.944 33.8791 734.421 33.5007 734.819 32.9961L736.528 34.8516C736.252 35.2503 735.873 35.6328 735.393 35.999C734.921 36.3652 734.351 36.6663 733.684 36.9023C733.017 37.1302 732.256 37.2441 731.401 37.2441ZM738.994 35.3032C738.994 34.7824 739.173 34.347 739.531 33.9971C739.897 33.6471 740.382 33.4722 740.984 33.4722C741.586 33.4722 742.066 33.6471 742.424 33.9971C742.791 34.347 742.974 34.7824 742.974 35.3032C742.974 35.8241 742.791 36.2594 742.424 36.6094C742.066 36.9593 741.586 37.1343 740.984 37.1343C740.382 37.1343 739.897 36.9593 739.531 36.6094C739.173 36.2594 738.994 35.8241 738.994 35.3032Z" fill="black"/>
</svg>
