<svg width="846" height="59" viewBox="0 0 846 59" fill="none" xmlns="http://www.w3.org/2000/svg">
<rect width="846" height="59" fill="white"/>
<path d="M25.8716 34.1802L29.4116 19.2266H31.3892L31.8408 21.7168L28.0688 37H25.9448L25.8716 34.1802ZM24.0527 19.2266L26.9824 34.1802L26.7383 37H24.3701L20.4272 19.2266H24.0527ZM34.9536 34.1191L37.8467 19.2266H41.4722L37.5415 37H35.1733L34.9536 34.1191ZM32.5 19.2266L36.0645 34.2412L35.9668 37H33.8428L30.0464 21.7046L30.5347 19.2266H32.5ZM48.9307 37.2441C47.9053 37.2441 46.9857 37.0814 46.1719 36.7559C45.3581 36.4222 44.6663 35.9624 44.0967 35.3765C43.5352 34.7905 43.1038 34.111 42.8027 33.3379C42.5016 32.5566 42.3511 31.7266 42.3511 30.8477V30.3594C42.3511 29.3584 42.4935 28.4429 42.7783 27.6128C43.0632 26.7827 43.4701 26.0625 43.999 25.4521C44.5361 24.8418 45.1872 24.3739 45.9521 24.0483C46.7171 23.7147 47.5798 23.5479 48.54 23.5479C49.4759 23.5479 50.306 23.7025 51.0303 24.0117C51.7546 24.321 52.3608 24.7604 52.8491 25.3301C53.3455 25.8997 53.7199 26.5833 53.9722 27.3809C54.2244 28.1702 54.3506 29.0492 54.3506 30.0176V31.4824H43.8525V29.1387H50.896V28.8701C50.896 28.3818 50.8065 27.9465 50.6274 27.564C50.4565 27.1733 50.1961 26.8641 49.8462 26.6362C49.4963 26.4084 49.0487 26.2944 48.5034 26.2944C48.0396 26.2944 47.6408 26.3962 47.3071 26.5996C46.9735 26.8031 46.7008 27.0879 46.4893 27.4541C46.2858 27.8203 46.1312 28.2516 46.0254 28.748C45.9277 29.2363 45.8789 29.7734 45.8789 30.3594V30.8477C45.8789 31.3766 45.9521 31.8649 46.0986 32.3125C46.2533 32.7601 46.4689 33.1466 46.7456 33.4722C47.0304 33.7977 47.3722 34.05 47.771 34.229C48.1779 34.408 48.6377 34.4976 49.1504 34.4976C49.7852 34.4976 50.3752 34.3755 50.9204 34.1313C51.4738 33.8791 51.9499 33.5007 52.3486 32.9961L54.0576 34.8516C53.7809 35.2503 53.4025 35.6328 52.9224 35.999C52.4504 36.3652 51.8807 36.6663 51.2134 36.9023C50.5461 37.1302 49.7852 37.2441 48.9307 37.2441ZM60.0635 18.25V37H56.5356V18.25H60.0635ZM68.4253 34.4976C68.8566 34.4976 69.2391 34.4162 69.5728 34.2534C69.9064 34.0825 70.1668 33.8465 70.354 33.5454C70.5493 33.2362 70.651 32.874 70.6592 32.459H73.9673C73.9591 33.3867 73.7109 34.2127 73.2227 34.937C72.7344 35.6532 72.0793 36.2188 71.2573 36.6338C70.4354 37.0407 69.5158 37.2441 68.4985 37.2441C67.4731 37.2441 66.578 37.0732 65.813 36.7314C65.0562 36.3896 64.4255 35.9176 63.9209 35.3154C63.4163 34.7051 63.0379 33.9971 62.7856 33.1914C62.5334 32.3776 62.4072 31.5068 62.4072 30.5791V30.2251C62.4072 29.2892 62.5334 28.4185 62.7856 27.6128C63.0379 26.799 63.4163 26.091 63.9209 25.4888C64.4255 24.8784 65.0562 24.4023 65.813 24.0605C66.5698 23.7188 67.4569 23.5479 68.4741 23.5479C69.5565 23.5479 70.5046 23.7554 71.3184 24.1704C72.1403 24.5854 72.7832 25.1795 73.2471 25.9526C73.7191 26.7176 73.9591 27.625 73.9673 28.6748H70.6592C70.651 28.2354 70.5575 27.8366 70.3784 27.4785C70.2075 27.1204 69.9552 26.8356 69.6216 26.624C69.2961 26.4043 68.8932 26.2944 68.4131 26.2944C67.9004 26.2944 67.4813 26.4043 67.1558 26.624C66.8302 26.8356 66.578 27.1286 66.3989 27.5029C66.2199 27.8691 66.0938 28.2882 66.0205 28.7603C65.9554 29.2241 65.9229 29.7124 65.9229 30.2251V30.5791C65.9229 31.0918 65.9554 31.5841 66.0205 32.0562C66.0856 32.5282 66.2077 32.9473 66.3867 33.3135C66.5739 33.6797 66.8302 33.9686 67.1558 34.1802C67.4813 34.3918 67.9045 34.4976 68.4253 34.4976ZM75.4443 30.5303V30.2739C75.4443 29.3055 75.5827 28.4144 75.8594 27.6006C76.1361 26.7786 76.5389 26.0666 77.0679 25.4644C77.5968 24.8621 78.2479 24.3942 79.021 24.0605C79.7941 23.7188 80.6812 23.5479 81.6821 23.5479C82.6831 23.5479 83.5742 23.7188 84.3555 24.0605C85.1367 24.3942 85.7918 24.8621 86.3208 25.4644C86.8579 26.0666 87.2648 26.7786 87.5415 27.6006C87.8182 28.4144 87.9565 29.3055 87.9565 30.2739V30.5303C87.9565 31.4906 87.8182 32.3817 87.5415 33.2036C87.2648 34.0174 86.8579 34.7295 86.3208 35.3398C85.7918 35.9421 85.1408 36.41 84.3677 36.7437C83.5946 37.0773 82.7075 37.2441 81.7065 37.2441C80.7056 37.2441 79.8145 37.0773 79.0332 36.7437C78.2601 36.41 77.605 35.9421 77.0679 35.3398C76.5389 34.7295 76.1361 34.0174 75.8594 33.2036C75.5827 32.3817 75.4443 31.4906 75.4443 30.5303ZM78.96 30.2739V30.5303C78.96 31.0837 79.0088 31.6004 79.1064 32.0806C79.2041 32.5607 79.3587 32.9839 79.5703 33.3501C79.79 33.7082 80.0749 33.9889 80.4248 34.1924C80.7747 34.3958 81.202 34.4976 81.7065 34.4976C82.1948 34.4976 82.6139 34.3958 82.9639 34.1924C83.3138 33.9889 83.5946 33.7082 83.8062 33.3501C84.0177 32.9839 84.1724 32.5607 84.27 32.0806C84.3758 31.6004 84.4287 31.0837 84.4287 30.5303V30.2739C84.4287 29.7368 84.3758 29.2323 84.27 28.7603C84.1724 28.2801 84.0137 27.8569 83.7939 27.4907C83.5824 27.1164 83.3016 26.8234 82.9517 26.6118C82.6017 26.4002 82.1785 26.2944 81.6821 26.2944C81.1857 26.2944 80.7625 26.4002 80.4126 26.6118C80.0708 26.8234 79.79 27.1164 79.5703 27.4907C79.3587 27.8569 79.2041 28.2801 79.1064 28.7603C79.0088 29.2323 78.96 29.7368 78.96 30.2739ZM93.6328 26.5264V37H90.105V23.792H93.4131L93.6328 26.5264ZM93.1445 29.9321H92.168C92.168 29.0125 92.2778 28.1662 92.4976 27.3931C92.7254 26.6118 93.055 25.9364 93.4863 25.3667C93.9258 24.7889 94.467 24.3413 95.1099 24.0239C95.7528 23.7065 96.4974 23.5479 97.3438 23.5479C97.9297 23.5479 98.4668 23.6374 98.9551 23.8164C99.4434 23.9873 99.8625 24.2599 100.212 24.6343C100.57 25.0005 100.847 25.4806 101.042 26.0747C101.238 26.6606 101.335 27.3646 101.335 28.1865V37H97.8198V28.5771C97.8198 27.9749 97.7384 27.5111 97.5757 27.1855C97.4129 26.86 97.181 26.6322 96.8799 26.502C96.5869 26.3717 96.2329 26.3066 95.8179 26.3066C95.3621 26.3066 94.9634 26.4002 94.6216 26.5874C94.2879 26.7746 94.0112 27.035 93.7915 27.3687C93.5718 27.6942 93.409 28.0767 93.3032 28.5161C93.1974 28.9556 93.1445 29.4276 93.1445 29.9321ZM101.006 29.5293L99.7485 29.688C99.7485 28.8254 99.8543 28.0238 100.066 27.2832C100.286 26.5426 100.607 25.8916 101.03 25.3301C101.462 24.7686 101.995 24.3332 102.629 24.0239C103.264 23.7065 103.997 23.5479 104.827 23.5479C105.461 23.5479 106.039 23.6414 106.56 23.8286C107.081 24.0076 107.524 24.2965 107.891 24.6953C108.265 25.0859 108.55 25.5986 108.745 26.2334C108.949 26.8682 109.05 27.6453 109.05 28.5649V37H105.522V28.5649C105.522 27.9546 105.441 27.4907 105.278 27.1733C105.124 26.8478 104.896 26.624 104.595 26.502C104.302 26.3717 103.952 26.3066 103.545 26.3066C103.122 26.3066 102.751 26.3921 102.434 26.563C102.117 26.7257 101.852 26.9536 101.641 27.2466C101.429 27.5396 101.27 27.8813 101.165 28.272C101.059 28.6545 101.006 29.0736 101.006 29.5293ZM117.852 37.2441C116.826 37.2441 115.907 37.0814 115.093 36.7559C114.279 36.4222 113.587 35.9624 113.018 35.3765C112.456 34.7905 112.025 34.111 111.724 33.3379C111.423 32.5566 111.272 31.7266 111.272 30.8477V30.3594C111.272 29.3584 111.414 28.4429 111.699 27.6128C111.984 26.7827 112.391 26.0625 112.92 25.4521C113.457 24.8418 114.108 24.3739 114.873 24.0483C115.638 23.7147 116.501 23.5479 117.461 23.5479C118.397 23.5479 119.227 23.7025 119.951 24.0117C120.675 24.321 121.282 24.7604 121.77 25.3301C122.266 25.8997 122.641 26.5833 122.893 27.3809C123.145 28.1702 123.271 29.0492 123.271 30.0176V31.4824H112.773V29.1387H119.817V28.8701C119.817 28.3818 119.727 27.9465 119.548 27.564C119.377 27.1733 119.117 26.8641 118.767 26.6362C118.417 26.4084 117.97 26.2944 117.424 26.2944C116.96 26.2944 116.562 26.3962 116.228 26.5996C115.894 26.8031 115.622 27.0879 115.41 27.4541C115.207 27.8203 115.052 28.2516 114.946 28.748C114.849 29.2363 114.8 29.7734 114.8 30.3594V30.8477C114.8 31.3766 114.873 31.8649 115.02 32.3125C115.174 32.7601 115.39 33.1466 115.667 33.4722C115.951 33.7977 116.293 34.05 116.692 34.229C117.099 34.408 117.559 34.4976 118.071 34.4976C118.706 34.4976 119.296 34.3755 119.841 34.1313C120.395 33.8791 120.871 33.5007 121.27 32.9961L122.979 34.8516C122.702 35.2503 122.323 35.6328 121.843 35.999C121.371 36.3652 120.802 36.6663 120.134 36.9023C119.467 37.1302 118.706 37.2441 117.852 37.2441ZM137.969 23.792V26.2822H130.278V23.792H137.969ZM132.183 20.5327H135.698V33.0205C135.698 33.403 135.747 33.696 135.845 33.8994C135.951 34.1029 136.105 34.2453 136.309 34.3267C136.512 34.3999 136.768 34.4365 137.078 34.4365C137.297 34.4365 137.493 34.4284 137.664 34.4121C137.843 34.3877 137.993 34.3633 138.115 34.3389L138.127 36.9268C137.826 37.0244 137.501 37.1017 137.151 37.1587C136.801 37.2157 136.414 37.2441 135.991 37.2441C135.218 37.2441 134.543 37.118 133.965 36.8657C133.395 36.6053 132.956 36.1903 132.646 35.6206C132.337 35.0509 132.183 34.3022 132.183 33.3745V20.5327ZM139.092 30.5303V30.2739C139.092 29.3055 139.23 28.4144 139.507 27.6006C139.784 26.7786 140.186 26.0666 140.715 25.4644C141.244 24.8621 141.895 24.3942 142.668 24.0605C143.442 23.7188 144.329 23.5479 145.33 23.5479C146.331 23.5479 147.222 23.7188 148.003 24.0605C148.784 24.3942 149.439 24.8621 149.968 25.4644C150.505 26.0666 150.912 26.7786 151.189 27.6006C151.466 28.4144 151.604 29.3055 151.604 30.2739V30.5303C151.604 31.4906 151.466 32.3817 151.189 33.2036C150.912 34.0174 150.505 34.7295 149.968 35.3398C149.439 35.9421 148.788 36.41 148.015 36.7437C147.242 37.0773 146.355 37.2441 145.354 37.2441C144.353 37.2441 143.462 37.0773 142.681 36.7437C141.908 36.41 141.252 35.9421 140.715 35.3398C140.186 34.7295 139.784 34.0174 139.507 33.2036C139.23 32.3817 139.092 31.4906 139.092 30.5303ZM142.607 30.2739V30.5303C142.607 31.0837 142.656 31.6004 142.754 32.0806C142.852 32.5607 143.006 32.9839 143.218 33.3501C143.438 33.7082 143.722 33.9889 144.072 34.1924C144.422 34.3958 144.849 34.4976 145.354 34.4976C145.842 34.4976 146.261 34.3958 146.611 34.1924C146.961 33.9889 147.242 33.7082 147.454 33.3501C147.665 32.9839 147.82 32.5607 147.917 32.0806C148.023 31.6004 148.076 31.0837 148.076 30.5303V30.2739C148.076 29.7368 148.023 29.2323 147.917 28.7603C147.82 28.2801 147.661 27.8569 147.441 27.4907C147.23 27.1164 146.949 26.8234 146.599 26.6118C146.249 26.4002 145.826 26.2944 145.33 26.2944C144.833 26.2944 144.41 26.4002 144.06 26.6118C143.718 26.8234 143.438 27.1164 143.218 27.4907C143.006 27.8569 142.852 28.2801 142.754 28.7603C142.656 29.2323 142.607 29.7368 142.607 30.2739ZM163.506 26.5264V37H159.978V23.792H163.286L163.506 26.5264ZM163.018 29.9321H162.041C162.041 29.0125 162.151 28.1662 162.371 27.3931C162.598 26.6118 162.928 25.9364 163.359 25.3667C163.799 24.7889 164.34 24.3413 164.983 24.0239C165.626 23.7065 166.37 23.5479 167.217 23.5479C167.803 23.5479 168.34 23.6374 168.828 23.8164C169.316 23.9873 169.736 24.2599 170.085 24.6343C170.444 25.0005 170.72 25.4806 170.916 26.0747C171.111 26.6606 171.208 27.3646 171.208 28.1865V37H167.693V28.5771C167.693 27.9749 167.611 27.5111 167.449 27.1855C167.286 26.86 167.054 26.6322 166.753 26.502C166.46 26.3717 166.106 26.3066 165.691 26.3066C165.235 26.3066 164.836 26.4002 164.495 26.5874C164.161 26.7746 163.884 27.035 163.665 27.3687C163.445 27.6942 163.282 28.0767 163.176 28.5161C163.07 28.9556 163.018 29.4276 163.018 29.9321ZM170.879 29.5293L169.622 29.688C169.622 28.8254 169.727 28.0238 169.939 27.2832C170.159 26.5426 170.48 25.8916 170.903 25.3301C171.335 24.7686 171.868 24.3332 172.502 24.0239C173.137 23.7065 173.87 23.5479 174.7 23.5479C175.334 23.5479 175.912 23.6414 176.433 23.8286C176.954 24.0076 177.397 24.2965 177.764 24.6953C178.138 25.0859 178.423 25.5986 178.618 26.2334C178.822 26.8682 178.923 27.6453 178.923 28.5649V37H175.396V28.5649C175.396 27.9546 175.314 27.4907 175.151 27.1733C174.997 26.8478 174.769 26.624 174.468 26.502C174.175 26.3717 173.825 26.3066 173.418 26.3066C172.995 26.3066 172.625 26.3921 172.307 26.563C171.99 26.7257 171.725 26.9536 171.514 27.2466C171.302 27.5396 171.143 27.8813 171.038 28.272C170.932 28.6545 170.879 29.0736 170.879 29.5293ZM185.564 35.5107L189.067 23.792H192.839L187.529 38.9897C187.415 39.3234 187.261 39.6815 187.065 40.064C186.878 40.4465 186.622 40.8086 186.296 41.1504C185.979 41.5003 185.576 41.7852 185.088 42.0049C184.608 42.2246 184.018 42.3345 183.318 42.3345C182.984 42.3345 182.712 42.3141 182.5 42.2734C182.288 42.2327 182.036 42.1758 181.743 42.1025V39.5269C181.833 39.5269 181.926 39.5269 182.024 39.5269C182.122 39.535 182.215 39.5391 182.305 39.5391C182.769 39.5391 183.147 39.4862 183.44 39.3804C183.733 39.2746 183.969 39.1118 184.148 38.8921C184.327 38.6805 184.469 38.4038 184.575 38.062L185.564 35.5107ZM184.099 23.792L186.968 33.3623L187.468 37.0854L185.076 37.3418L180.327 23.792H184.099ZM208.831 23.792H212.017V36.5605C212.017 37.765 211.748 38.7863 211.211 39.6245C210.682 40.4709 209.941 41.1097 208.989 41.541C208.037 41.9805 206.93 42.2002 205.669 42.2002C205.116 42.2002 204.53 42.127 203.911 41.9805C203.301 41.834 202.715 41.6061 202.153 41.2969C201.6 40.9876 201.136 40.597 200.762 40.125L202.312 38.0498C202.719 38.5218 203.191 38.888 203.728 39.1484C204.265 39.417 204.859 39.5513 205.51 39.5513C206.145 39.5513 206.682 39.4333 207.122 39.1973C207.561 38.9694 207.899 38.6317 208.135 38.1841C208.371 37.7446 208.489 37.2116 208.489 36.585V26.8438L208.831 23.792ZM199.944 30.5547V30.2983C199.944 29.2892 200.066 28.3737 200.31 27.5518C200.562 26.7217 200.916 26.0096 201.372 25.4155C201.836 24.8215 202.397 24.3617 203.057 24.0361C203.716 23.7106 204.46 23.5479 205.291 23.5479C206.169 23.5479 206.906 23.7106 207.5 24.0361C208.094 24.3617 208.582 24.8255 208.965 25.4277C209.347 26.0218 209.644 26.7257 209.856 27.5396C210.076 28.3452 210.247 29.2282 210.369 30.1885V30.75C210.247 31.6696 210.063 32.5241 209.819 33.3135C209.575 34.1029 209.254 34.7946 208.855 35.3887C208.456 35.9746 207.96 36.4303 207.366 36.7559C206.78 37.0814 206.08 37.2441 205.266 37.2441C204.452 37.2441 203.716 37.0773 203.057 36.7437C202.406 36.41 201.848 35.9421 201.384 35.3398C200.92 34.7376 200.562 34.0296 200.31 33.2158C200.066 32.402 199.944 31.515 199.944 30.5547ZM203.459 30.2983V30.5547C203.459 31.0999 203.512 31.6086 203.618 32.0806C203.724 32.5526 203.887 32.9717 204.106 33.3379C204.334 33.696 204.615 33.9767 204.949 34.1802C205.291 34.3755 205.693 34.4731 206.157 34.4731C206.8 34.4731 207.325 34.3389 207.732 34.0703C208.139 33.7936 208.444 33.4152 208.647 32.9351C208.851 32.4549 208.969 31.9015 209.001 31.2749V29.6758C208.985 29.1631 208.916 28.7033 208.794 28.2964C208.672 27.8813 208.501 27.5273 208.281 27.2344C208.062 26.9414 207.777 26.7135 207.427 26.5508C207.077 26.388 206.662 26.3066 206.182 26.3066C205.718 26.3066 205.315 26.4124 204.973 26.624C204.639 26.8275 204.359 27.1082 204.131 27.4663C203.911 27.8244 203.744 28.2476 203.63 28.7358C203.516 29.216 203.459 29.7368 203.459 30.2983ZM218.462 23.792V37H214.934V23.792H218.462ZM214.714 20.3496C214.714 19.8369 214.893 19.4137 215.251 19.0801C215.61 18.7464 216.09 18.5796 216.692 18.5796C217.286 18.5796 217.762 18.7464 218.12 19.0801C218.486 19.4137 218.669 19.8369 218.669 20.3496C218.669 20.8623 218.486 21.2855 218.12 21.6191C217.762 21.9528 217.286 22.1196 216.692 22.1196C216.09 22.1196 215.61 21.9528 215.251 21.6191C214.893 21.2855 214.714 20.8623 214.714 20.3496ZM227.837 23.792V26.2822H220.146V23.792H227.837ZM222.051 20.5327H225.566V33.0205C225.566 33.403 225.615 33.696 225.713 33.8994C225.819 34.1029 225.973 34.2453 226.177 34.3267C226.38 34.3999 226.637 34.4365 226.946 34.4365C227.166 34.4365 227.361 34.4284 227.532 34.4121C227.711 34.3877 227.861 34.3633 227.983 34.3389L227.996 36.9268C227.694 37.0244 227.369 37.1017 227.019 37.1587C226.669 37.2157 226.283 37.2441 225.859 37.2441C225.086 37.2441 224.411 37.118 223.833 36.8657C223.263 36.6053 222.824 36.1903 222.515 35.6206C222.205 35.0509 222.051 34.3022 222.051 33.3745V20.5327ZM233.269 18.25V37H229.753V18.25H233.269ZM232.769 29.9321H231.804C231.812 29.0125 231.934 28.1662 232.17 27.3931C232.406 26.6118 232.744 25.9364 233.184 25.3667C233.623 24.7889 234.148 24.3413 234.758 24.0239C235.377 23.7065 236.06 23.5479 236.809 23.5479C237.46 23.5479 238.05 23.6414 238.579 23.8286C239.116 24.0076 239.576 24.3006 239.958 24.7075C240.349 25.1063 240.65 25.6312 240.862 26.2822C241.073 26.9333 241.179 27.7227 241.179 28.6504V37H237.639V28.626C237.639 28.04 237.554 27.5802 237.383 27.2466C237.22 26.9048 236.98 26.6647 236.663 26.5264C236.353 26.3799 235.971 26.3066 235.515 26.3066C235.011 26.3066 234.579 26.4002 234.221 26.5874C233.871 26.7746 233.59 27.035 233.379 27.3687C233.167 27.6942 233.013 28.0767 232.915 28.5161C232.817 28.9556 232.769 29.4276 232.769 29.9321ZM251.665 33.8384V23.792H255.181V37H251.873L251.665 33.8384ZM252.056 31.1284L253.093 31.104C253.093 31.9829 252.992 32.8008 252.788 33.5576C252.585 34.3063 252.279 34.9574 251.873 35.5107C251.466 36.056 250.953 36.4832 250.334 36.7925C249.716 37.0936 248.988 37.2441 248.149 37.2441C247.507 37.2441 246.912 37.1546 246.367 36.9756C245.83 36.7884 245.366 36.4995 244.976 36.1089C244.593 35.7101 244.292 35.2015 244.072 34.583C243.861 33.9564 243.755 33.2036 243.755 32.3247V23.792H247.271V32.3491C247.271 32.7397 247.315 33.0693 247.405 33.3379C247.502 33.6064 247.637 33.8262 247.808 33.9971C247.979 34.168 248.178 34.29 248.406 34.3633C248.642 34.4365 248.902 34.4731 249.187 34.4731C249.911 34.4731 250.481 34.3267 250.896 34.0337C251.319 33.7407 251.616 33.342 251.787 32.8374C251.966 32.3247 252.056 31.755 252.056 31.1284ZM257.866 18.25H261.382V33.9727L261.028 37H257.866V18.25ZM269.744 30.2617V30.5181C269.744 31.5028 269.638 32.4061 269.426 33.228C269.223 34.05 268.905 34.762 268.474 35.3643C268.043 35.9583 267.506 36.4222 266.863 36.7559C266.228 37.0814 265.479 37.2441 264.617 37.2441C263.811 37.2441 263.111 37.0814 262.517 36.7559C261.931 36.4303 261.439 35.9705 261.04 35.3765C260.641 34.7824 260.32 34.0866 260.076 33.2891C259.832 32.4915 259.648 31.6208 259.526 30.6768V30.1152C259.648 29.1712 259.832 28.3005 260.076 27.5029C260.32 26.7054 260.641 26.0096 261.04 25.4155C261.439 24.8215 261.931 24.3617 262.517 24.0361C263.103 23.7106 263.795 23.5479 264.592 23.5479C265.463 23.5479 266.22 23.7147 266.863 24.0483C267.514 24.3739 268.051 24.8377 268.474 25.4399C268.905 26.034 269.223 26.742 269.426 27.564C269.638 28.3778 269.744 29.277 269.744 30.2617ZM266.228 30.5181V30.2617C266.228 29.7246 266.187 29.2201 266.106 28.748C266.033 28.2679 265.903 27.8488 265.715 27.4907C265.528 27.1245 265.272 26.8356 264.946 26.624C264.629 26.4124 264.218 26.3066 263.713 26.3066C263.233 26.3066 262.826 26.388 262.493 26.5508C262.159 26.7135 261.882 26.9414 261.663 27.2344C261.451 27.5273 261.292 27.8773 261.187 28.2842C261.081 28.6829 261.016 29.1224 260.991 29.6025V31.2017C261.016 31.8446 261.121 32.4142 261.309 32.9106C261.504 33.3989 261.797 33.7855 262.188 34.0703C262.586 34.347 263.103 34.4854 263.738 34.4854C264.234 34.4854 264.645 34.3877 264.971 34.1924C265.296 33.9971 265.549 33.7204 265.728 33.3623C265.915 33.0042 266.045 32.5851 266.118 32.105C266.191 31.6167 266.228 31.0877 266.228 30.5181ZM275.896 19.2266L275.493 31.5679H272.563L272.148 19.2266H275.896ZM272.051 35.3887C272.051 34.8678 272.23 34.4365 272.588 34.0947C272.954 33.7448 273.434 33.5698 274.028 33.5698C274.631 33.5698 275.111 33.7448 275.469 34.0947C275.827 34.4365 276.006 34.8678 276.006 35.3887C276.006 35.8932 275.827 36.3205 275.469 36.6704C275.111 37.0203 274.631 37.1953 274.028 37.1953C273.434 37.1953 272.954 37.0203 272.588 36.6704C272.23 36.3205 272.051 35.8932 272.051 35.3887ZM282.659 19.2266L282.256 31.5679H279.326L278.911 19.2266H282.659ZM278.813 35.3887C278.813 34.8678 278.993 34.4365 279.351 34.0947C279.717 33.7448 280.197 33.5698 280.791 33.5698C281.393 33.5698 281.873 33.7448 282.231 34.0947C282.59 34.4365 282.769 34.8678 282.769 35.3887C282.769 35.8932 282.59 36.3205 282.231 36.6704C281.873 37.0203 281.393 37.1953 280.791 37.1953C280.197 37.1953 279.717 37.0203 279.351 36.6704C278.993 36.3205 278.813 35.8932 278.813 35.3887Z" fill="black"/>
</svg>
