<svg width="846" height="59" viewBox="0 0 846 59" fill="none" xmlns="http://www.w3.org/2000/svg">
<rect width="846" height="59" fill="white"/>
<path d="M25.8716 34.1802L29.4116 19.2266H31.3892L31.8408 21.7168L28.0688 37H25.9448L25.8716 34.1802ZM24.0527 19.2266L26.9824 34.1802L26.7383 37H24.3701L20.4272 19.2266H24.0527ZM34.9536 34.1191L37.8467 19.2266H41.4722L37.5415 37H35.1733L34.9536 34.1191ZM32.5 19.2266L36.0645 34.2412L35.9668 37H33.8428L30.0464 21.7046L30.5347 19.2266H32.5ZM46.9531 23.792V37H43.4253V23.792H46.9531ZM43.2056 20.3496C43.2056 19.8369 43.3846 19.4137 43.7427 19.0801C44.1007 18.7464 44.5809 18.5796 45.1831 18.5796C45.7772 18.5796 46.2533 18.7464 46.6113 19.0801C46.9775 19.4137 47.1606 19.8369 47.1606 20.3496C47.1606 20.8623 46.9775 21.2855 46.6113 21.6191C46.2533 21.9528 45.7772 22.1196 45.1831 22.1196C44.5809 22.1196 44.1007 21.9528 43.7427 21.6191C43.3846 21.2855 43.2056 20.8623 43.2056 20.3496ZM56.3281 23.792V26.2822H48.6377V23.792H56.3281ZM50.542 20.5327H54.0576V33.0205C54.0576 33.403 54.1064 33.696 54.2041 33.8994C54.3099 34.1029 54.4645 34.2453 54.668 34.3267C54.8714 34.3999 55.1278 34.4365 55.437 34.4365C55.6567 34.4365 55.8521 34.4284 56.0229 34.4121C56.202 34.3877 56.3525 34.3633 56.4746 34.3389L56.4868 36.9268C56.1857 37.0244 55.8602 37.1017 55.5103 37.1587C55.1603 37.2157 54.7738 37.2441 54.3506 37.2441C53.5775 37.2441 52.902 37.118 52.3242 36.8657C51.7546 36.6053 51.3151 36.1903 51.0059 35.6206C50.6966 35.0509 50.542 34.3022 50.542 33.3745V20.5327ZM61.7603 18.25V37H58.2446V18.25H61.7603ZM61.2598 29.9321H60.2954C60.3035 29.0125 60.4256 28.1662 60.6616 27.3931C60.8976 26.6118 61.2354 25.9364 61.6748 25.3667C62.1143 24.7889 62.6392 24.3413 63.2495 24.0239C63.868 23.7065 64.5516 23.5479 65.3003 23.5479C65.9513 23.5479 66.5413 23.6414 67.0703 23.8286C67.6074 24.0076 68.0672 24.3006 68.4497 24.7075C68.8403 25.1063 69.1414 25.6312 69.353 26.2822C69.5646 26.9333 69.6704 27.7227 69.6704 28.6504V37H66.1304V28.626C66.1304 28.04 66.0449 27.5802 65.874 27.2466C65.7113 26.9048 65.4712 26.6647 65.1538 26.5264C64.8446 26.3799 64.4621 26.3066 64.0063 26.3066C63.5018 26.3066 63.0705 26.4002 62.7124 26.5874C62.3625 26.7746 62.0817 27.035 61.8701 27.3687C61.6585 27.6942 61.5039 28.0767 61.4062 28.5161C61.3086 28.9556 61.2598 29.4276 61.2598 29.9321ZM71.7822 30.5303V30.2739C71.7822 29.3055 71.9206 28.4144 72.1973 27.6006C72.474 26.7786 72.8768 26.0666 73.4058 25.4644C73.9347 24.8621 74.5858 24.3942 75.3589 24.0605C76.132 23.7188 77.019 23.5479 78.02 23.5479C79.021 23.5479 79.9121 23.7188 80.6934 24.0605C81.4746 24.3942 82.1297 24.8621 82.6587 25.4644C83.1958 26.0666 83.6027 26.7786 83.8794 27.6006C84.1561 28.4144 84.2944 29.3055 84.2944 30.2739V30.5303C84.2944 31.4906 84.1561 32.3817 83.8794 33.2036C83.6027 34.0174 83.1958 34.7295 82.6587 35.3398C82.1297 35.9421 81.4787 36.41 80.7056 36.7437C79.9325 37.0773 79.0454 37.2441 78.0444 37.2441C77.0435 37.2441 76.1523 37.0773 75.3711 36.7437C74.598 36.41 73.9429 35.9421 73.4058 35.3398C72.8768 34.7295 72.474 34.0174 72.1973 33.2036C71.9206 32.3817 71.7822 31.4906 71.7822 30.5303ZM75.2979 30.2739V30.5303C75.2979 31.0837 75.3467 31.6004 75.4443 32.0806C75.542 32.5607 75.6966 32.9839 75.9082 33.3501C76.1279 33.7082 76.4128 33.9889 76.7627 34.1924C77.1126 34.3958 77.5399 34.4976 78.0444 34.4976C78.5327 34.4976 78.9518 34.3958 79.3018 34.1924C79.6517 33.9889 79.9325 33.7082 80.144 33.3501C80.3556 32.9839 80.5103 32.5607 80.6079 32.0806C80.7137 31.6004 80.7666 31.0837 80.7666 30.5303V30.2739C80.7666 29.7368 80.7137 29.2323 80.6079 28.7603C80.5103 28.2801 80.3516 27.8569 80.1318 27.4907C79.9202 27.1164 79.6395 26.8234 79.2896 26.6118C78.9396 26.4002 78.5164 26.2944 78.02 26.2944C77.5236 26.2944 77.1004 26.4002 76.7505 26.6118C76.4087 26.8234 76.1279 27.1164 75.9082 27.4907C75.6966 27.8569 75.542 28.2801 75.4443 28.7603C75.3467 29.2323 75.2979 29.7368 75.2979 30.2739ZM94.2676 33.8384V23.792H97.7832V37H94.4751L94.2676 33.8384ZM94.6582 31.1284L95.6958 31.104C95.6958 31.9829 95.5941 32.8008 95.3906 33.5576C95.1872 34.3063 94.882 34.9574 94.4751 35.5107C94.0682 36.056 93.5555 36.4832 92.937 36.7925C92.3185 37.0936 91.5902 37.2441 90.752 37.2441C90.109 37.2441 89.515 37.1546 88.9697 36.9756C88.4326 36.7884 87.9688 36.4995 87.5781 36.1089C87.1956 35.7101 86.8945 35.2015 86.6748 34.583C86.4632 33.9564 86.3574 33.2036 86.3574 32.3247V23.792H89.873V32.3491C89.873 32.7397 89.9178 33.0693 90.0073 33.3379C90.105 33.6064 90.2393 33.8262 90.4102 33.9971C90.5811 34.168 90.7804 34.29 91.0083 34.3633C91.2443 34.4365 91.5047 34.4731 91.7896 34.4731C92.5138 34.4731 93.0835 34.3267 93.4985 34.0337C93.9217 33.7407 94.2188 33.342 94.3896 32.8374C94.5687 32.3247 94.6582 31.755 94.6582 31.1284ZM106.938 23.792V26.2822H99.248V23.792H106.938ZM101.152 20.5327H104.668V33.0205C104.668 33.403 104.717 33.696 104.814 33.8994C104.92 34.1029 105.075 34.2453 105.278 34.3267C105.482 34.3999 105.738 34.4365 106.047 34.4365C106.267 34.4365 106.462 34.4284 106.633 34.4121C106.812 34.3877 106.963 34.3633 107.085 34.3389L107.097 36.9268C106.796 37.0244 106.471 37.1017 106.121 37.1587C105.771 37.2157 105.384 37.2441 104.961 37.2441C104.188 37.2441 103.512 37.118 102.935 36.8657C102.365 36.6053 101.925 36.1903 101.616 35.6206C101.307 35.0509 101.152 34.3022 101.152 33.3745V20.5327ZM118.682 26.6729V37H115.166V23.792H118.474L118.682 26.6729ZM122.661 23.7065L122.6 26.9658C122.429 26.9414 122.222 26.9211 121.978 26.9048C121.742 26.8804 121.526 26.8682 121.331 26.8682C120.834 26.8682 120.403 26.9333 120.037 27.0635C119.679 27.1855 119.377 27.3687 119.133 27.6128C118.897 27.8569 118.718 28.154 118.596 28.5039C118.482 28.8538 118.417 29.2526 118.401 29.7002L117.693 29.4805C117.693 28.626 117.778 27.8407 117.949 27.1245C118.12 26.4002 118.368 25.7695 118.694 25.2324C119.028 24.6953 119.434 24.2803 119.915 23.9873C120.395 23.6943 120.944 23.5479 121.562 23.5479C121.758 23.5479 121.957 23.5641 122.161 23.5967C122.364 23.6211 122.531 23.6577 122.661 23.7065ZM130.156 37.2441C129.131 37.2441 128.211 37.0814 127.397 36.7559C126.584 36.4222 125.892 35.9624 125.322 35.3765C124.761 34.7905 124.329 34.111 124.028 33.3379C123.727 32.5566 123.577 31.7266 123.577 30.8477V30.3594C123.577 29.3584 123.719 28.4429 124.004 27.6128C124.289 26.7827 124.696 26.0625 125.225 25.4521C125.762 24.8418 126.413 24.3739 127.178 24.0483C127.943 23.7147 128.805 23.5479 129.766 23.5479C130.701 23.5479 131.532 23.7025 132.256 24.0117C132.98 24.321 133.586 24.7604 134.075 25.3301C134.571 25.8997 134.945 26.5833 135.198 27.3809C135.45 28.1702 135.576 29.0492 135.576 30.0176V31.4824H125.078V29.1387H132.122V28.8701C132.122 28.3818 132.032 27.9465 131.853 27.564C131.682 27.1733 131.422 26.8641 131.072 26.6362C130.722 26.4084 130.274 26.2944 129.729 26.2944C129.265 26.2944 128.866 26.3962 128.533 26.5996C128.199 26.8031 127.926 27.0879 127.715 27.4541C127.511 27.8203 127.357 28.2516 127.251 28.748C127.153 29.2363 127.104 29.7734 127.104 30.3594V30.8477C127.104 31.3766 127.178 31.8649 127.324 32.3125C127.479 32.7601 127.694 33.1466 127.971 33.4722C128.256 33.7977 128.598 34.05 128.997 34.229C129.403 34.408 129.863 34.4976 130.376 34.4976C131.011 34.4976 131.601 34.3755 132.146 34.1313C132.699 33.8791 133.175 33.5007 133.574 32.9961L135.283 34.8516C135.007 35.2503 134.628 35.6328 134.148 35.999C133.676 36.3652 133.106 36.6663 132.439 36.9023C131.772 37.1302 131.011 37.2441 130.156 37.2441ZM145.94 23.792H149.126V36.5605C149.126 37.765 148.857 38.7863 148.32 39.6245C147.791 40.4709 147.051 41.1097 146.099 41.541C145.146 41.9805 144.04 42.2002 142.778 42.2002C142.225 42.2002 141.639 42.127 141.021 41.9805C140.41 41.834 139.824 41.6061 139.263 41.2969C138.709 40.9876 138.245 40.597 137.871 40.125L139.421 38.0498C139.828 38.5218 140.3 38.888 140.837 39.1484C141.375 39.417 141.969 39.5513 142.62 39.5513C143.254 39.5513 143.792 39.4333 144.231 39.1973C144.67 38.9694 145.008 38.6317 145.244 38.1841C145.48 37.7446 145.598 37.2116 145.598 36.585V26.8438L145.94 23.792ZM137.053 30.5547V30.2983C137.053 29.2892 137.175 28.3737 137.419 27.5518C137.672 26.7217 138.026 26.0096 138.481 25.4155C138.945 24.8215 139.507 24.3617 140.166 24.0361C140.825 23.7106 141.57 23.5479 142.4 23.5479C143.279 23.5479 144.015 23.7106 144.609 24.0361C145.203 24.3617 145.692 24.8255 146.074 25.4277C146.457 26.0218 146.754 26.7257 146.965 27.5396C147.185 28.3452 147.356 29.2282 147.478 30.1885V30.75C147.356 31.6696 147.173 32.5241 146.929 33.3135C146.685 34.1029 146.363 34.7946 145.964 35.3887C145.566 35.9746 145.069 36.4303 144.475 36.7559C143.889 37.0814 143.189 37.2441 142.375 37.2441C141.562 37.2441 140.825 37.0773 140.166 36.7437C139.515 36.41 138.958 35.9421 138.494 35.3398C138.03 34.7376 137.672 34.0296 137.419 33.2158C137.175 32.402 137.053 31.515 137.053 30.5547ZM140.569 30.2983V30.5547C140.569 31.0999 140.622 31.6086 140.728 32.0806C140.833 32.5526 140.996 32.9717 141.216 33.3379C141.444 33.696 141.724 33.9767 142.058 34.1802C142.4 34.3755 142.803 34.4731 143.267 34.4731C143.91 34.4731 144.434 34.3389 144.841 34.0703C145.248 33.7936 145.553 33.4152 145.757 32.9351C145.96 32.4549 146.078 31.9015 146.111 31.2749V29.6758C146.095 29.1631 146.025 28.7033 145.903 28.2964C145.781 27.8813 145.61 27.5273 145.391 27.2344C145.171 26.9414 144.886 26.7135 144.536 26.5508C144.186 26.388 143.771 26.3066 143.291 26.3066C142.827 26.3066 142.424 26.4124 142.083 26.624C141.749 26.8275 141.468 27.1082 141.24 27.4663C141.021 27.8244 140.854 28.2476 140.74 28.7358C140.626 29.216 140.569 29.7368 140.569 30.2983ZM155.376 26.6729V37H151.86V23.792H155.168L155.376 26.6729ZM159.355 23.7065L159.294 26.9658C159.124 26.9414 158.916 26.9211 158.672 26.9048C158.436 26.8804 158.22 26.8682 158.025 26.8682C157.528 26.8682 157.097 26.9333 156.731 27.0635C156.373 27.1855 156.072 27.3687 155.828 27.6128C155.592 27.8569 155.413 28.154 155.291 28.5039C155.177 28.8538 155.111 29.2526 155.095 29.7002L154.387 29.4805C154.387 28.626 154.473 27.8407 154.644 27.1245C154.814 26.4002 155.063 25.7695 155.388 25.2324C155.722 24.6953 156.129 24.2803 156.609 23.9873C157.089 23.6943 157.638 23.5479 158.257 23.5479C158.452 23.5479 158.652 23.5641 158.855 23.5967C159.058 23.6211 159.225 23.6577 159.355 23.7065ZM166.851 37.2441C165.825 37.2441 164.906 37.0814 164.092 36.7559C163.278 36.4222 162.586 35.9624 162.017 35.3765C161.455 34.7905 161.024 34.111 160.723 33.3379C160.422 32.5566 160.271 31.7266 160.271 30.8477V30.3594C160.271 29.3584 160.413 28.4429 160.698 27.6128C160.983 26.7827 161.39 26.0625 161.919 25.4521C162.456 24.8418 163.107 24.3739 163.872 24.0483C164.637 23.7147 165.5 23.5479 166.46 23.5479C167.396 23.5479 168.226 23.7025 168.95 24.0117C169.674 24.321 170.281 24.7604 170.769 25.3301C171.265 25.8997 171.64 26.5833 171.892 27.3809C172.144 28.1702 172.271 29.0492 172.271 30.0176V31.4824H161.772V29.1387H168.816V28.8701C168.816 28.3818 168.726 27.9465 168.547 27.564C168.376 27.1733 168.116 26.8641 167.766 26.6362C167.416 26.4084 166.969 26.2944 166.423 26.2944C165.959 26.2944 165.561 26.3962 165.227 26.5996C164.893 26.8031 164.621 27.0879 164.409 27.4541C164.206 27.8203 164.051 28.2516 163.945 28.748C163.848 29.2363 163.799 29.7734 163.799 30.3594V30.8477C163.799 31.3766 163.872 31.8649 164.019 32.3125C164.173 32.7601 164.389 33.1466 164.666 33.4722C164.95 33.7977 165.292 34.05 165.691 34.229C166.098 34.408 166.558 34.4976 167.07 34.4976C167.705 34.4976 168.295 34.3755 168.84 34.1313C169.394 33.8791 169.87 33.5007 170.269 32.9961L171.978 34.8516C171.701 35.2503 171.322 35.6328 170.842 35.999C170.37 36.3652 169.801 36.6663 169.133 36.9023C168.466 37.1302 167.705 37.2441 166.851 37.2441ZM180.742 23.792V26.2822H173.052V23.792H180.742ZM174.956 20.5327H178.472V33.0205C178.472 33.403 178.521 33.696 178.618 33.8994C178.724 34.1029 178.879 34.2453 179.082 34.3267C179.285 34.3999 179.542 34.4365 179.851 34.4365C180.071 34.4365 180.266 34.4284 180.437 34.4121C180.616 34.3877 180.767 34.3633 180.889 34.3389L180.901 36.9268C180.6 37.0244 180.274 37.1017 179.924 37.1587C179.574 37.2157 179.188 37.2441 178.765 37.2441C177.992 37.2441 177.316 37.118 176.738 36.8657C176.169 36.6053 175.729 36.1903 175.42 35.6206C175.111 35.0509 174.956 34.3022 174.956 33.3745V20.5327Z" fill="black"/>
</svg>
