<svg width="846" height="59" viewBox="0 0 846 59" fill="none" xmlns="http://www.w3.org/2000/svg">
<rect width="846" height="59" fill="white"/>
<path d="M24.0283 19.2266L27.7393 27.332L31.4502 19.2266H35.4419L29.5947 30.5303V37H25.8838V30.5303L20.0244 19.2266H24.0283ZM35.4785 30.5303V30.2739C35.4785 29.3055 35.6169 28.4144 35.8936 27.6006C36.1702 26.7786 36.5731 26.0666 37.1021 25.4644C37.631 24.8621 38.2821 24.3942 39.0552 24.0605C39.8283 23.7188 40.7153 23.5479 41.7163 23.5479C42.7173 23.5479 43.6084 23.7188 44.3896 24.0605C45.1709 24.3942 45.826 24.8621 46.355 25.4644C46.8921 26.0666 47.299 26.7786 47.5757 27.6006C47.8524 28.4144 47.9907 29.3055 47.9907 30.2739V30.5303C47.9907 31.4906 47.8524 32.3817 47.5757 33.2036C47.299 34.0174 46.8921 34.7295 46.355 35.3398C45.826 35.9421 45.175 36.41 44.4019 36.7437C43.6287 37.0773 42.7417 37.2441 41.7407 37.2441C40.7397 37.2441 39.8486 37.0773 39.0674 36.7437C38.2943 36.41 37.6392 35.9421 37.1021 35.3398C36.5731 34.7295 36.1702 34.0174 35.8936 33.2036C35.6169 32.3817 35.4785 31.4906 35.4785 30.5303ZM38.9941 30.2739V30.5303C38.9941 31.0837 39.043 31.6004 39.1406 32.0806C39.2383 32.5607 39.3929 32.9839 39.6045 33.3501C39.8242 33.7082 40.109 33.9889 40.459 34.1924C40.8089 34.3958 41.2362 34.4976 41.7407 34.4976C42.229 34.4976 42.6481 34.3958 42.998 34.1924C43.348 33.9889 43.6287 33.7082 43.8403 33.3501C44.0519 32.9839 44.2065 32.5607 44.3042 32.0806C44.41 31.6004 44.4629 31.0837 44.4629 30.5303V30.2739C44.4629 29.7368 44.41 29.2323 44.3042 28.7603C44.2065 28.2801 44.0479 27.8569 43.8281 27.4907C43.6165 27.1164 43.3358 26.8234 42.9858 26.6118C42.6359 26.4002 42.2127 26.2944 41.7163 26.2944C41.2199 26.2944 40.7967 26.4002 40.4468 26.6118C40.105 26.8234 39.8242 27.1164 39.6045 27.4907C39.3929 27.8569 39.2383 28.2801 39.1406 28.7603C39.043 29.2323 38.9941 29.7368 38.9941 30.2739ZM57.9639 33.8384V23.792H61.4795V37H58.1714L57.9639 33.8384ZM58.3545 31.1284L59.3921 31.104C59.3921 31.9829 59.2904 32.8008 59.0869 33.5576C58.8835 34.3063 58.5783 34.9574 58.1714 35.5107C57.7645 36.056 57.2518 36.4832 56.6333 36.7925C56.0148 37.0936 55.2865 37.2441 54.4482 37.2441C53.8053 37.2441 53.2113 37.1546 52.666 36.9756C52.1289 36.7884 51.665 36.4995 51.2744 36.1089C50.8919 35.7101 50.5908 35.2015 50.3711 34.583C50.1595 33.9564 50.0537 33.2036 50.0537 32.3247V23.792H53.5693V32.3491C53.5693 32.7397 53.6141 33.0693 53.7036 33.3379C53.8013 33.6064 53.9355 33.8262 54.1064 33.9971C54.2773 34.168 54.4767 34.29 54.7046 34.3633C54.9406 34.4365 55.201 34.4731 55.4858 34.4731C56.2101 34.4731 56.7798 34.3267 57.1948 34.0337C57.618 33.7407 57.915 33.342 58.0859 32.8374C58.265 32.3247 58.3545 31.755 58.3545 31.1284ZM77.5195 34.0215V28.1377C77.5195 27.7145 77.4504 27.3524 77.312 27.0513C77.1737 26.742 76.958 26.502 76.665 26.3311C76.3802 26.1602 76.0099 26.0747 75.5542 26.0747C75.1636 26.0747 74.8258 26.1439 74.541 26.2822C74.2562 26.4124 74.0365 26.6037 73.8818 26.856C73.7272 27.1001 73.6499 27.389 73.6499 27.7227H70.1343C70.1343 27.1611 70.2645 26.6281 70.5249 26.1235C70.7853 25.619 71.1637 25.1755 71.6602 24.793C72.1566 24.4023 72.7466 24.0972 73.4302 23.8774C74.1219 23.6577 74.895 23.5479 75.7495 23.5479C76.7749 23.5479 77.6864 23.7188 78.4839 24.0605C79.2814 24.4023 79.908 24.915 80.3638 25.5986C80.8276 26.2822 81.0596 27.1367 81.0596 28.1621V33.814C81.0596 34.5382 81.1043 35.1323 81.1938 35.5962C81.2834 36.0519 81.4136 36.4507 81.5845 36.7925V37H78.0322C77.8613 36.6419 77.7311 36.1943 77.6416 35.6572C77.5602 35.112 77.5195 34.5667 77.5195 34.0215ZM77.9834 28.9556L78.0078 30.9453H76.0425C75.5786 30.9453 75.1758 30.9982 74.834 31.104C74.4922 31.2098 74.2114 31.3604 73.9917 31.5557C73.772 31.7428 73.6092 31.9626 73.5034 32.2148C73.4058 32.4671 73.3569 32.7438 73.3569 33.0449C73.3569 33.346 73.4261 33.6187 73.5645 33.8628C73.7028 34.0988 73.9022 34.286 74.1626 34.4243C74.423 34.5545 74.7282 34.6196 75.0781 34.6196C75.6071 34.6196 76.0669 34.5138 76.4575 34.3022C76.8481 34.0907 77.1493 33.8302 77.3608 33.521C77.5806 33.2118 77.6945 32.9188 77.7026 32.6421L78.6304 34.1313C78.5002 34.465 78.3211 34.8109 78.0933 35.1689C77.8735 35.527 77.5928 35.8647 77.251 36.1821C76.9092 36.4914 76.4982 36.7477 76.0181 36.9512C75.5379 37.1465 74.9683 37.2441 74.3091 37.2441C73.4709 37.2441 72.71 37.0773 72.0264 36.7437C71.3509 36.4019 70.8138 35.9339 70.415 35.3398C70.0244 34.7376 69.8291 34.054 69.8291 33.2891C69.8291 32.5973 69.9593 31.9829 70.2197 31.4458C70.4801 30.9087 70.8626 30.457 71.3672 30.0908C71.8799 29.7165 72.5187 29.4357 73.2837 29.2485C74.0487 29.0532 74.9357 28.9556 75.9448 28.9556H77.9834ZM87.2852 26.6729V37H83.7695V23.792H87.0776L87.2852 26.6729ZM91.2646 23.7065L91.2036 26.9658C91.0327 26.9414 90.8252 26.9211 90.5811 26.9048C90.3451 26.8804 90.1294 26.8682 89.9341 26.8682C89.4377 26.8682 89.0063 26.9333 88.6401 27.0635C88.2821 27.1855 87.981 27.3687 87.7368 27.6128C87.5008 27.8569 87.3218 28.154 87.1997 28.5039C87.0858 28.8538 87.0207 29.2526 87.0044 29.7002L86.2964 29.4805C86.2964 28.626 86.3818 27.8407 86.5527 27.1245C86.7236 26.4002 86.9718 25.7695 87.2974 25.2324C87.631 24.6953 88.0379 24.2803 88.5181 23.9873C88.9982 23.6943 89.5475 23.5479 90.166 23.5479C90.3613 23.5479 90.5607 23.5641 90.7642 23.5967C90.9676 23.6211 91.1344 23.6577 91.2646 23.7065ZM98.7598 37.2441C97.7344 37.2441 96.8148 37.0814 96.001 36.7559C95.1872 36.4222 94.4954 35.9624 93.9258 35.3765C93.3643 34.7905 92.9329 34.111 92.6318 33.3379C92.3307 32.5566 92.1802 31.7266 92.1802 30.8477V30.3594C92.1802 29.3584 92.3226 28.4429 92.6074 27.6128C92.8923 26.7827 93.2992 26.0625 93.8281 25.4521C94.3652 24.8418 95.0163 24.3739 95.7812 24.0483C96.5462 23.7147 97.4089 23.5479 98.3691 23.5479C99.305 23.5479 100.135 23.7025 100.859 24.0117C101.584 24.321 102.19 24.7604 102.678 25.3301C103.175 25.8997 103.549 26.5833 103.801 27.3809C104.054 28.1702 104.18 29.0492 104.18 30.0176V31.4824H93.6816V29.1387H100.725V28.8701C100.725 28.3818 100.636 27.9465 100.457 27.564C100.286 27.1733 100.025 26.8641 99.6753 26.6362C99.3254 26.4084 98.8778 26.2944 98.3325 26.2944C97.8687 26.2944 97.4699 26.3962 97.1362 26.5996C96.8026 26.8031 96.5299 27.0879 96.3184 27.4541C96.1149 27.8203 95.9603 28.2516 95.8545 28.748C95.7568 29.2363 95.708 29.7734 95.708 30.3594V30.8477C95.708 31.3766 95.7812 31.8649 95.9277 32.3125C96.0824 32.7601 96.298 33.1466 96.5747 33.4722C96.8595 33.7977 97.2013 34.05 97.6001 34.229C98.007 34.408 98.4668 34.4976 98.9795 34.4976C99.6143 34.4976 100.204 34.3755 100.75 34.1313C101.303 33.8791 101.779 33.5007 102.178 32.9961L103.887 34.8516C103.61 35.2503 103.232 35.6328 102.751 35.999C102.279 36.3652 101.71 36.6663 101.042 36.9023C100.375 37.1302 99.6143 37.2441 98.7598 37.2441ZM118.877 23.792V26.2822H111.187V23.792H118.877ZM113.091 20.5327H116.606V33.0205C116.606 33.403 116.655 33.696 116.753 33.8994C116.859 34.1029 117.013 34.2453 117.217 34.3267C117.42 34.3999 117.677 34.4365 117.986 34.4365C118.206 34.4365 118.401 34.4284 118.572 34.4121C118.751 34.3877 118.901 34.3633 119.023 34.3389L119.036 36.9268C118.735 37.0244 118.409 37.1017 118.059 37.1587C117.709 37.2157 117.323 37.2441 116.899 37.2441C116.126 37.2441 115.451 37.118 114.873 36.8657C114.303 36.6053 113.864 36.1903 113.555 35.6206C113.245 35.0509 113.091 34.3022 113.091 33.3745V20.5327ZM124.309 18.25V37H120.793V18.25H124.309ZM123.809 29.9321H122.844C122.852 29.0125 122.974 28.1662 123.21 27.3931C123.446 26.6118 123.784 25.9364 124.224 25.3667C124.663 24.7889 125.188 24.3413 125.798 24.0239C126.417 23.7065 127.1 23.5479 127.849 23.5479C128.5 23.5479 129.09 23.6414 129.619 23.8286C130.156 24.0076 130.616 24.3006 130.999 24.7075C131.389 25.1063 131.69 25.6312 131.902 26.2822C132.113 26.9333 132.219 27.7227 132.219 28.6504V37H128.679V28.626C128.679 28.04 128.594 27.5802 128.423 27.2466C128.26 26.9048 128.02 26.6647 127.703 26.5264C127.393 26.3799 127.011 26.3066 126.555 26.3066C126.051 26.3066 125.619 26.4002 125.261 26.5874C124.911 26.7746 124.631 27.035 124.419 27.3687C124.207 27.6942 124.053 28.0767 123.955 28.5161C123.857 28.9556 123.809 29.4276 123.809 29.9321ZM140.972 37.2441C139.946 37.2441 139.027 37.0814 138.213 36.7559C137.399 36.4222 136.707 35.9624 136.138 35.3765C135.576 34.7905 135.145 34.111 134.844 33.3379C134.543 32.5566 134.392 31.7266 134.392 30.8477V30.3594C134.392 29.3584 134.535 28.4429 134.819 27.6128C135.104 26.7827 135.511 26.0625 136.04 25.4521C136.577 24.8418 137.228 24.3739 137.993 24.0483C138.758 23.7147 139.621 23.5479 140.581 23.5479C141.517 23.5479 142.347 23.7025 143.071 24.0117C143.796 24.321 144.402 24.7604 144.89 25.3301C145.387 25.8997 145.761 26.5833 146.013 27.3809C146.265 28.1702 146.392 29.0492 146.392 30.0176V31.4824H135.894V29.1387H142.937V28.8701C142.937 28.3818 142.847 27.9465 142.668 27.564C142.498 27.1733 142.237 26.8641 141.887 26.6362C141.537 26.4084 141.09 26.2944 140.544 26.2944C140.081 26.2944 139.682 26.3962 139.348 26.5996C139.014 26.8031 138.742 27.0879 138.53 27.4541C138.327 27.8203 138.172 28.2516 138.066 28.748C137.969 29.2363 137.92 29.7734 137.92 30.3594V30.8477C137.92 31.3766 137.993 31.8649 138.14 32.3125C138.294 32.7601 138.51 33.1466 138.787 33.4722C139.071 33.7977 139.413 34.05 139.812 34.229C140.219 34.408 140.679 34.4976 141.191 34.4976C141.826 34.4976 142.416 34.3755 142.961 34.1313C143.515 33.8791 143.991 33.5007 144.39 32.9961L146.099 34.8516C145.822 35.2503 145.444 35.6328 144.963 35.999C144.491 36.3652 143.922 36.6663 143.254 36.9023C142.587 37.1302 141.826 37.2441 140.972 37.2441ZM154.619 18.25H158.135V33.9727L157.781 37H154.619V18.25ZM166.497 30.2617V30.5181C166.497 31.5028 166.391 32.4061 166.179 33.228C165.976 34.05 165.658 34.762 165.227 35.3643C164.796 35.9583 164.259 36.4222 163.616 36.7559C162.981 37.0814 162.232 37.2441 161.37 37.2441C160.564 37.2441 159.864 37.0814 159.27 36.7559C158.684 36.4303 158.192 35.9705 157.793 35.3765C157.394 34.7824 157.073 34.0866 156.829 33.2891C156.584 32.4915 156.401 31.6208 156.279 30.6768V30.1152C156.401 29.1712 156.584 28.3005 156.829 27.5029C157.073 26.7054 157.394 26.0096 157.793 25.4155C158.192 24.8215 158.684 24.3617 159.27 24.0361C159.856 23.7106 160.548 23.5479 161.345 23.5479C162.216 23.5479 162.973 23.7147 163.616 24.0483C164.267 24.3739 164.804 24.8377 165.227 25.4399C165.658 26.034 165.976 26.742 166.179 27.564C166.391 28.3778 166.497 29.277 166.497 30.2617ZM162.981 30.5181V30.2617C162.981 29.7246 162.94 29.2201 162.859 28.748C162.786 28.2679 162.655 27.8488 162.468 27.4907C162.281 27.1245 162.025 26.8356 161.699 26.624C161.382 26.4124 160.971 26.3066 160.466 26.3066C159.986 26.3066 159.579 26.388 159.246 26.5508C158.912 26.7135 158.635 26.9414 158.416 27.2344C158.204 27.5273 158.045 27.8773 157.939 28.2842C157.834 28.6829 157.769 29.1224 157.744 29.6025V31.2017C157.769 31.8446 157.874 32.4142 158.062 32.9106C158.257 33.3989 158.55 33.7855 158.94 34.0703C159.339 34.347 159.856 34.4854 160.491 34.4854C160.987 34.4854 161.398 34.3877 161.724 34.1924C162.049 33.9971 162.301 33.7204 162.48 33.3623C162.668 33.0042 162.798 32.5851 162.871 32.105C162.944 31.6167 162.981 31.0877 162.981 30.5181ZM174.761 37.2441C173.735 37.2441 172.816 37.0814 172.002 36.7559C171.188 36.4222 170.496 35.9624 169.927 35.3765C169.365 34.7905 168.934 34.111 168.633 33.3379C168.332 32.5566 168.181 31.7266 168.181 30.8477V30.3594C168.181 29.3584 168.324 28.4429 168.608 27.6128C168.893 26.7827 169.3 26.0625 169.829 25.4521C170.366 24.8418 171.017 24.3739 171.782 24.0483C172.547 23.7147 173.41 23.5479 174.37 23.5479C175.306 23.5479 176.136 23.7025 176.86 24.0117C177.585 24.321 178.191 24.7604 178.679 25.3301C179.176 25.8997 179.55 26.5833 179.802 27.3809C180.055 28.1702 180.181 29.0492 180.181 30.0176V31.4824H169.683V29.1387H176.726V28.8701C176.726 28.3818 176.637 27.9465 176.458 27.564C176.287 27.1733 176.026 26.8641 175.676 26.6362C175.326 26.4084 174.879 26.2944 174.333 26.2944C173.87 26.2944 173.471 26.3962 173.137 26.5996C172.804 26.8031 172.531 27.0879 172.319 27.4541C172.116 27.8203 171.961 28.2516 171.855 28.748C171.758 29.2363 171.709 29.7734 171.709 30.3594V30.8477C171.709 31.3766 171.782 31.8649 171.929 32.3125C172.083 32.7601 172.299 33.1466 172.576 33.4722C172.861 33.7977 173.202 34.05 173.601 34.229C174.008 34.408 174.468 34.4976 174.98 34.4976C175.615 34.4976 176.205 34.3755 176.75 34.1313C177.304 33.8791 177.78 33.5007 178.179 32.9961L179.888 34.8516C179.611 35.2503 179.233 35.6328 178.752 35.999C178.28 36.3652 177.711 36.6663 177.043 36.9023C176.376 37.1302 175.615 37.2441 174.761 37.2441ZM189.324 33.3501C189.324 33.0978 189.25 32.87 189.104 32.6665C188.958 32.4631 188.685 32.2759 188.286 32.105C187.896 31.9259 187.33 31.7632 186.589 31.6167C185.922 31.4702 185.299 31.2871 184.722 31.0674C184.152 30.8395 183.656 30.5669 183.232 30.2495C182.817 29.9321 182.492 29.5578 182.256 29.1265C182.02 28.687 181.902 28.1865 181.902 27.625C181.902 27.0716 182.02 26.5508 182.256 26.0625C182.5 25.5742 182.846 25.1429 183.293 24.7686C183.749 24.3861 184.303 24.089 184.954 23.8774C185.613 23.6577 186.353 23.5479 187.175 23.5479C188.323 23.5479 189.307 23.731 190.129 24.0972C190.959 24.4634 191.594 24.9679 192.034 25.6108C192.481 26.2456 192.705 26.9699 192.705 27.7837H189.189C189.189 27.4419 189.116 27.1367 188.97 26.8682C188.831 26.5915 188.612 26.3758 188.311 26.2212C188.018 26.0584 187.635 25.9771 187.163 25.9771C186.772 25.9771 186.435 26.0462 186.15 26.1846C185.865 26.3148 185.645 26.4938 185.491 26.7217C185.344 26.9414 185.271 27.1855 185.271 27.4541C185.271 27.6576 185.312 27.8407 185.393 28.0034C185.483 28.158 185.625 28.3005 185.82 28.4307C186.016 28.5609 186.268 28.6829 186.577 28.7969C186.895 28.9027 187.285 29.0003 187.749 29.0898C188.701 29.2852 189.552 29.5415 190.3 29.8589C191.049 30.1681 191.643 30.5913 192.083 31.1284C192.522 31.6574 192.742 32.3532 192.742 33.2158C192.742 33.8018 192.611 34.3389 192.351 34.8271C192.091 35.3154 191.716 35.7427 191.228 36.1089C190.74 36.467 190.154 36.7477 189.47 36.9512C188.795 37.1465 188.034 37.2441 187.188 37.2441C185.959 37.2441 184.917 37.0244 184.062 36.585C183.216 36.1455 182.573 35.5881 182.134 34.9126C181.702 34.229 181.487 33.5291 181.487 32.813H184.819C184.836 33.2931 184.958 33.6797 185.186 33.9727C185.422 34.2656 185.719 34.4772 186.077 34.6074C186.443 34.7376 186.838 34.8027 187.261 34.8027C187.716 34.8027 188.095 34.7417 188.396 34.6196C188.697 34.4894 188.925 34.3185 189.08 34.1069C189.242 33.8872 189.324 33.6349 189.324 33.3501ZM201.494 23.792V26.2822H193.804V23.792H201.494ZM195.708 20.5327H199.224V33.0205C199.224 33.403 199.272 33.696 199.37 33.8994C199.476 34.1029 199.631 34.2453 199.834 34.3267C200.037 34.3999 200.294 34.4365 200.603 34.4365C200.823 34.4365 201.018 34.4284 201.189 34.4121C201.368 34.3877 201.519 34.3633 201.641 34.3389L201.653 36.9268C201.352 37.0244 201.026 37.1017 200.676 37.1587C200.326 37.2157 199.94 37.2441 199.517 37.2441C198.743 37.2441 198.068 37.118 197.49 36.8657C196.921 36.6053 196.481 36.1903 196.172 35.6206C195.863 35.0509 195.708 34.3022 195.708 33.3745V20.5327Z" fill="black"/>
</svg>
