<svg width="846" height="59" viewBox="0 0 846 59" fill="none" xmlns="http://www.w3.org/2000/svg">
<rect width="846" height="59" fill="white"/>
<path d="M35.9 16.075V27.625H39.225V16.075H35.9ZM38.3 20.65V23.375H42.3V20.65H38.3ZM29.275 16.925V18.9C29.275 21.8 26.75 24.45 20.875 25.525L22.075 28.25C29.05 26.825 32.95 23.1 32.95 16.925H29.275ZM22.025 16.925V19.575H31.4V16.925H22.025ZM23.925 28.525V31.125H35.95V32.475H23.975V37.725H27.275V34.925H39.225V28.525H23.925ZM23.975 36.4V39H39.9V36.4H23.975ZM59.898 16.075V27.7H63.248V16.075H59.898ZM52.623 16.925V18.825C52.623 21.9 50.523 24.4 44.348 25.5L45.498 28.175C52.798 26.7 56.273 23.275 56.273 16.925H52.623ZM45.573 16.925V19.575H54.973V16.925H45.573ZM47.798 28.65V31.2H59.898V32.55H47.848V37.45H51.173V34.925H63.248V28.65H47.798ZM47.848 36.425V39H63.823V36.425H47.848ZM82.8711 16.05V39.275H86.2211V16.05H82.8711ZM73.7461 17.675C70.2461 17.675 67.6711 20.875 67.6711 25.925C67.6711 31.025 70.2461 34.225 73.7461 34.225C77.2461 34.225 79.8211 31.025 79.8211 25.925C79.8211 20.875 77.2461 17.675 73.7461 17.675ZM73.7461 20.7C75.4711 20.7 76.6211 22.525 76.6211 25.925C76.6211 29.375 75.4711 31.225 73.7461 31.225C72.0211 31.225 70.8461 29.375 70.8461 25.925C70.8461 22.525 72.0211 20.7 73.7461 20.7ZM97.1697 17.15V26.95H108.145V17.15H97.1697ZM104.895 19.725V24.325H100.445V19.725H104.895ZM112.27 16.075V27.65H115.595V16.075H112.27ZM107.345 20.65V23.275H113.245V20.65H107.345ZM100.295 28.625V31.175H112.295V32.525H100.32V37.75H103.62V34.925H115.595V28.625H100.295ZM100.32 36.4V38.975H116.245V36.4H100.32ZM124.793 19.725V22.325C124.793 26.25 122.918 30.525 119.043 32.25L120.918 34.875C125.268 32.9 127.443 27.675 127.443 22.325V19.725H124.793ZM125.543 19.725V22.325C125.543 27.475 127.693 32.4 132.093 34.3L133.893 31.675C130.018 30.075 128.168 26.075 128.168 22.325V19.725H125.543ZM119.968 18.3V21.025H132.943V18.3H119.968ZM135.093 16.075V39.225H138.443V16.075H135.093ZM142.891 17.975V29.15H153.916V17.975H142.891ZM150.641 20.6V26.525H146.166V20.6H150.641ZM157.116 16.075V32.95H160.441V16.075H157.116ZM159.491 22.75V25.475H163.516V22.75H159.491ZM145.516 36.175V38.825H161.266V36.175H145.516ZM145.516 31.3V37.5H148.841V31.3H145.516ZM186.339 16.1V33.4H189.664V16.1H186.339ZM188.714 23.15V25.875H192.739V23.15H188.714ZM171.439 18.5V21.1H185.064V18.5H171.439ZM178.264 21.925C174.914 21.925 172.564 23.75 172.564 26.4C172.564 29.05 174.914 30.85 178.264 30.85C181.589 30.85 183.939 29.05 183.939 26.4C183.939 23.75 181.589 21.925 178.264 21.925ZM178.264 24.45C179.739 24.45 180.764 25.15 180.764 26.4C180.764 27.65 179.739 28.325 178.264 28.325C176.789 28.325 175.764 27.65 175.764 26.4C175.764 25.15 176.789 24.45 178.264 24.45ZM176.589 16.05V19.775H179.914V16.05H176.589ZM174.739 36.175V38.825H190.489V36.175H174.739ZM174.739 32.1V37.325H178.064V32.1H174.739ZM216.713 16.075V27.65H220.038V16.075H216.713ZM212.663 20.975V23.625H217.113V20.975H212.663ZM208.888 16.925V18.6C208.888 21.8 206.538 24.4 200.938 25.625L202.063 28.25C208.838 26.625 212.388 22.975 212.388 16.925H208.888ZM202.263 16.925V19.55H211.663V16.925H202.263ZM204.738 28.525V31.125H216.713V32.475H204.788V37.775H208.113V34.925H220.038V28.525H204.738ZM204.788 36.4V39H220.513V36.4H204.788ZM234.136 16.5C229.036 16.5 225.761 18.225 225.761 21.025C225.761 23.825 229.036 25.525 234.136 25.525C239.236 25.525 242.511 23.825 242.511 21.025C242.511 18.225 239.236 16.5 234.136 16.5ZM234.136 19.075C237.286 19.075 239.086 19.7 239.086 21.025C239.086 22.325 237.286 22.975 234.136 22.975C230.961 22.975 229.186 22.325 229.186 21.025C229.186 19.7 230.961 19.075 234.136 19.075ZM226.086 31.075V38.975H242.086V31.075H226.086ZM238.836 33.7V36.35H229.361V33.7H238.836ZM223.661 26.85V29.475H244.586V26.85H223.661ZM246.659 29.4V32.025H267.634V29.4H246.659ZM255.409 30.725V39.225H258.709V30.725H255.409ZM249.059 16.95V27.2H265.159V16.95H261.859V19.575H252.359V16.95H249.059ZM252.359 22.175H261.859V24.55H252.359V22.175ZM285.782 16.05V39.275H289.082V16.05H285.782ZM281.807 24.2V26.9H286.157V24.2H281.807ZM270.707 31.35V34.05H272.557C276.457 34.05 279.457 33.95 282.807 33.425L282.507 30.775C279.232 31.3 276.382 31.35 272.557 31.35H270.707ZM270.707 18V32.2H274.007V20.7H281.432V18H270.707ZM273.257 24.45V27.05H280.632V24.45H273.257ZM304.256 17.275V19.35C304.256 22.525 302.631 25.65 298.681 26.925L300.406 29.6C304.956 28.075 307.031 24 307.031 19.35V17.275H304.256ZM304.956 17.275V19.2C304.956 23.7 306.806 27.425 311.081 28.9L312.806 26.3C309.131 25.125 307.631 22.275 307.631 19.2V17.275H304.956ZM314.931 16.075V29.625H318.256V16.075H314.931ZM310.406 30.225C305.506 30.225 302.481 31.9 302.481 34.725C302.481 37.575 305.506 39.225 310.406 39.225C315.306 39.225 318.331 37.575 318.331 34.725C318.331 31.9 315.306 30.225 310.406 30.225ZM310.406 32.8C313.431 32.8 315.031 33.425 315.031 34.725C315.031 36.025 313.431 36.675 310.406 36.675C307.406 36.675 305.806 36.025 305.806 34.725C305.806 33.425 307.406 32.8 310.406 32.8ZM310.706 20.275V22.975H315.406V20.275H310.706ZM327.029 18.65V20.1C327.029 23.05 325.404 26.075 321.554 27.35L323.204 29.975C327.679 28.5 329.754 24.525 329.754 20.1V18.65H327.029ZM327.704 18.65V20.1C327.704 24.225 329.704 27.85 334.104 29.175L335.679 26.575C331.954 25.45 330.404 22.8 330.404 20.1V18.65H327.704ZM322.429 17.625V20.275H334.929V17.625H322.429ZM336.779 16.075V29.8H340.104V16.075H336.779ZM339.179 21.4V24.125H343.179V21.4H339.179ZM332.554 30.225C327.729 30.225 324.704 31.9 324.704 34.725C324.704 37.55 327.729 39.225 332.554 39.225C337.354 39.225 340.379 37.55 340.379 34.725C340.379 31.9 337.354 30.225 332.554 30.225ZM332.554 32.825C335.504 32.825 337.079 33.425 337.079 34.725C337.079 36.025 335.504 36.675 332.554 36.675C329.604 36.675 328.004 36.025 328.004 34.725C328.004 33.425 329.604 32.825 332.554 32.825ZM359.727 16.075V39.225H363.027V16.075H359.727ZM362.277 25.1V27.875H366.377V25.1H362.277ZM344.777 19.5V22.15H358.252V19.5H344.777ZM351.552 23.45C348.177 23.45 345.677 25.75 345.677 28.975C345.677 32.2 348.177 34.5 351.552 34.5C354.927 34.5 357.427 32.2 357.427 28.975C357.427 25.75 354.927 23.45 351.552 23.45ZM351.552 26.15C353.127 26.15 354.252 27.2 354.252 28.975C354.252 30.75 353.127 31.8 351.552 31.8C349.977 31.8 348.852 30.75 348.852 28.975C348.852 27.2 349.977 26.15 351.552 26.15ZM349.877 16.45V20.5H353.202V16.45H349.877ZM370.025 18.025V20.7H384.7V18.025H370.025ZM367.9 33.75V36.45H388.825V33.75H367.9ZM375.3 25.8V35.075H378.625V25.8H375.3ZM383.5 18.025V20.25C383.5 23.025 383.5 26.375 382.575 30.975L385.9 31.35C386.825 26.4 386.825 23.15 386.825 20.25V18.025H383.5ZM402.299 30.125V30.9C402.299 33.15 401.024 35.45 397.999 36.475L399.624 38.9C403.249 37.6 404.799 34.4 404.799 30.9V30.125H402.299ZM403.149 30.125V30.9C403.149 34.3 404.474 37.75 408.149 39.125L409.474 36.675C406.649 35.5 405.524 33.15 405.524 30.9V30.125H403.149ZM410.749 30.125V30.9C410.749 32.95 409.599 35.4 406.774 36.675L408.149 39.125C411.749 37.7 413.124 34.1 413.124 30.9V30.125H410.749ZM411.524 30.125V30.9C411.524 34.55 413.024 37.65 416.699 38.9L418.324 36.475C415.274 35.525 414.024 33.3 414.024 30.9V30.125H411.524ZM412.999 16.1V29.175H416.349V16.1H412.999ZM403.749 17.275C400.149 17.275 397.449 19.575 397.449 22.825C397.449 26.05 400.149 28.35 403.749 28.35C407.349 28.35 410.024 26.05 410.024 22.825C410.024 19.575 407.349 17.275 403.749 17.275ZM403.749 20.025C405.499 20.025 406.774 21.05 406.774 22.825C406.774 24.575 405.499 25.6 403.749 25.6C401.999 25.6 400.699 24.575 400.699 22.825C400.699 21.05 401.999 20.025 403.749 20.025ZM422.547 29.95V38.975H438.397V29.95H435.097V31.9H425.822V29.95H422.547ZM425.822 34.375H435.097V36.375H425.822V34.375ZM420.097 26.175V28.8H441.022V26.175H420.097ZM428.872 16.325V17.025C428.872 19.375 426.347 21.95 421.122 22.575L422.297 25.15C428.272 24.375 431.722 21.05 431.722 17.025V16.325H428.872ZM429.422 16.325V17.025C429.422 21.025 432.847 24.375 438.822 25.15L439.997 22.575C434.797 21.95 432.272 19.35 432.272 17.025V16.325H429.422ZM459.12 16.075V39.225H462.445V16.075H459.12ZM444.32 18.275V32.65H447.62V18.275H444.32ZM444.32 30.7V33.525H446.37C449.895 33.525 453.72 33.275 457.695 32.45L457.32 29.7C453.495 30.45 449.745 30.7 446.37 30.7H444.32ZM480.893 16.05V39.275H484.243V16.05H480.893ZM483.493 24.625V27.35H487.593V24.625H483.493ZM466.993 30.95V33.7H468.943C472.968 33.7 476.143 33.6 479.643 32.975L479.318 30.225C475.918 30.825 472.843 30.95 468.943 30.95H466.993ZM466.993 18.2V32.275H470.293V20.875H477.793V18.2H466.993ZM489.629 35.3032C489.629 34.7824 489.808 34.347 490.166 33.9971C490.532 33.6471 491.016 33.4722 491.619 33.4722C492.221 33.4722 492.701 33.6471 493.059 33.9971C493.425 34.347 493.608 34.7824 493.608 35.3032C493.608 35.8241 493.425 36.2594 493.059 36.6094C492.701 36.9593 492.221 37.1343 491.619 37.1343C491.016 37.1343 490.532 36.9593 490.166 36.6094C489.808 36.2594 489.629 35.8241 489.629 35.3032Z" fill="black"/>
</svg>
