<svg width="846" height="59" viewBox="0 0 846 59" fill="none" xmlns="http://www.w3.org/2000/svg">
<rect width="846" height="59" fill="white"/>
<path d="M21.025 33.85V36.55H41.975V33.85H21.025ZM29.8 28.725V34.475H33.125V28.725H29.8ZM23.2 17.775V29.15H39.675V17.775H23.2ZM36.425 20.425V26.525H26.475V20.425H36.425ZM44.023 27.5V30.15H64.973V27.5H44.023ZM46.548 22.975V25.65H62.673V22.975H46.548ZM46.548 16.925V23.95H49.873V19.55H62.473V16.925H46.548ZM46.498 36.15V38.825H62.823V36.15H46.498ZM46.498 31.9V36.825H49.798V31.9H46.498ZM89.2717 16.075V31.425H92.5967V16.075H89.2717ZM85.2967 22.2V24.875H89.7467V22.2H85.2967ZM81.6467 17.825V19.275C81.6467 23.175 79.2967 26.15 73.4967 27.875L74.8967 30.475C81.8717 28.275 85.1467 24.15 85.1467 17.825H81.6467ZM74.6967 17.825V20.475H84.0967V17.825H74.6967ZM83.1467 29.725V30.5C83.1467 33.125 80.8217 35.8 75.9217 36.55L77.1967 39.175C82.8467 38.2 85.9717 34.75 85.9717 30.5V29.725H83.1467ZM83.6217 29.725V30.5C83.6217 34.75 86.6967 38.2 92.3467 39.15L93.6717 36.525C88.7467 35.775 86.4467 33.1 86.4467 30.5V29.725H83.6217ZM105.47 24.6V27.275H109.27V24.6H105.47ZM112.945 16.075V39.225H116.12V16.075H112.945ZM108.22 16.425V38.175H111.345V16.425H108.22ZM101.42 17.7C98.3697 17.7 96.4197 20.875 96.4197 26.1C96.4197 31.35 98.3697 34.525 101.42 34.525C104.495 34.525 106.47 31.35 106.47 26.1C106.47 20.875 104.495 17.7 101.42 17.7ZM101.42 20.825C102.72 20.825 103.445 22.575 103.445 26.1C103.445 29.65 102.72 31.375 101.42 31.375C100.17 31.375 99.4447 29.65 99.4447 26.1C99.4447 22.575 100.17 20.825 101.42 20.825ZM142.168 16.075V39.225H145.318V16.075H142.168ZM139.068 24.975V27.65H142.918V24.975H139.068ZM136.993 16.475V38.125H140.068V16.475H136.993ZM126.093 31.275V34H127.718C130.693 34 133.143 33.925 135.943 33.375L135.693 30.675C132.943 31.175 130.568 31.275 127.718 31.275H126.093ZM126.093 18.75V32.575H129.393V21.425H134.643V18.75H126.093ZM148.416 19.55V22.2H159.491V19.55H148.416ZM153.991 23.225C151.066 23.225 148.916 25.5 148.916 28.75C148.916 31.975 151.066 34.25 153.991 34.25C156.941 34.25 159.066 31.975 159.066 28.75C159.066 25.5 156.941 23.225 153.991 23.225ZM153.991 26C155.241 26 156.141 27 156.141 28.75C156.141 30.5 155.241 31.475 153.991 31.475C152.741 31.475 151.866 30.5 151.866 28.75C151.866 27 152.741 26 153.991 26ZM165.166 16.075V39.225H168.341V16.075H165.166ZM162.391 25.475V28.15H166.216V25.475H162.391ZM160.316 16.5V38.25H163.416V16.5H160.316ZM152.366 16.7V21.225H155.641V16.7H152.366ZM188.015 30.475C183.015 30.475 179.815 32.125 179.815 34.875C179.815 37.575 183.015 39.225 188.015 39.225C193.015 39.225 196.215 37.575 196.215 34.875C196.215 32.125 193.015 30.475 188.015 30.475ZM188.015 32.975C191.14 32.975 192.915 33.625 192.915 34.875C192.915 36.1 191.14 36.725 188.015 36.725C184.89 36.725 183.115 36.1 183.115 34.875C183.115 33.625 184.89 32.975 188.015 32.975ZM180.065 17.1V19.725H194.715V17.1H180.065ZM177.715 26.4V29.05H198.565V26.4H177.715ZM185.44 22.375V27.075H188.74V22.375H185.44ZM192.79 17.1V19C192.79 20.8 192.79 22.475 192.165 24.85L195.465 25.2C196.09 22.8 196.09 20.825 196.09 19V17.1H192.79ZM200.663 29.4V32.025H221.638V29.4H200.663ZM209.413 30.725V39.225H212.713V30.725H209.413ZM203.063 16.95V27.2H219.163V16.95H215.863V19.575H206.363V16.95H203.063ZM206.363 22.175H215.863V24.55H206.363V22.175ZM238.511 16.075V39.225H241.811V16.075H238.511ZM241.061 25.1V27.875H245.161V25.1H241.061ZM223.561 19.5V22.15H237.036V19.5H223.561ZM230.336 23.45C226.961 23.45 224.461 25.75 224.461 28.975C224.461 32.2 226.961 34.5 230.336 34.5C233.711 34.5 236.211 32.2 236.211 28.975C236.211 25.75 233.711 23.45 230.336 23.45ZM230.336 26.15C231.911 26.15 233.036 27.2 233.036 28.975C233.036 30.75 231.911 31.8 230.336 31.8C228.761 31.8 227.636 30.75 227.636 28.975C227.636 27.2 228.761 26.15 230.336 26.15ZM228.661 16.45V20.5H231.986V16.45H228.661ZM248.809 18.025V20.7H263.484V18.025H248.809ZM246.684 33.75V36.45H267.609V33.75H246.684ZM254.084 25.8V35.075H257.409V25.8H254.084ZM262.284 18.025V20.25C262.284 23.025 262.284 26.375 261.359 30.975L264.684 31.35C265.609 26.4 265.609 23.15 265.609 20.25V18.025H262.284ZM287.033 19.725V22.375H292.458V19.725H287.033ZM286.858 24.525V27.175H292.283V24.525H286.858ZM291.933 16.075V29.4H295.258V16.075H291.933ZM284.383 17.65V19.25C284.383 22.875 281.933 25.775 276.058 27.3L277.358 29.925C284.383 28 287.933 23.95 287.933 17.65H284.383ZM277.333 17.65V20.3H286.708V17.65H277.333ZM287.583 29.7C282.883 29.7 279.758 31.5 279.758 34.4C279.758 37.3 282.883 39.125 287.583 39.125C292.283 39.125 295.408 37.3 295.408 34.4C295.408 31.5 292.283 29.7 287.583 29.7ZM287.583 32.25C290.433 32.25 292.133 32.975 292.133 34.4C292.133 35.825 290.433 36.525 287.583 36.525C284.758 36.525 283.058 35.825 283.058 34.4C283.058 32.975 284.758 32.25 287.583 32.25ZM314.931 16.075V30.05H318.256V16.075H314.931ZM312.031 22.85V25.55H316.281V22.85H312.031ZM302.831 31.025V38.975H318.256V31.025H302.831ZM315.006 33.65V36.35H306.106V33.65H315.006ZM298.956 18.075V20.7H312.481V18.075H298.956ZM305.731 21.45C302.506 21.45 300.181 23.175 300.181 25.625C300.181 28.1 302.506 29.775 305.731 29.775C308.956 29.775 311.256 28.1 311.256 25.625C311.256 23.175 308.956 21.45 305.731 21.45ZM305.731 23.925C307.131 23.925 308.081 24.5 308.081 25.625C308.081 26.75 307.131 27.35 305.731 27.35C304.306 27.35 303.356 26.75 303.356 25.625C303.356 24.5 304.306 23.925 305.731 23.925ZM304.056 15.875V19.95H307.381V15.875H304.056ZM336.729 16.075V39.225H340.029V16.075H336.729ZM339.279 25.1V27.875H343.379V25.1H339.279ZM321.779 19.5V22.15H335.254V19.5H321.779ZM328.554 23.45C325.179 23.45 322.679 25.75 322.679 28.975C322.679 32.2 325.179 34.5 328.554 34.5C331.929 34.5 334.429 32.2 334.429 28.975C334.429 25.75 331.929 23.45 328.554 23.45ZM328.554 26.15C330.129 26.15 331.254 27.2 331.254 28.975C331.254 30.75 330.129 31.8 328.554 31.8C326.979 31.8 325.854 30.75 325.854 28.975C325.854 27.2 326.979 26.15 328.554 26.15ZM326.879 16.45V20.5H330.204V16.45H326.879ZM347.027 18.025V20.7H361.702V18.025H347.027ZM344.902 33.75V36.45H365.827V33.75H344.902ZM352.302 25.8V35.075H355.627V25.8H352.302ZM360.502 18.025V20.25C360.502 23.025 360.502 26.375 359.577 30.975L362.902 31.35C363.827 26.4 363.827 23.15 363.827 20.25V18.025H360.502ZM390.001 16.1V28.9H393.351V16.1H390.001ZM379.526 16.875V19.1C379.526 21.925 377.876 24.825 373.976 26L375.601 28.6C380.126 27.225 382.276 23.375 382.276 19.1V16.875H379.526ZM380.201 16.875V19.1C380.201 23.3 382.276 26.9 386.726 28.225L388.326 25.6C384.551 24.525 382.926 21.85 382.926 19.1V16.875H380.201ZM377.701 29.95V32.575H393.451V29.95H377.701ZM377.476 36.35V38.975H393.676V36.35H377.476ZM380.426 30.925V37.9H383.676V30.925H380.426ZM387.476 30.925V37.9H390.751V30.925H387.476ZM399.549 29.95V38.975H415.399V29.95H412.099V31.9H402.824V29.95H399.549ZM402.824 34.375H412.099V36.375H402.824V34.375ZM397.099 26.175V28.8H418.024V26.175H397.099ZM405.874 16.325V17.025C405.874 19.375 403.349 21.95 398.124 22.575L399.299 25.15C405.274 24.375 408.724 21.05 408.724 17.025V16.325H405.874ZM406.424 16.325V17.025C406.424 21.025 409.849 24.375 415.824 25.15L416.999 22.575C411.799 21.95 409.274 19.35 409.274 17.025V16.325H406.424ZM436.122 16.075V39.225H439.447V16.075H436.122ZM421.322 18.275V32.65H424.622V18.275H421.322ZM421.322 30.7V33.525H423.372C426.897 33.525 430.722 33.275 434.697 32.45L434.322 29.7C430.497 30.45 426.747 30.7 423.372 30.7H421.322ZM457.895 16.05V39.275H461.245V16.05H457.895ZM460.495 24.625V27.35H464.595V24.625H460.495ZM443.995 30.95V33.7H445.945C449.97 33.7 453.145 33.6 456.645 32.975L456.32 30.225C452.92 30.825 449.845 30.95 445.945 30.95H443.995ZM443.995 18.2V32.275H447.295V20.875H454.795V18.2H443.995ZM466.631 35.3032C466.631 34.7824 466.81 34.347 467.168 33.9971C467.534 33.6471 468.018 33.4722 468.621 33.4722C469.223 33.4722 469.703 33.6471 470.061 33.9971C470.427 34.347 470.61 34.7824 470.61 35.3032C470.61 35.8241 470.427 36.2594 470.061 36.6094C469.703 36.9593 469.223 37.1343 468.621 37.1343C468.018 37.1343 467.534 36.9593 467.168 36.6094C466.81 36.2594 466.631 35.8241 466.631 35.3032Z" fill="black"/>
</svg>
