<svg width="846" height="59" viewBox="0 0 846 59" fill="none" xmlns="http://www.w3.org/2000/svg">
<rect width="846" height="59" fill="white"/>
<path d="M35.9 16.075V32.9H39.225V16.075H35.9ZM38.275 22.7V25.425H42.3V22.7H38.275ZM24.3 36.175V38.825H40.05V36.175H24.3ZM24.3 31.15V37.35H27.625V31.15H24.3ZM27.45 17.55C23.9 17.55 21.15 20.025 21.15 23.45C21.15 26.85 23.9 29.325 27.45 29.325C31 29.325 33.75 26.85 33.75 23.45C33.75 20.025 31 17.55 27.45 17.55ZM27.45 20.45C29.175 20.45 30.5 21.55 30.5 23.45C30.5 25.325 29.175 26.425 27.45 26.425C25.75 26.425 24.4 25.325 24.4 23.45C24.4 21.55 25.75 20.45 27.45 20.45ZM45.348 17.25V26.975H48.648V17.25H45.348ZM45.348 26.3V29H47.223C51.373 29 54.273 28.875 57.473 28.25L57.098 25.6C53.998 26.2 51.223 26.3 47.223 26.3H45.348ZM60.048 16.075V29.95H63.373V16.075H60.048ZM54.548 18.125V20.65H60.873V18.125H54.548ZM54.548 22.125V24.65H60.873V22.125H54.548ZM55.523 30.25C50.623 30.25 47.598 31.925 47.598 34.75C47.598 37.6 50.623 39.25 55.523 39.25C60.423 39.25 63.448 37.6 63.448 34.75C63.448 31.925 60.423 30.25 55.523 30.25ZM55.523 32.825C58.548 32.825 60.148 33.45 60.148 34.75C60.148 36.05 58.548 36.675 55.523 36.675C52.523 36.675 50.923 36.05 50.923 34.75C50.923 33.45 52.523 32.825 55.523 32.825ZM81.8461 16.075V39.225H85.1461V16.075H81.8461ZM84.3961 25.1V27.875H88.4961V25.1H84.3961ZM66.8961 19.5V22.15H80.3711V19.5H66.8961ZM73.6711 23.45C70.2961 23.45 67.7961 25.75 67.7961 28.975C67.7961 32.2 70.2961 34.5 73.6711 34.5C77.0461 34.5 79.5461 32.2 79.5461 28.975C79.5461 25.75 77.0461 23.45 73.6711 23.45ZM73.6711 26.15C75.2461 26.15 76.3711 27.2 76.3711 28.975C76.3711 30.75 75.2461 31.8 73.6711 31.8C72.0961 31.8 70.9711 30.75 70.9711 28.975C70.9711 27.2 72.0961 26.15 73.6711 26.15ZM71.9961 16.45V20.5H75.3211V16.45H71.9961ZM99.1191 23.85V26.55H102.944V23.85H99.1191ZM94.1691 18.075V21.975C94.1691 25.9 92.9691 30.025 89.5691 32.125L91.5691 34.625C95.2691 32.35 96.7191 27.225 96.7191 21.975V18.075H94.1691ZM94.8941 18.075V21.825C94.8941 26.825 96.0441 31.825 99.7191 34.1L101.519 31.5C98.3691 29.45 97.3941 25.6 97.3941 21.825V18.075H94.8941ZM106.719 16.075V39.225H109.894V16.075H106.719ZM102.019 16.425V38.175H105.119V16.425H102.019ZM117.617 27.825V34.325H120.917V27.825H117.617ZM126.017 27.825V34.325H129.342V27.825H126.017ZM113.017 33.85V36.55H133.967V33.85H113.017ZM123.467 17.2C118.467 17.2 114.817 19.65 114.817 23.425C114.817 27.2 118.467 29.625 123.467 29.625C128.442 29.625 132.117 27.2 132.117 23.425C132.117 19.65 128.442 17.2 123.467 17.2ZM123.467 19.8C126.692 19.8 128.842 21.125 128.842 23.425C128.842 25.7 126.692 27.05 123.467 27.05C120.242 27.05 118.092 25.7 118.092 23.425C118.092 21.125 120.242 19.8 123.467 19.8ZM136.528 35.3032C136.528 34.7824 136.707 34.347 137.065 33.9971C137.432 33.6471 137.916 33.4722 138.518 33.4722C139.12 33.4722 139.6 33.6471 139.958 33.9971C140.325 34.347 140.508 34.7824 140.508 35.3032C140.508 35.8241 140.325 36.2594 139.958 36.6094C139.6 36.9593 139.12 37.1343 138.518 37.1343C137.916 37.1343 137.432 36.9593 137.065 36.6094C136.707 36.2594 136.528 35.8241 136.528 35.3032ZM158.242 22.975V26.2H161.542V22.975H158.242ZM157.642 17.725V18.3C157.642 19.85 155.417 21.525 150.342 21.8L151.367 24.275C157.367 23.875 160.542 21.45 160.542 18.3V17.725H157.642ZM159.342 17.725V18.3C159.342 21.475 162.517 23.875 168.492 24.275L169.517 21.8C164.417 21.525 162.217 19.85 162.217 18.3V17.725H159.342ZM151.367 16.65V19.175H168.517V16.65H151.367ZM151.342 30.025V32.525H168.467V30.025H151.342ZM149.467 25.075V27.7H170.442V25.075H149.467ZM159.892 33.2C155.417 33.2 152.817 34.275 152.817 36.25C152.817 38.25 155.417 39.3 159.892 39.3C164.367 39.3 166.967 38.25 166.967 36.25C166.967 34.275 164.367 33.2 159.892 33.2ZM159.892 35.375C162.317 35.375 163.517 35.6 163.517 36.25C163.517 36.875 162.317 37.125 159.892 37.125C157.467 37.125 156.267 36.875 156.267 36.25C156.267 35.6 157.467 35.375 159.892 35.375ZM158.242 28.4V31.525H161.567V28.4H158.242ZM172.465 27.875V30.525H193.39V27.875H172.465ZM174.99 36.175V38.825H191.04V36.175H174.99ZM174.99 32.075V37.025H178.315V32.075H174.99ZM182.94 16.75C177.89 16.75 174.565 18.575 174.565 21.525C174.565 24.475 177.89 26.3 182.94 26.3C187.965 26.3 191.315 24.475 191.315 21.525C191.315 18.575 187.965 16.75 182.94 16.75ZM182.94 19.4C186.065 19.4 187.89 20.125 187.89 21.525C187.89 22.95 186.065 23.65 182.94 23.65C179.815 23.65 177.99 22.95 177.99 21.525C177.99 20.125 179.815 19.4 182.94 19.4ZM216.538 16.075V39.225H219.838V16.075H216.538ZM219.088 25.1V27.875H223.188V25.1H219.088ZM201.588 19.5V22.15H215.063V19.5H201.588ZM208.363 23.45C204.988 23.45 202.488 25.75 202.488 28.975C202.488 32.2 204.988 34.5 208.363 34.5C211.738 34.5 214.238 32.2 214.238 28.975C214.238 25.75 211.738 23.45 208.363 23.45ZM208.363 26.15C209.938 26.15 211.063 27.2 211.063 28.975C211.063 30.75 209.938 31.8 208.363 31.8C206.788 31.8 205.663 30.75 205.663 28.975C205.663 27.2 206.788 26.15 208.363 26.15ZM206.688 16.45V20.5H210.013V16.45H206.688ZM227.087 16.8V19.45H239.862V21.225H227.137V27.225H230.512V23.7H243.237V16.8H227.087ZM227.137 25.6V28.225H243.812V25.6H227.137ZM224.687 29.925V32.6H245.662V29.925H224.687ZM233.462 30.9V39.275H236.787V30.9H233.462ZM255.485 25.45V28.1H267.585V25.45H255.485ZM259.835 27.6V32.475H263.185V27.6H259.835ZM255.485 18.125V26.275H258.81V20.75H267.435V18.125H255.485ZM269.91 16.05V39.275H273.235V16.05H269.91ZM254.41 34.7C258.71 34.725 263.885 34.675 268.885 33.9L268.635 31.475C263.885 32 258.435 32.025 254.01 32.025L254.41 34.7ZM286.033 23.85V26.55H289.858V23.85H286.033ZM281.083 18.075V21.975C281.083 25.9 279.883 30.025 276.483 32.125L278.483 34.625C282.183 32.35 283.633 27.225 283.633 21.975V18.075H281.083ZM281.808 18.075V21.825C281.808 26.825 282.958 31.825 286.633 34.1L288.433 31.5C285.283 29.45 284.308 25.6 284.308 21.825V18.075H281.808ZM293.633 16.075V39.225H296.808V16.075H293.633ZM288.933 16.425V38.175H292.033V16.425H288.933ZM304.531 27.825V34.325H307.831V27.825H304.531ZM312.931 27.825V34.325H316.256V27.825H312.931ZM299.931 33.85V36.55H320.881V33.85H299.931ZM310.381 17.2C305.381 17.2 301.731 19.65 301.731 23.425C301.731 27.2 305.381 29.625 310.381 29.625C315.356 29.625 319.031 27.2 319.031 23.425C319.031 19.65 315.356 17.2 310.381 17.2ZM310.381 19.8C313.606 19.8 315.756 21.125 315.756 23.425C315.756 25.7 313.606 27.05 310.381 27.05C307.156 27.05 305.006 25.7 305.006 23.425C305.006 21.125 307.156 19.8 310.381 19.8ZM323.442 35.3032C323.442 34.7824 323.621 34.347 323.979 33.9971C324.346 33.6471 324.83 33.4722 325.432 33.4722C326.034 33.4722 326.514 33.6471 326.873 33.9971C327.239 34.347 327.422 34.7824 327.422 35.3032C327.422 35.8241 327.239 36.2594 326.873 36.6094C326.514 36.9593 326.034 37.1343 325.432 37.1343C324.83 37.1343 324.346 36.9593 323.979 36.6094C323.621 36.2594 323.442 35.8241 323.442 35.3032Z" fill="black"/>
</svg>
