<svg width="846" height="59" viewBox="0 0 846 59" fill="none" xmlns="http://www.w3.org/2000/svg">
<rect width="846" height="59" fill="white"/>
<path d="M31.75 18.4V20.975H37.675V18.4H31.75ZM31.75 23.1V25.675H37.675V23.1H31.75ZM27.4 16.7C23.9 16.7 21.275 18.925 21.275 22.075C21.275 25.175 23.9 27.4 27.4 27.4C30.9 27.4 33.5 25.175 33.5 22.075C33.5 18.925 30.9 16.7 27.4 16.7ZM27.4 19.4C29.125 19.4 30.35 20.375 30.35 22.075C30.35 23.75 29.125 24.725 27.4 24.725C25.675 24.725 24.45 23.75 24.45 22.075C24.45 20.375 25.675 19.4 27.4 19.4ZM37.05 16.075V27.65H40.375V16.075H37.05ZM25.075 28.625V31.175H37.075V32.525H25.1V37.75H28.4V34.925H40.375V28.625H25.075ZM25.1 36.4V38.975H41.025V36.4H25.1ZM59.898 16.1V29.15H63.248V16.1H59.898ZM47.848 30.225V38.975H63.248V30.225H47.848ZM59.973 32.825V36.35H51.098V32.825H59.973ZM49.423 16.925V19.15C49.423 22 47.773 24.95 43.898 26.15L45.498 28.775C50.023 27.35 52.173 23.45 52.173 19.15V16.925H49.423ZM50.098 16.925V19.15C50.098 23.4 52.173 27.025 56.598 28.35L58.198 25.775C54.448 24.65 52.823 21.95 52.823 19.15V16.925H50.098ZM82.8711 16.075V39.225H86.2211V16.075H82.8711ZM67.4961 19.55V22.175H81.1961V19.55H67.4961ZM74.3711 23.45C70.9461 23.45 68.4461 25.75 68.4461 28.975C68.4461 32.2 70.9461 34.5 74.3711 34.5C77.7961 34.5 80.3211 32.2 80.3211 28.975C80.3211 25.75 77.7961 23.45 74.3711 23.45ZM74.3711 26.15C75.9711 26.15 77.1211 27.2 77.1211 28.975C77.1211 30.75 75.9711 31.8 74.3711 31.8C72.7711 31.8 71.6211 30.75 71.6211 28.975C71.6211 27.2 72.7711 26.15 74.3711 26.15ZM72.6711 16.4V21.175H76.0211V16.4H72.6711ZM106.57 30.475C101.57 30.475 98.3697 32.125 98.3697 34.875C98.3697 37.575 101.57 39.225 106.57 39.225C111.57 39.225 114.77 37.575 114.77 34.875C114.77 32.125 111.57 30.475 106.57 30.475ZM106.57 32.975C109.695 32.975 111.47 33.625 111.47 34.875C111.47 36.1 109.695 36.725 106.57 36.725C103.445 36.725 101.67 36.1 101.67 34.875C101.67 33.625 103.445 32.975 106.57 32.975ZM98.6197 17.1V19.725H113.27V17.1H98.6197ZM96.2697 26.4V29.05H117.12V26.4H96.2697ZM103.995 22.375V27.075H107.295V22.375H103.995ZM111.345 17.1V19C111.345 20.8 111.345 22.475 110.72 24.85L114.02 25.2C114.645 22.8 114.645 20.825 114.645 19V17.1H111.345ZM119.218 29.4V32.025H140.193V29.4H119.218ZM127.968 30.725V39.225H131.268V30.725H127.968ZM121.618 16.95V27.2H137.718V16.95H134.418V19.575H124.918V16.95H121.618ZM124.918 22.175H134.418V24.55H124.918V22.175ZM157.066 16.075V39.225H160.366V16.075H157.066ZM159.616 25.1V27.875H163.716V25.1H159.616ZM142.116 19.5V22.15H155.591V19.5H142.116ZM148.891 23.45C145.516 23.45 143.016 25.75 143.016 28.975C143.016 32.2 145.516 34.5 148.891 34.5C152.266 34.5 154.766 32.2 154.766 28.975C154.766 25.75 152.266 23.45 148.891 23.45ZM148.891 26.15C150.466 26.15 151.591 27.2 151.591 28.975C151.591 30.75 150.466 31.8 148.891 31.8C147.316 31.8 146.191 30.75 146.191 28.975C146.191 27.2 147.316 26.15 148.891 26.15ZM147.216 16.45V20.5H150.541V16.45H147.216ZM176.389 19.7V22.35H182.214V19.7H176.389ZM176.389 24.675V27.325H182.314V24.675H176.389ZM166.164 17.925V29.25H177.114V17.925H166.164ZM173.839 20.55V26.65H169.439V20.55H173.839ZM181.264 16.1V32.95H184.589V16.1H181.264ZM169.264 36.175V38.825H185.089V36.175H169.264ZM169.264 31.35V37.55H172.614V31.35H169.264ZM199.813 17.275V19.35C199.813 22.525 198.188 25.65 194.238 26.925L195.963 29.6C200.513 28.075 202.588 24 202.588 19.35V17.275H199.813ZM200.513 17.275V19.2C200.513 23.7 202.363 27.425 206.637 28.9L208.363 26.3C204.688 25.125 203.188 22.275 203.188 19.2V17.275H200.513ZM210.488 16.075V29.625H213.813V16.075H210.488ZM205.963 30.225C201.063 30.225 198.038 31.9 198.038 34.725C198.038 37.575 201.063 39.225 205.963 39.225C210.863 39.225 213.888 37.575 213.888 34.725C213.888 31.9 210.863 30.225 205.963 30.225ZM205.963 32.8C208.988 32.8 210.588 33.425 210.588 34.725C210.588 36.025 208.988 36.675 205.963 36.675C202.963 36.675 201.363 36.025 201.363 34.725C201.363 33.425 202.963 32.8 205.963 32.8ZM206.263 20.275V22.975H210.963V20.275H206.263ZM222.586 18.65V20.1C222.586 23.05 220.961 26.075 217.111 27.35L218.761 29.975C223.236 28.5 225.311 24.525 225.311 20.1V18.65H222.586ZM223.261 18.65V20.1C223.261 24.225 225.261 27.85 229.661 29.175L231.236 26.575C227.511 25.45 225.961 22.8 225.961 20.1V18.65H223.261ZM217.986 17.625V20.275H230.486V17.625H217.986ZM232.336 16.075V29.8H235.661V16.075H232.336ZM234.736 21.4V24.125H238.736V21.4H234.736ZM228.111 30.225C223.286 30.225 220.261 31.9 220.261 34.725C220.261 37.55 223.286 39.225 228.111 39.225C232.911 39.225 235.936 37.55 235.936 34.725C235.936 31.9 232.911 30.225 228.111 30.225ZM228.111 32.825C231.061 32.825 232.636 33.425 232.636 34.725C232.636 36.025 231.061 36.675 228.111 36.675C225.161 36.675 223.561 36.025 223.561 34.725C223.561 33.425 225.161 32.825 228.111 32.825ZM255.284 16.075V39.225H258.584V16.075H255.284ZM257.834 25.1V27.875H261.934V25.1H257.834ZM240.334 19.5V22.15H253.809V19.5H240.334ZM247.109 23.45C243.734 23.45 241.234 25.75 241.234 28.975C241.234 32.2 243.734 34.5 247.109 34.5C250.484 34.5 252.984 32.2 252.984 28.975C252.984 25.75 250.484 23.45 247.109 23.45ZM247.109 26.15C248.684 26.15 249.809 27.2 249.809 28.975C249.809 30.75 248.684 31.8 247.109 31.8C245.534 31.8 244.409 30.75 244.409 28.975C244.409 27.2 245.534 26.15 247.109 26.15ZM245.434 16.45V20.5H248.759V16.45H245.434ZM265.582 18.025V20.7H280.257V18.025H265.582ZM263.457 33.75V36.45H284.382V33.75H263.457ZM270.857 25.8V35.075H274.182V25.8H270.857ZM279.057 18.025V20.25C279.057 23.025 279.057 26.375 278.132 30.975L281.457 31.35C282.382 26.4 282.382 23.15 282.382 20.25V18.025H279.057ZM297.855 30.125V30.9C297.855 33.15 296.58 35.45 293.555 36.475L295.18 38.9C298.805 37.6 300.355 34.4 300.355 30.9V30.125H297.855ZM298.705 30.125V30.9C298.705 34.3 300.03 37.75 303.705 39.125L305.03 36.675C302.205 35.5 301.08 33.15 301.08 30.9V30.125H298.705ZM306.305 30.125V30.9C306.305 32.95 305.155 35.4 302.33 36.675L303.705 39.125C307.305 37.7 308.68 34.1 308.68 30.9V30.125H306.305ZM307.08 30.125V30.9C307.08 34.55 308.58 37.65 312.255 38.9L313.88 36.475C310.83 35.525 309.58 33.3 309.58 30.9V30.125H307.08ZM308.555 16.1V29.175H311.905V16.1H308.555ZM299.305 17.275C295.705 17.275 293.005 19.575 293.005 22.825C293.005 26.05 295.705 28.35 299.305 28.35C302.905 28.35 305.58 26.05 305.58 22.825C305.58 19.575 302.905 17.275 299.305 17.275ZM299.305 20.025C301.055 20.025 302.33 21.05 302.33 22.825C302.33 24.575 301.055 25.6 299.305 25.6C297.555 25.6 296.255 24.575 296.255 22.825C296.255 21.05 297.555 20.025 299.305 20.025ZM318.103 29.95V38.975H333.953V29.95H330.653V31.9H321.378V29.95H318.103ZM321.378 34.375H330.653V36.375H321.378V34.375ZM315.653 26.175V28.8H336.578V26.175H315.653ZM324.428 16.325V17.025C324.428 19.375 321.903 21.95 316.678 22.575L317.853 25.15C323.828 24.375 327.278 21.05 327.278 17.025V16.325H324.428ZM324.978 16.325V17.025C324.978 21.025 328.403 24.375 334.378 25.15L335.553 22.575C330.353 21.95 327.828 19.35 327.828 17.025V16.325H324.978ZM354.676 16.075V39.225H358.001V16.075H354.676ZM339.876 18.275V32.65H343.176V18.275H339.876ZM339.876 30.7V33.525H341.926C345.451 33.525 349.276 33.275 353.251 32.45L352.876 29.7C349.051 30.45 345.301 30.7 341.926 30.7H339.876ZM376.449 16.05V39.275H379.799V16.05H376.449ZM379.049 24.625V27.35H383.149V24.625H379.049ZM362.549 30.95V33.7H364.499C368.524 33.7 371.699 33.6 375.199 32.975L374.874 30.225C371.474 30.825 368.399 30.95 364.499 30.95H362.549ZM362.549 18.2V32.275H365.849V20.875H373.349V18.2H362.549ZM385.186 35.3032C385.186 34.7824 385.365 34.347 385.723 33.9971C386.089 33.6471 386.573 33.4722 387.175 33.4722C387.778 33.4722 388.258 33.6471 388.616 33.9971C388.982 34.347 389.165 34.7824 389.165 35.3032C389.165 35.8241 388.982 36.2594 388.616 36.6094C388.258 36.9593 387.778 37.1343 387.175 37.1343C386.573 37.1343 386.089 36.9593 385.723 36.6094C385.365 36.2594 385.186 35.8241 385.186 35.3032Z" fill="black"/>
</svg>
