<svg width="846" height="59" viewBox="0 0 846 59" fill="none" xmlns="http://www.w3.org/2000/svg">
<rect width="846" height="59" fill="white"/>
<path d="M37.725 16.075V39.225H40.875V16.075H37.725ZM30.1 23.975V26.675H33.925V23.975H30.1ZM33.05 16.45V38.175H36.15V16.45H33.05ZM25.1 19.85V22.225C25.1 26.175 23.925 30.325 20.525 32.45L22.5 34.9C26.175 32.6 27.6 27.425 27.6 22.225V19.85H25.1ZM25.85 19.85V22.225C25.85 27.325 27.2 32.175 30.875 34.35L32.825 31.925C29.475 29.975 28.325 26.075 28.325 22.225V19.85H25.85ZM21.4 18.4V21.075H31.725V18.4H21.4ZM66.1236 16.075V31.4H69.4486V16.075H66.1236ZM59.0486 17.775V19.325C59.0486 23.175 56.3236 26.25 50.4736 27.875L51.7486 30.5C58.8486 28.425 62.4986 24.1 62.4986 17.775H59.0486ZM51.7986 17.775V20.425H61.1986V17.775H51.7986ZM59.8986 30V30.775C59.8986 33.325 57.5736 35.9 52.6486 36.575L53.8986 39.175C59.5736 38.275 62.7236 34.95 62.7236 30.775V30H59.8986ZM60.5236 30V30.775C60.5236 34.95 63.6236 38.275 69.3236 39.175L70.5986 36.575C65.6236 35.875 63.3486 33.325 63.3486 30.775V30H60.5236ZM73.2717 19.5V22.175H86.7467V19.5H73.2717ZM79.9967 23.45C76.8467 23.45 74.4467 25.775 74.4467 28.975C74.4467 32.15 76.8467 34.5 79.9967 34.5C83.1717 34.5 85.5467 32.15 85.5467 28.975C85.5467 25.775 83.1717 23.45 79.9967 23.45ZM79.9967 26.225C81.4217 26.225 82.4967 27.25 82.4967 28.975C82.4967 30.7 81.4217 31.7 79.9967 31.7C78.5967 31.7 77.5217 30.7 77.5217 28.975C77.5217 27.25 78.5967 26.225 79.9967 26.225ZM78.3467 16.45V20.825H81.6717V16.45H78.3467ZM89.3467 16.075V39.225H92.6467V16.075H89.3467ZM86.2967 25.175V27.875H92.0217V25.175H86.2967ZM96.2447 33.75V36.475H117.195V33.75H96.2447ZM98.4447 17.575V29.925H114.92V17.575H111.62V21.325H101.745V17.575H98.4447ZM101.745 23.9H111.62V27.3H101.745V23.9ZM128.468 24.6V27.275H132.268V24.6H128.468ZM135.943 16.075V39.225H139.118V16.075H135.943ZM131.218 16.425V38.175H134.343V16.425H131.218ZM124.418 17.7C121.368 17.7 119.418 20.875 119.418 26.1C119.418 31.35 121.368 34.525 124.418 34.525C127.493 34.525 129.468 31.35 129.468 26.1C129.468 20.875 127.493 17.7 124.418 17.7ZM124.418 20.825C125.718 20.825 126.443 22.575 126.443 26.1C126.443 29.65 125.718 31.375 124.418 31.375C123.168 31.375 122.443 29.65 122.443 26.1C122.443 22.575 123.168 20.825 124.418 20.825ZM157.241 29.1V34.375H160.566V29.1H157.241ZM158.916 17.25C153.966 17.25 150.266 19.775 150.266 23.625C150.266 27.525 153.966 30.025 158.916 30.025C163.866 30.025 167.566 27.525 167.566 23.625C167.566 19.775 163.866 17.25 158.916 17.25ZM158.916 19.875C162.091 19.875 164.291 21.275 164.291 23.625C164.291 26.025 162.091 27.4 158.916 27.4C155.741 27.4 153.541 26.025 153.541 23.625C153.541 21.275 155.741 19.875 158.916 19.875ZM148.466 33.85V36.55H169.416V33.85H148.466ZM187.339 16.1V32.975H190.689V16.1H187.339ZM175.264 36.175V38.825H191.264V36.175H175.264ZM175.264 31.35V37.55H178.589V31.35H175.264ZM176.864 17.35V19.6C176.864 22.675 175.239 25.9 171.364 27.225L173.039 29.875C177.539 28.3 179.614 24.125 179.614 19.6V17.35H176.864ZM177.539 17.35V19.6C177.539 24.075 179.564 28 183.939 29.475L185.639 26.825C181.839 25.6 180.264 22.625 180.264 19.6V17.35H177.539ZM210.488 16.075V27.65H213.813V16.075H210.488ZM206.438 20.975V23.625H210.888V20.975H206.438ZM202.663 16.925V18.6C202.663 21.8 200.313 24.4 194.713 25.625L195.838 28.25C202.613 26.625 206.163 22.975 206.163 16.925H202.663ZM196.038 16.925V19.55H205.438V16.925H196.038ZM198.513 28.525V31.125H210.488V32.475H198.563V37.775H201.888V34.925H213.813V28.525H198.513ZM198.563 36.4V39H214.288V36.4H198.563ZM238.711 16.075V34.175H242.036V16.075H238.711ZM240.861 23.65V26.35H244.936V23.65H240.861ZM226.586 36.175V38.825H242.811V36.175H226.586ZM226.586 33V36.95H229.936V33H226.586ZM228.911 27.2V30.575H232.236V27.2H228.911ZM223.761 31.925C227.711 31.875 233.136 31.775 237.936 30.875L237.686 28.6C232.986 29.3 227.411 29.375 223.386 29.375L223.761 31.925ZM223.986 17.925V20.325H237.111V17.925H223.986ZM230.561 20.925C227.161 20.925 224.911 22.275 224.911 24.525C224.911 26.725 227.161 28.1 230.561 28.1C233.961 28.1 236.186 26.725 236.186 24.525C236.186 22.275 233.961 20.925 230.561 20.925ZM230.561 23.15C232.111 23.15 233.036 23.6 233.036 24.525C233.036 25.4 232.111 25.85 230.561 25.85C228.986 25.85 228.061 25.4 228.061 24.525C228.061 23.6 228.986 23.15 230.561 23.15ZM228.911 15.975V18.95H232.236V15.975H228.911ZM256.909 19.1V21.75H263.759V19.1H256.909ZM256.909 24.225V26.9H263.759V24.225H256.909ZM253.059 17.3C249.584 17.3 246.934 19.7 246.934 22.975C246.934 26.25 249.584 28.65 253.059 28.65C256.509 28.65 259.159 26.25 259.159 22.975C259.159 19.7 256.509 17.3 253.059 17.3ZM253.059 20.125C254.759 20.125 256.009 21.15 256.009 22.975C256.009 24.775 254.759 25.85 253.059 25.85C251.359 25.85 250.109 24.775 250.109 22.975C250.109 21.15 251.359 20.125 253.059 20.125ZM262.709 16.075V29.625H266.034V16.075H262.709ZM258.184 30.1C253.309 30.1 250.259 31.8 250.259 34.675C250.259 37.55 253.309 39.225 258.184 39.225C263.059 39.225 266.109 37.55 266.109 34.675C266.109 31.8 263.059 30.1 258.184 30.1ZM258.184 32.675C261.234 32.675 262.834 33.325 262.834 34.675C262.834 36.025 261.234 36.675 258.184 36.675C255.159 36.675 253.534 36.025 253.534 34.675C253.534 33.325 255.159 32.675 258.184 32.675ZM284.557 16.075V29.625H287.882V16.075H284.557ZM286.557 21.625V24.375H290.957V21.625H286.557ZM272.832 30.525V38.975H287.882V30.525H284.582V32.275H276.107V30.525H272.832ZM276.107 34.775H284.582V36.375H276.107V34.775ZM269.657 18.075V20.7H283.282V18.075H269.657ZM276.482 21.325C273.107 21.325 270.782 22.975 270.782 25.425C270.782 27.875 273.107 29.525 276.482 29.525C279.832 29.525 282.157 27.875 282.157 25.425C282.157 22.975 279.832 21.325 276.482 21.325ZM276.482 23.75C277.957 23.75 278.982 24.35 278.982 25.425C278.982 26.525 277.957 27.1 276.482 27.1C274.982 27.1 273.982 26.525 273.982 25.425C273.982 24.35 274.982 23.75 276.482 23.75ZM274.807 15.9V19.55H278.132V15.9H274.807ZM308.68 16.075V39.225H312.005V16.075H308.68ZM293.88 18.275V32.65H297.18V18.275H293.88ZM293.88 30.7V33.525H295.93C299.455 33.525 303.28 33.275 307.255 32.45L306.88 29.7C303.055 30.45 299.305 30.7 295.93 30.7H293.88ZM330.453 16.05V39.275H333.803V16.05H330.453ZM333.053 24.625V27.35H337.153V24.625H333.053ZM316.553 30.95V33.7H318.503C322.528 33.7 325.703 33.6 329.203 32.975L328.878 30.225C325.478 30.825 322.403 30.95 318.503 30.95H316.553ZM316.553 18.2V32.275H319.853V20.875H327.353V18.2H316.553ZM339.189 35.3032C339.189 34.7824 339.368 34.347 339.727 33.9971C340.093 33.6471 340.577 33.4722 341.179 33.4722C341.781 33.4722 342.262 33.6471 342.62 33.9971C342.986 34.347 343.169 34.7824 343.169 35.3032C343.169 35.8241 342.986 36.2594 342.62 36.6094C342.262 36.9593 341.781 37.1343 341.179 37.1343C340.577 37.1343 340.093 36.9593 339.727 36.6094C339.368 36.2594 339.189 35.8241 339.189 35.3032Z" fill="black"/>
</svg>
